<svg width="50" height="50" viewBox="0 0 50 50" fill="none" xmlns="http://www.w3.org/2000/svg">
<path d="M3.7147 26.6449C16.1587 23.7282 27.6352 17.6386 37.0267 8.9691L36.1593 8.06267C36.0663 7.96428 36.0002 7.84354 35.9676 7.71214C35.9349 7.58075 35.9368 7.44314 35.9729 7.31267C36.0091 7.18219 36.0783 7.06327 36.174 6.96741C36.2696 6.87155 36.3883 6.80201 36.5187 6.76553L45.8958 4.30408C46.0285 4.27189 46.1674 4.2748 46.2987 4.31253C46.4299 4.35026 46.5491 4.4215 46.6445 4.51926C46.7399 4.61702 46.8082 4.73792 46.8428 4.87008C46.8773 5.00224 46.8768 5.14111 46.8414 5.27303L44.2235 14.6031C44.1851 14.7354 44.1126 14.8553 44.0133 14.9507C43.914 15.0462 43.7913 15.1139 43.6577 15.1471C43.524 15.1804 43.3839 15.1779 43.2515 15.1401C43.119 15.1022 42.9989 15.0302 42.9029 14.9314L41.6683 13.6342C30.6969 21.8939 17.6406 26.9324 3.96476 28.1842C3.76946 28.1987 3.57582 28.1395 3.42205 28.0183C3.26828 27.897 3.16555 27.7225 3.13415 27.5292C3.10275 27.3359 3.14495 27.1378 3.25243 26.9741C3.35991 26.8104 3.52485 26.6929 3.7147 26.6449ZM13.9122 28.9736L7.6609 30.1144C7.48135 30.1469 7.31889 30.2413 7.20181 30.3813C7.08472 30.5212 7.02043 30.6978 7.02013 30.8802V43.1016H14.8343V29.7393C14.8341 29.625 14.8088 29.512 14.7601 29.4086C14.7114 29.3051 14.6406 29.2136 14.5526 29.1405C14.4646 29.0674 14.3617 29.0146 14.251 28.9858C14.1403 28.9569 14.0247 28.9527 13.9122 28.9736ZM41.8715 17.6352L35.6201 20.3467C35.4809 20.4086 35.3627 20.5093 35.2795 20.6369C35.1963 20.7644 35.1518 20.9133 35.1512 21.0656V43.1016H42.9655V18.354C42.9642 18.2246 42.9312 18.0976 42.8692 17.984C42.8073 17.8704 42.7183 17.7738 42.6102 17.7028C42.5021 17.6317 42.3781 17.5884 42.2493 17.5766C42.1204 17.5648 41.9907 17.5849 41.8715 17.6352ZM32.471 22.097L26.2196 25.0352C26.0859 25.0996 25.9731 25.2006 25.8942 25.3264C25.8154 25.4522 25.7738 25.5978 25.7742 25.7463V43.1016H33.5884V22.8081C33.5864 22.6768 33.5518 22.5481 33.4877 22.4335C33.4236 22.3189 33.3321 22.222 33.2213 22.1515C33.1105 22.081 32.984 22.0391 32.853 22.0296C32.7221 22.0201 32.5908 22.0433 32.471 22.097ZM23.1955 26.2308L16.9441 28.2156C16.7852 28.2639 16.6461 28.3623 16.5475 28.496C16.4489 28.6298 16.3962 28.7918 16.3971 28.9579V43.1016H24.2114V26.9731C24.211 26.8507 24.1818 26.73 24.1261 26.6209C24.0705 26.5118 23.99 26.4173 23.8911 26.3451C23.7923 26.2728 23.6778 26.2248 23.557 26.205C23.4361 26.1851 23.3123 26.194 23.1955 26.2308ZM46.0911 44.6645H3.89449C3.68943 44.6678 3.49388 44.7515 3.35003 44.8977C3.20618 45.0439 3.12555 45.2408 3.12554 45.4459C3.12554 45.6509 3.20615 45.8478 3.34999 45.994C3.49384 46.1402 3.68938 46.224 3.89445 46.2273H46.0911C46.2962 46.224 46.4918 46.1402 46.6356 45.994C46.7795 45.8478 46.8601 45.651 46.8601 45.4459C46.8601 45.2408 46.7795 45.0439 46.6356 44.8977C46.4918 44.7515 46.2962 44.6678 46.0911 44.6645ZM3.5037 12.7591C3.50812 10.3786 4.45684 8.09723 6.14161 6.41558C7.82639 4.73393 10.1096 3.78944 12.49 3.78943C14.8704 3.78942 17.1536 4.73388 18.8384 6.41551C20.5232 8.09715 21.4719 10.3785 21.4764 12.759C20.9894 24.6778 3.99247 24.6813 3.5037 12.7591ZM13.7247 14.775C13.72 15.0994 13.5878 15.4088 13.3568 15.6365C13.1258 15.8641 12.8144 15.9918 12.4901 15.9918C12.1657 15.9918 11.8544 15.8642 11.6234 15.6365C11.3923 15.4089 11.2602 15.0995 11.2554 14.7751C11.2513 14.5706 11.1672 14.3758 11.0211 14.2326C10.875 14.0894 10.6786 14.0092 10.474 14.0092C10.2694 14.0092 10.073 14.0894 9.92687 14.2326C9.78077 14.3758 9.69664 14.5706 9.69254 14.7751C9.69348 15.3807 9.89035 15.9698 10.2537 16.4543C10.6171 16.9388 11.1275 17.2927 11.7086 17.4632V18.8073C11.7086 19.0145 11.7909 19.2133 11.9375 19.3598C12.084 19.5064 12.2828 19.5887 12.49 19.5887C12.6973 19.5887 12.896 19.5064 13.0426 19.3598C13.1891 19.2133 13.2715 19.0145 13.2715 18.8073L13.2714 17.4632C13.9124 17.2693 14.4629 16.8523 14.823 16.2877C15.1832 15.7231 15.3293 15.0481 15.2349 14.3851C15.1404 13.7221 14.8117 13.1148 14.3082 12.6731C13.8047 12.2315 13.1597 11.9848 12.49 11.9776C12.2466 11.9769 12.0089 11.9039 11.8069 11.768C11.605 11.6322 11.4478 11.4395 11.3554 11.2143C11.263 10.9891 11.2394 10.7415 11.2876 10.503C11.3359 10.2644 11.4538 10.0454 11.6264 9.87387C11.7991 9.70229 12.0188 9.58577 12.2577 9.53904C12.4966 9.49231 12.7439 9.51746 12.9685 9.61133C13.1931 9.70519 13.3848 9.86355 13.5194 10.0664C13.654 10.2692 13.7255 10.5074 13.7247 10.7508C13.7288 10.9553 13.8129 11.1501 13.959 11.2933C14.1051 11.4365 14.3015 11.5168 14.5061 11.5168C14.7107 11.5168 14.9071 11.4366 15.0532 11.2934C15.1993 11.1502 15.2834 10.9554 15.2875 10.7508C15.2866 10.1452 15.0897 9.55614 14.7264 9.07164C14.363 8.58714 13.8526 8.23322 13.2715 8.06274V6.71869C13.2683 6.51354 13.1846 6.31787 13.0384 6.17391C12.8922 6.02996 12.6952 5.94927 12.4901 5.94926C12.2849 5.94925 12.0879 6.02993 11.9417 6.17388C11.7955 6.31783 11.7118 6.5135 11.7086 6.71865L11.7087 8.06271C11.0677 8.25558 10.5171 8.67185 10.1567 9.23599C9.79636 9.80013 9.65019 10.4748 9.74471 11.1375C9.83924 11.8002 10.1682 12.407 10.6719 12.8479C11.1756 13.2888 11.8207 13.5345 12.49 13.5405C12.8173 13.5412 13.1309 13.6715 13.3623 13.9028C13.5937 14.1342 13.724 14.4478 13.7247 14.775Z" fill="url(#paint0_linear_350_403)"/>
<defs>
<linearGradient id="paint0_linear_350_403" x1="24.9958" y1="3.78827" x2="24.9958" y2="46.2286" gradientUnits="userSpaceOnUse">
<stop stop-color="#A3A3FF"/>
<stop offset="1" stop-color="white"/>
</linearGradient>
</defs>
</svg>
