<svg width="50" height="50" viewBox="0 0 50 50" fill="none" xmlns="http://www.w3.org/2000/svg">
<path d="M36.7327 12.7609C36.5584 12.7626 6.95734 12.7597 6.80804 12.7609H4.73081C4.2722 12.7624 3.83274 12.969 3.50844 13.3356C3.18414 13.7022 3.00135 14.199 3 14.7174V19.6772H38.4634V14.7174C38.4621 14.199 38.2793 13.7022 37.955 13.3356C37.6307 12.969 37.1913 12.7624 36.7327 12.7609ZM17.1317 17.9261C17.1311 18.1853 17.0397 18.4337 16.8775 18.6169C16.7154 18.8002 16.4957 18.9036 16.2664 18.9043H4.70478C4.47548 18.9036 4.25575 18.8002 4.09361 18.617C3.93146 18.4337 3.84007 18.1853 3.83939 17.9261V14.7956C3.84008 14.5364 3.93147 14.288 4.09361 14.1047C4.25576 13.9214 4.47548 13.8181 4.70478 13.8174H16.2664C16.4957 13.8181 16.7154 13.9214 16.8775 14.1047C17.0397 14.288 17.1311 14.5364 17.1317 14.7956V17.9261ZM3 21.6337H38.4634V43.087C38.4622 44.1243 38.0971 45.1188 37.4482 45.8524C36.7993 46.5859 35.9196 46.9986 35.0019 47H6.46154C6.00693 47.0001 5.55675 46.899 5.13672 46.7024C4.71669 46.5058 4.33504 46.2176 4.01358 45.8542C3.69213 45.4908 3.43716 45.0594 3.26324 44.5846C3.08933 44.1098 2.99988 43.6009 3 43.087V21.6337ZM5.57017 15.7739H9.62882V16.9478H5.57017V15.7739ZM11.3596 15.7739H15.401V16.9478H11.3596V15.7739ZM43.2317 10.4424V35.8478C43.2305 36.9645 42.9429 38.057 42.4038 38.9928C41.8647 39.9286 41.0972 40.6677 40.1942 41.1206V14.7174C40.1915 13.6805 39.826 12.687 39.1774 11.9538C38.5288 11.2206 37.6499 10.8074 36.7327 10.8043H7.75966C7.72015 10.3742 7.76062 9.93941 7.87845 9.52794C7.99629 9.11648 8.1889 8.7374 8.44393 8.41502C8.69896 8.09264 9.01078 7.83407 9.35939 7.6559C9.708 7.47773 10.0857 7.38389 10.4683 7.3804H40.5231C41.2403 7.38473 41.927 7.70872 42.4341 8.28202C42.9413 8.85532 43.2279 9.63164 43.2317 10.4424ZM48 5.06196V30.4674C48.0021 31.5837 47.7157 32.6764 47.1761 33.6114C46.6365 34.5463 45.8672 35.2828 44.9625 35.7304V10.4424C44.9659 10.2131 44.9515 9.98398 44.9192 9.7576C44.7729 8.55694 44.2471 7.4567 43.4391 6.66011C42.631 5.86353 41.5952 5.42442 40.5231 5.42389H12.5279C12.4891 4.99387 12.5301 4.55944 12.6482 4.14833C12.7663 3.73722 12.959 3.35847 13.2139 3.03627C13.4688 2.71407 13.7803 2.4555 14.1286 2.27707C14.4768 2.09864 14.8542 2.00428 15.2366 2H45.2913C45.6471 1.99978 45.9994 2.07882 46.3281 2.23262C46.6568 2.38642 46.9555 2.61196 47.2071 2.89633C47.4586 3.1807 47.6582 3.51834 47.7942 3.88993C47.9303 4.26153 48.0002 4.65979 48 5.06196Z" fill="url(#paint0_linear_350_422)"/>
<defs>
<linearGradient id="paint0_linear_350_422" x1="25.4996" y1="1.99877" x2="25.4996" y2="47.0014" gradientUnits="userSpaceOnUse">
<stop stop-color="#A3A3FF"/>
<stop offset="1" stop-color="#1F1FFF"/>
</linearGradient>
</defs>
</svg>
