<svg width="45" height="45" viewBox="0 0 45 45" fill="none" xmlns="http://www.w3.org/2000/svg">
<path fill-rule="evenodd" clip-rule="evenodd" d="M13.6533 21.5394H7.94284C7.63325 21.5394 7.37779 21.2714 7.41572 20.9489L7.81106 17.5999C7.30152 17.3795 6.82711 17.0975 6.37906 16.7714L3.69077 18.7896C3.44319 18.9713 3.08812 18.9217 2.91768 18.631L0.0712663 13.678C-0.0858471 13.4101 0.025893 13.0598 0.317259 12.9289L3.40967 11.5981C3.3514 10.994 3.3514 10.5454 3.40967 9.94128L0.317259 8.61048C0.0188954 8.48083 -0.082236 8.12278 0.0712663 7.86137L2.92648 2.90838C3.08593 2.63685 3.4465 2.55506 3.69956 2.74974L6.38785 4.76795C6.8359 4.44186 7.31031 4.15983 7.81985 3.93952L7.42451 0.590504C7.38656 0.267959 7.64212 0 7.95164 0L13.662 2.50039e-05C13.9716 2.50039e-05 14.2271 0.268034 14.1892 0.590529L13.7938 3.93954C14.3034 4.15986 14.7778 4.44188 15.2258 4.76798L17.9141 2.74977C18.1618 2.56807 18.5171 2.61789 18.6872 2.9084L21.5248 7.86137C21.682 8.12983 21.57 8.47973 21.2788 8.61048L18.5223 9.79674L30.3715 9.79676C33.0096 9.79676 35.1542 11.9477 35.1542 14.5946V14.9477L35.4014 14.6356C35.7336 14.2163 36.3405 14.1432 36.7601 14.4749C37.1805 14.8074 37.2538 15.4199 36.9204 15.8405L34.9705 18.3008C34.5616 18.8415 33.8071 18.8412 33.3986 18.3015L31.4481 15.8405C31.1143 15.4192 31.1881 14.8074 31.6085 14.4749C32.0286 14.1427 32.635 14.2163 32.9671 14.6356L33.2144 14.9478V14.5946C33.2144 13.0243 31.9369 11.7426 30.3715 11.7426H18.5222L21.2788 12.9289C21.5772 13.0586 21.6783 13.4166 21.5248 13.678L18.6696 18.631C18.5101 18.9026 18.1496 18.9844 17.8965 18.7897L15.2082 16.7715C14.7601 17.0975 14.2857 17.3796 13.7762 17.5999L14.1715 20.9489C14.2089 21.2666 13.9573 21.5394 13.6533 21.5394ZM9.83531 30.6691L9.58092 30.9902C9.24879 31.4095 8.64183 31.4826 8.22226 31.1508C7.80188 30.8184 7.72859 30.2059 8.06191 29.7853L9.97392 27.3728C10.1453 27.0965 10.4508 26.9119 10.7981 26.9119C11.1452 26.9119 11.4506 27.0963 11.622 27.3725L13.5343 29.7853C13.8695 30.2083 13.7983 30.8326 13.365 31.1577C12.9336 31.4814 12.349 31.4116 12.0152 30.9902L11.7827 30.6967C11.929 32.1312 13.1435 33.2574 14.6109 33.2574H26.4601L23.7036 32.0711C23.4052 31.9415 23.3041 31.5834 23.4576 31.322L26.3128 26.369C26.4722 26.0975 26.8328 26.0157 27.0859 26.2104L29.7741 28.2286C30.2222 27.9025 30.6966 27.6205 31.2062 27.4002L30.8108 24.0511C30.7729 23.7286 31.0284 23.4606 31.3379 23.4606H37.0483C37.3579 23.4606 37.6134 23.7287 37.5755 24.0511L37.1801 27.4002C37.6897 27.6205 38.1641 27.9025 38.6121 28.2286L41.3004 26.2104C41.5479 26.0288 41.9027 26.0781 42.0735 26.369L44.9287 31.322C45.0858 31.5895 44.9743 31.9402 44.6827 32.0711L41.5903 33.4019C41.6486 34.0061 41.6486 34.4546 41.5903 35.0588L44.6827 36.3895C44.9811 36.5192 45.0822 36.8772 44.9287 37.1387L42.0735 42.0916C41.914 42.3632 41.5535 42.445 41.3004 42.2503L38.6121 40.2321C38.1641 40.5582 37.6897 40.8402 37.1801 41.0605L37.5755 44.4095C37.614 44.737 37.3543 45 37.0395 45H31.3291C31.0195 45 30.7641 44.732 30.802 44.4095L31.1973 41.0605C30.6878 40.8402 30.2134 40.5581 29.7653 40.2321L27.077 42.2503C26.8295 42.4319 26.4744 42.3823 26.304 42.0916L23.4576 37.1387C23.3005 36.8707 23.4122 36.5204 23.7036 36.3895L26.4602 35.2033H14.6108C12.0609 35.2033 9.97208 33.1937 9.83531 30.6691ZM34.1843 38.0376C32.0934 38.0376 30.3891 36.3279 30.3891 34.2303C30.3891 32.1328 32.0934 30.423 34.1843 30.423C36.2752 30.423 37.9796 32.1328 37.9796 34.2303C37.9796 36.3279 36.2752 38.0376 34.1843 38.0376ZM10.798 14.577C8.70715 14.577 7.00281 12.8672 7.00281 10.7697C7.00281 8.67219 8.70715 6.96243 10.798 6.96243C12.8889 6.96243 14.5933 8.67219 14.5933 10.7697C14.5933 12.8672 12.8889 14.577 10.798 14.577Z" fill="url(#paint0_linear_350_418)"/>
<defs>
<linearGradient id="paint0_linear_350_418" x1="22.4996" y1="-0.00122962" x2="22.4996" y2="45.0014" gradientUnits="userSpaceOnUse">
<stop stop-color="#A3A3FF"/>
<stop offset="1" stop-color="#1F1FFF"/>
</linearGradient>
</defs>
</svg>
