<svg width="50" height="50" viewBox="0 0 50 50" fill="none" xmlns="http://www.w3.org/2000/svg">
<path d="M19.9412 4.6425C20.4923 4.6425 20.9332 5.08109 20.9332 5.62933C20.9332 6.17757 20.4923 6.61616 19.9412 6.61616C19.3901 6.61616 18.9492 6.17757 18.9492 5.62933C18.9492 5.08109 19.3901 4.6425 19.9412 4.6425ZM8.51114 4.6425C9.06225 4.6425 9.50314 5.08109 9.50314 5.62933C9.50314 6.17757 9.06225 6.61616 8.51114 6.61616C7.96002 6.61616 7.51913 6.17757 7.51913 5.62933C7.51913 5.08109 7.96002 4.6425 8.51114 4.6425ZM14.2207 4.6425C14.7718 4.6425 15.2127 5.08109 15.2127 5.62933C15.2127 6.17757 14.7718 6.61616 14.2207 6.61616C13.6696 6.61616 13.2287 6.17757 13.2287 5.62933C13.2287 5.08109 13.6696 4.6425 14.2207 4.6425ZM46.6482 3.90787V9.2477H3V4.12716C3 2.95393 3.95894 2 5.13832 2H44.7083C45.7774 2 46.6482 2.85525 46.6482 3.90787ZM22.0134 5.61837C22.0134 4.47803 21.0876 3.55699 19.9412 3.55699C18.7949 3.55699 17.869 4.47803 17.869 5.61837C17.869 6.7587 18.7949 7.67974 19.9412 7.67974C21.0876 7.67974 22.0134 6.7587 22.0134 5.61837ZM16.2929 5.61837C16.2929 4.47803 15.367 3.55699 14.2207 3.55699C13.0744 3.55699 12.1485 4.47803 12.1485 5.61837C12.1485 6.7587 13.0744 7.67974 14.2207 7.67974C15.367 7.67974 16.2929 6.7587 16.2929 5.61837ZM10.5833 5.62933C10.5833 4.489 9.65745 3.56796 8.51114 3.56796C7.36482 3.56796 6.43895 4.49996 6.43895 5.62933C6.43895 6.7587 7.36482 7.67974 8.51114 7.67974C9.64643 7.67974 10.5833 6.76967 10.5833 5.62933ZM7.51913 15.0809H15.2127V22.7234H7.51913V15.0809ZM47.9268 36.4732C47.9268 36.4951 48.2023 38.7648 47.6843 41.177C47.0119 44.302 45.3586 46.1989 42.7904 46.8129C42.7684 46.8239 42.7573 46.8239 42.7353 46.8349C42.7022 46.8458 39.5168 47.9313 36.8384 44.3897C36.3203 43.6989 35.8794 42.8875 35.5378 41.9775L35.3504 41.4841L33.9395 37.7122C33.9395 37.7012 33.9285 37.7012 33.9285 37.6903C33.8954 37.6245 33.8844 37.5368 33.8844 37.4381C33.8844 37.1311 34.0718 36.835 34.3584 36.7144C34.4686 36.6705 34.5678 36.6486 34.678 36.6486C34.9756 36.6486 35.2512 36.8131 35.4165 37.0982L37.0698 40.5521C37.1801 40.7823 37.4336 40.9029 37.6761 40.8481C37.9186 40.7933 38.0949 40.574 38.0949 40.3218L38.1059 32.3285V31.2649C38.1059 30.8263 38.4587 30.4755 38.9106 30.4755C39.3515 30.4755 39.7042 30.8263 39.7042 31.2649V32.1531C39.6821 32.2079 39.6711 32.2737 39.6711 32.3285C39.6711 32.3943 39.6821 32.4491 39.7042 32.5039L39.6931 36.3855C39.6931 36.539 39.7483 36.6705 39.8475 36.7692C39.9467 36.8679 40.0789 36.9227 40.2332 36.9227C40.5308 36.9227 40.7733 36.6815 40.7733 36.3855V36.3745C40.7733 36.1552 40.8615 35.9469 41.0158 35.7934C41.1701 35.6399 41.3796 35.5521 41.6 35.5521C42.0629 35.5521 42.4377 35.9249 42.4377 36.3855C42.4377 36.6815 42.6802 36.9227 42.9778 36.9227C43.2754 36.9227 43.5179 36.6815 43.5179 36.3855C43.5179 36.1662 43.6061 35.9578 43.7604 35.8043C43.9147 35.6508 44.1241 35.5631 44.3445 35.5631C44.8075 35.5631 45.1822 35.9359 45.1822 36.3964C45.1822 36.6925 45.4247 36.9337 45.7223 36.9337C46.0199 36.9337 46.2624 36.6925 46.2624 36.3964C46.2624 36.1771 46.3506 35.9688 46.5049 35.8153C46.6482 35.6727 46.8356 35.585 47.045 35.5741C47.0891 35.585 47.1442 35.596 47.1883 35.596H47.2544C47.6402 35.6727 47.9268 36.0126 47.9268 36.4074V36.4732ZM42.1291 28.2496V31.7474C42.1291 31.7693 42.107 31.7912 42.085 31.7912H40.7733V31.2649C40.7733 30.2342 39.9356 29.4009 38.8885 29.4009C37.8524 29.4009 37.0147 30.2342 37.0147 31.2649V31.7912H26.1578C26.1358 31.7912 26.1137 31.7693 26.1137 31.7474V28.2496C26.1137 28.2277 26.1358 28.2057 26.1578 28.2057H42.085C42.107 28.2057 42.1291 28.2277 42.1291 28.2496ZM46.6482 10.3222V34.5434C46.3065 34.6201 45.9979 34.7956 45.7444 35.0478C45.7334 35.0587 45.7334 35.0587 45.7223 35.0697C45.3696 34.7078 44.8846 34.4886 44.3445 34.4886C43.8265 34.4886 43.3525 34.6859 42.9888 35.0478C42.9778 35.0587 42.9778 35.0587 42.9668 35.0697C42.614 34.7078 42.1291 34.4886 41.589 34.4886C41.3024 34.4886 41.0158 34.5543 40.7623 34.6749L40.7733 32.8658H42.085C42.7022 32.8658 43.2093 32.3614 43.2203 31.7474V28.2496C43.2203 27.6356 42.7132 27.1312 42.096 27.1312H26.1578C25.5405 27.1312 25.0335 27.6356 25.0335 28.2496V31.7474C25.0335 32.3614 25.5405 32.8658 26.1578 32.8658H37.0147L37.0037 37.9534L36.3754 36.6376C35.9346 35.7276 34.8654 35.3328 33.9395 35.7385C33.2561 36.0346 32.8152 36.7034 32.8152 37.4381C32.8152 37.6793 32.8593 37.8986 32.9365 38.096L34.0828 41.1661H5.13832C3.95894 41.1661 3 40.2122 3 39.0389V10.3222H46.6482ZM43.2093 14.5217C43.2093 14.2257 42.9668 13.9845 42.6692 13.9845H19.2799C18.9823 13.9845 18.7398 14.2257 18.7398 14.5217C18.7398 14.8178 18.9823 15.059 19.2799 15.059H42.6692C42.9668 15.059 43.2093 14.8178 43.2093 14.5217ZM43.2093 18.8967C43.2093 18.6006 42.9668 18.3594 42.6692 18.3594H19.2799C18.9823 18.3594 18.7398 18.6006 18.7398 18.8967C18.7398 19.1927 18.9823 19.434 19.2799 19.434H42.6692C42.9668 19.434 43.2093 19.1927 43.2093 18.8967ZM43.2093 23.2497C43.2093 22.9536 42.9668 22.7124 42.6692 22.7124H19.2799C18.9823 22.7124 18.7398 22.9536 18.7398 23.2497C18.7398 23.5457 18.9823 23.787 19.2799 23.787H42.6692C42.9668 23.787 43.2093 23.5567 43.2093 23.2497ZM31.228 36.9447C31.228 36.6486 30.9856 36.4074 30.688 36.4074H6.96802C6.67042 36.4074 6.42793 36.6486 6.42793 36.9447C6.42793 37.2407 6.67042 37.4819 6.96802 37.4819H30.688C30.9856 37.4819 31.228 37.2407 31.228 36.9447ZM22.0134 27.6794C22.0134 27.3834 21.7709 27.1422 21.4733 27.1422H6.96802C6.67042 27.1422 6.42793 27.3834 6.42793 27.6794C6.42793 27.9755 6.67042 28.2167 6.96802 28.2167H21.4733C21.7709 28.2167 22.0134 27.9755 22.0134 27.6794ZM22.0134 32.3175C22.0134 32.0215 21.7709 31.7803 21.4733 31.7803H6.96802C6.67042 31.7803 6.42793 32.0215 6.42793 32.3175C6.42793 32.6136 6.67042 32.8548 6.96802 32.8548H21.4733C21.7709 32.8548 22.0134 32.6136 22.0134 32.3175ZM16.2929 22.8659V14.9274C16.2929 14.4121 15.874 13.9954 15.356 13.9954H7.37584C6.8578 13.9954 6.43895 14.4121 6.43895 14.9274V22.8549C6.43895 23.3703 6.8578 23.787 7.37584 23.787H15.356C15.874 23.787 16.2929 23.3813 16.2929 22.8659Z" fill="url(#paint0_linear_350_255)"/>
<defs>
<linearGradient id="paint0_linear_350_255" x1="25.4996" y1="1.99877" x2="25.4996" y2="47.0014" gradientUnits="userSpaceOnUse">
<stop stop-color="#A3A3FF"/>
<stop offset="1" stop-color="#1F1FFF"/>
</linearGradient>
</defs>
</svg>
