<svg width="45" height="45" viewBox="0 0 45 45" fill="none" xmlns="http://www.w3.org/2000/svg">
<path fill-rule="evenodd" clip-rule="evenodd" d="M40.725 22.2921C43.255 21.0071 45 18.2613 45 15.0729L39.815 0H5.185L0 15.0729C0 18.2613 1.745 21.0071 4.27499 22.2921C5.25 22.7932 6.345 23.0705 7.5 23.0705C11.64 23.0705 15 19.4929 15 15.0729C15 19.4929 18.36 23.0705 22.5 23.0705C26.64 23.0705 30 19.4929 30 15.0729C30 19.4929 33.36 23.0705 37.5 23.0705C38.655 23.0705 39.75 22.7932 40.725 22.2921ZM30 21.2843C31.74 23.6676 34.455 25.2032 37.5 25.2032C38.62 25.2032 39.7 25.0006 40.725 24.6007V45H28.69V28.5035H16.31V45H4.275V24.6007C5.30002 25.0059 6.38001 25.2032 7.50001 25.2032C10.545 25.2032 13.26 23.6676 15 21.2843C16.74 23.6676 19.455 25.2032 22.5 25.2032C25.545 25.2032 28.26 23.6676 30 21.2843Z" fill="url(#paint0_linear_350_386)"/>
<defs>
<linearGradient id="paint0_linear_350_386" x1="22.4996" y1="-0.00122962" x2="22.4996" y2="45.0014" gradientUnits="userSpaceOnUse">
<stop stop-color="#A3A3FF"/>
<stop offset="1" stop-color="#1F1FFF"/>
</linearGradient>
</defs>
</svg>
