<svg width="217" height="274" viewBox="0 0 217 274" fill="none" xmlns="http://www.w3.org/2000/svg">
<mask id="mask0_314_4304" style="mask-type:alpha" maskUnits="userSpaceOnUse" x="36" y="36" width="202" height="202">
<circle cx="136.96" cy="136.96" r="100.709" transform="rotate(-29.077 136.96 136.96)" fill="#D9D9D9"/>
</mask>
<g mask="url(#mask0_314_4304)">
<circle cx="49.0437" cy="70.6147" r="4.50937" transform="rotate(-29.077 49.0437 70.6147)" fill="#DFEAFC"/>
<circle cx="98.0886" cy="43.3424" r="4.50937" transform="rotate(-29.077 98.0886 43.3424)" fill="#DFEAFC"/>
<circle cx="73.5661" cy="56.9785" r="4.50937" transform="rotate(-29.077 73.5661 56.9785)" fill="#DFEAFC"/>
<circle cx="62.6794" cy="95.1365" r="4.50937" transform="rotate(-29.077 62.6794 95.1365)" fill="#DFEAFC"/>
<circle cx="111.724" cy="67.8643" r="4.50937" transform="rotate(-29.077 111.724 67.8643)" fill="#DFEAFC"/>
<circle cx="160.768" cy="40.5927" r="4.50937" transform="rotate(-29.077 160.768 40.5927)" fill="#DFEAFC"/>
<circle cx="38.1579" cy="108.772" r="4.50937" transform="rotate(-29.077 38.1579 108.772)" fill="#DFEAFC"/>
<circle cx="87.2019" cy="81.5004" r="4.50937" transform="rotate(-29.077 87.2019 81.5004)" fill="#DFEAFC"/>
<circle cx="136.246" cy="54.2288" r="4.50937" transform="rotate(-29.077 136.246 54.2288)" fill="#DFEAFC"/>
<circle cx="76.3161" cy="119.659" r="4.50937" transform="rotate(-29.077 76.3161 119.659)" fill="#DFEAFC"/>
<circle cx="125.36" cy="92.3867" r="4.50937" transform="rotate(-29.077 125.36 92.3867)" fill="#DFEAFC"/>
<circle cx="174.404" cy="65.1152" r="4.50937" transform="rotate(-29.077 174.404 65.1152)" fill="#DFEAFC"/>
<circle cx="51.7946" cy="133.294" r="4.50937" transform="rotate(-29.077 51.7946 133.294)" fill="#DFEAFC"/>
<circle cx="100.838" cy="106.023" r="4.50937" transform="rotate(-29.077 100.838 106.023)" fill="#DFEAFC"/>
<circle cx="149.882" cy="78.7513" r="4.50937" transform="rotate(-29.077 149.882 78.7513)" fill="#DFEAFC"/>
<circle cx="198.926" cy="51.479" r="4.50937" transform="rotate(-29.077 198.926 51.479)" fill="#DFEAFC"/>
<circle cx="40.9079" cy="171.452" r="4.50937" transform="rotate(-29.077 40.9079 171.452)" fill="#DFEAFC"/>
<circle cx="89.9509" cy="144.181" r="4.50937" transform="rotate(-29.077 89.9509 144.181)" fill="#DFEAFC"/>
<circle cx="138.996" cy="116.909" r="4.50937" transform="rotate(-29.077 138.996 116.909)" fill="#DFEAFC"/>
<circle cx="188.04" cy="89.6371" r="4.50937" transform="rotate(-29.077 188.04 89.6371)" fill="#DFEAFC"/>
<circle cx="65.4294" cy="157.816" r="4.50937" transform="rotate(-29.077 65.4294 157.816)" fill="#DFEAFC"/>
<circle cx="114.473" cy="130.545" r="4.50937" transform="rotate(-29.077 114.473 130.545)" fill="#DFEAFC"/>
<circle cx="163.517" cy="103.273" r="4.50937" transform="rotate(-29.077 163.517 103.273)" fill="#DFEAFC"/>
<circle cx="212.563" cy="76.0009" r="4.50937" transform="rotate(-29.077 212.563 76.0009)" fill="#DFEAFC"/>
<circle cx="54.7878" cy="196.412" r="4.50937" transform="rotate(-29.077 54.7878 196.412)" fill="#DFEAFC"/>
<circle cx="103.832" cy="169.141" r="4.50937" transform="rotate(-29.077 103.832 169.141)" fill="#DFEAFC"/>
<circle cx="152.877" cy="141.869" r="4.50937" transform="rotate(-29.077 152.877 141.869)" fill="#DFEAFC"/>
<circle cx="201.921" cy="114.597" r="4.50937" transform="rotate(-29.077 201.921 114.597)" fill="#DFEAFC"/>
<circle cx="79.3103" cy="182.776" r="4.50937" transform="rotate(-29.077 79.3103 182.776)" fill="#DFEAFC"/>
<circle cx="128.354" cy="155.505" r="4.50937" transform="rotate(-29.077 128.354 155.505)" fill="#DFEAFC"/>
<circle cx="177.397" cy="128.233" r="4.50937" transform="rotate(-29.077 177.397 128.233)" fill="#DFEAFC"/>
<circle cx="68.4235" cy="220.934" r="4.50937" transform="rotate(-29.077 68.4235 220.934)" fill="#DFEAFC"/>
<circle cx="117.467" cy="193.663" r="4.50937" transform="rotate(-29.077 117.467 193.663)" fill="#DFEAFC"/>
<circle cx="166.512" cy="166.39" r="4.50937" transform="rotate(-29.077 166.512 166.39)" fill="#DFEAFC"/>
<circle cx="215.556" cy="139.119" r="4.50937" transform="rotate(-29.077 215.556 139.119)" fill="#DFEAFC"/>
<circle cx="92.946" cy="207.298" r="4.50937" transform="rotate(-29.077 92.946 207.298)" fill="#DFEAFC"/>
<circle cx="141.99" cy="180.027" r="4.50937" transform="rotate(-29.077 141.99 180.027)" fill="#DFEAFC"/>
<circle cx="191.034" cy="152.755" r="4.50937" transform="rotate(-29.077 191.034 152.755)" fill="#DFEAFC"/>
<circle cx="131.104" cy="218.185" r="4.50937" transform="rotate(-29.077 131.104 218.185)" fill="#DFEAFC"/>
<circle cx="180.148" cy="190.913" r="4.50937" transform="rotate(-29.077 180.148 190.913)" fill="#DFEAFC"/>
<circle cx="106.583" cy="231.821" r="4.50937" transform="rotate(-29.077 106.583 231.821)" fill="#DFEAFC"/>
<circle cx="155.626" cy="204.549" r="4.50937" transform="rotate(-29.077 155.626 204.549)" fill="#DFEAFC"/>
<circle cx="204.67" cy="177.277" r="4.50937" transform="rotate(-29.077 204.67 177.277)" fill="#DFEAFC"/>
<circle cx="144.739" cy="242.707" r="4.50937" transform="rotate(-29.077 144.739 242.707)" fill="#DFEAFC"/>
<circle cx="193.785" cy="215.435" r="4.50937" transform="rotate(-29.077 193.785 215.435)" fill="#DFEAFC"/>
<circle cx="169.261" cy="229.071" r="4.50937" transform="rotate(-29.077 169.261 229.071)" fill="#DFEAFC"/>
<circle cx="218.305" cy="201.799" r="4.50937" transform="rotate(-29.077 218.305 201.799)" fill="#DFEAFC"/>
</g>
</svg>
