<svg width="80" height="80" viewBox="0 0 80 80" fill="none" xmlns="http://www.w3.org/2000/svg">
<path fill-rule="evenodd" clip-rule="evenodd" d="M70 17.4999H54.6175C55.6111 16.611 56.3843 15.503 56.8759 14.2637C57.3675 13.0244 57.5641 11.6877 57.4501 10.3593C57.336 9.03092 56.9145 7.74728 56.2189 6.60989C55.5232 5.4725 54.5725 4.51253 53.4419 3.80591C52.3113 3.09928 51.0318 2.66536 49.7046 2.53847C48.3774 2.41158 47.0388 2.59518 45.7948 3.07477C44.5508 3.55437 43.4354 4.31679 42.5368 5.30176C41.6383 6.28673 40.9812 7.46724 40.6175 8.74994L40 10.8999L39.3825 8.74994C39.0218 7.46295 38.3661 6.27771 37.4675 5.28826C36.5689 4.29881 35.4521 3.53236 34.2057 3.0497C32.9593 2.56704 31.6175 2.38146 30.2869 2.50768C28.9563 2.6339 27.6734 3.06844 26.5399 3.77683C25.4065 4.48523 24.4537 5.44799 23.7572 6.58875C23.0607 7.72951 22.6395 9.01689 22.5272 10.3488C22.4148 11.6806 22.6144 13.0204 23.11 14.2617C23.6057 15.503 24.3837 16.6117 25.3825 17.4999H10C9.33696 17.4999 8.70107 17.7633 8.23223 18.2322C7.76339 18.701 7.5 19.3369 7.5 19.9999V34.9999C7.5 35.663 7.76339 36.2989 8.23223 36.7677C8.70107 37.2366 9.33696 37.4999 10 37.4999H70C70.663 37.4999 71.2989 37.2366 71.7678 36.7677C72.2366 36.2989 72.5 35.663 72.5 34.9999V19.9999C72.5 19.3369 72.2366 18.701 71.7678 18.2322C71.2989 17.7633 70.663 17.4999 70 17.4999ZM30.1175 14.5774C29.5135 14.4048 28.9651 14.0775 28.5265 13.6278C28.0878 13.1781 27.7742 12.6217 27.6167 12.0136C27.4592 11.4055 27.4631 10.7668 27.6282 10.1607C27.7933 9.55461 28.1138 9.00214 28.558 8.55796C29.0022 8.11377 29.5547 7.79327 30.1608 7.62817C30.7668 7.46307 31.4055 7.4591 32.0136 7.61664C32.6217 7.77418 33.1782 8.08778 33.6278 8.5264C34.0775 8.96502 34.4049 9.51346 34.5775 10.1174L36.36 16.3674L30.1175 14.5774ZM49.8825 14.5774L43.6325 16.3599L45.415 10.1099C45.5876 9.50596 45.915 8.95752 46.3647 8.5189C46.8143 8.08028 47.3708 7.76668 47.9789 7.60914C48.587 7.4516 49.2257 7.45557 49.8317 7.62067C50.4378 7.78577 50.9903 8.10627 51.4345 8.55046C51.8787 8.99464 52.1992 9.54711 52.3643 10.1532C52.5294 10.7593 52.5333 11.398 52.3758 12.0061C52.2183 12.6142 51.9047 13.1706 51.466 13.6203C51.0274 14.07 50.479 14.3973 49.875 14.5699L49.8825 14.5774ZM10 74.9999C10 75.663 10.2634 76.2989 10.7322 76.7677C11.2011 77.2365 11.837 77.4999 12.5 77.4999H37.5V42.2499H10V74.9999ZM67.5 77.4999H42.5V42.2499H70V74.9999C70 75.663 69.7366 76.2989 69.2678 76.7677C68.7989 77.2365 68.163 77.4999 67.5 77.4999Z" fill="url(#paint0_linear_132_137)"/>
<defs>
<linearGradient id="paint0_linear_132_137" x1="39.9994" y1="2.46719" x2="39.9994" y2="77.5022" gradientUnits="userSpaceOnUse">
<stop stop-color="#A3A3FF"/>
<stop offset="1" stop-color="#1F1FFF"/>
</linearGradient>
</defs>
</svg>
