<svg width="80" height="80" viewBox="0 0 80 80" fill="none" xmlns="http://www.w3.org/2000/svg">
<path d="M38.3333 40C28.2233 40 20 48.2234 20 58.3334C20 68.4434 28.2233 76.6667 38.3333 76.6667C48.4433 76.6667 56.6667 68.4434 56.6667 58.3334C56.6667 48.2234 48.4433 40 38.3333 40ZM46.6667 61.6667C46.6667 63.8367 45.27 65.67 43.3333 66.36V68.3334C43.3333 69.2534 42.5867 70 41.6667 70C40.7467 70 40 69.2534 40 68.3334V66.6667H36.6667V68.3334C36.6667 69.2534 35.92 70 35 70C34.08 70 33.3333 69.2534 33.3333 68.3334V66.6667H31.6667C30.7467 66.6667 30 65.92 30 65V51.6667C30 50.7467 30.7467 50 31.6667 50H33.3333V48.3334C33.3333 47.4134 34.08 46.6667 35 46.6667C35.92 46.6667 36.6667 47.4134 36.6667 48.3334V50H40V48.3334C40 47.4134 40.7467 46.6667 41.6667 46.6667C42.5867 46.6667 43.3333 47.4134 43.3333 48.3334V50.3067C45.27 50.9967 46.6667 52.83 46.6667 55C46.6667 56.28 46.1833 57.4467 45.39 58.3334C46.1833 59.22 46.6667 60.3867 46.6667 61.6667ZM41.6667 60H33.3333V63.3334H41.6667C42.5833 63.3334 43.3333 62.5867 43.3333 61.6667C43.3333 60.7467 42.5833 60 41.6667 60ZM41.6667 53.3334H33.3333V56.6667H41.6667C42.5833 56.6667 43.3333 55.92 43.3333 55C43.3333 54.08 42.5833 53.3334 41.6667 53.3334ZM62.82 23.41C60.5033 11.87 50.2167 3.33337 38.3333 3.33337C24.5467 3.33337 13.3333 14.5467 13.3333 28.3334C13.3333 28.8967 13.3567 29.4734 13.4067 30.0834C5.88333 30.8834 0 37.2667 0 45C0 53.27 6.73 60 15 60C15.92 60 16.6667 59.2534 16.6667 58.3334C16.6667 46.3867 26.3867 36.6667 38.3333 36.6667C50.28 36.6667 60 46.3867 60 58.3334C60 59.2534 60.7467 60 61.6667 60C71.7767 60 80 51.7767 80 41.6667C80 32.03 72.5267 24.1067 62.82 23.41Z" fill="url(#paint0_linear_132_139)"/>
<defs>
<linearGradient id="paint0_linear_132_139" x1="39.9993" y1="3.33137" x2="39.9993" y2="76.6689" gradientUnits="userSpaceOnUse">
<stop stop-color="#A3A3FF"/>
<stop offset="1" stop-color="#1F1FFF"/>
</linearGradient>
</defs>
</svg>
