<svg width="80" height="80" viewBox="0 0 80 80" fill="none" xmlns="http://www.w3.org/2000/svg">
<path d="M70.7485 10.8193L36.4125 5.08205C35.7391 4.97027 35.0494 5.00639 34.3913 5.18792C33.7332 5.36944 33.1225 5.69202 32.6016 6.13325C32.0807 6.57449 31.662 7.1238 31.3747 7.74307C31.0874 8.36234 30.9383 9.03671 30.9378 9.71938L30.9378 36.7307C30.9351 37.977 31.4273 39.1733 32.3062 40.0568C33.1851 40.9404 34.3788 41.4389 35.6251 41.4429H55.7742L63.5613 50.2676C63.7347 50.4527 63.9583 50.5832 64.2048 50.6432C64.4512 50.7031 64.7098 50.6899 64.9488 50.6051C65.1859 50.514 65.3896 50.3527 65.5325 50.1427C65.6755 49.9327 65.7509 49.6841 65.7487 49.4301V41.4429H69.9736C71.2199 41.4389 72.4136 40.9404 73.2924 40.0568C74.1713 39.1733 74.6635 37.977 74.6609 36.7307V15.4566C74.6646 14.3452 74.2732 13.2687 73.5566 12.4192C72.8399 11.5698 71.8447 11.0027 70.7485 10.8193ZM42.9373 26.5311C42.4417 26.5235 41.9689 26.3214 41.6211 25.9682C41.2734 25.6151 41.0784 25.1393 41.0784 24.6437C41.0784 24.148 41.2734 23.6722 41.6212 23.3191C41.969 22.966 42.4418 22.7638 42.9374 22.7563C43.4329 22.7639 43.9057 22.9661 44.2535 23.3192C44.6012 23.6724 44.7962 24.1481 44.7962 24.6438C44.7961 25.1394 44.6012 25.6152 44.2534 25.9683C43.9055 26.3214 43.4329 26.5236 42.9373 26.5311ZM52.7994 26.5311C52.3036 26.5238 51.8307 26.3217 51.4827 25.9685C51.1347 25.6153 50.9397 25.1395 50.9397 24.6437C50.9397 24.1479 51.1348 23.672 51.4828 23.3188C51.8307 22.9657 52.3037 22.7636 52.7994 22.7563C53.2952 22.7637 53.7681 22.9657 54.1161 23.3189C54.464 23.6721 54.6591 24.148 54.6591 24.6438C54.659 25.1396 54.464 25.6154 54.116 25.9686C53.768 26.3217 53.2951 26.5238 52.7994 26.5311ZM62.6614 26.5311C62.1657 26.5238 61.6928 26.3217 61.3448 25.9685C60.9968 25.6153 60.8018 25.1394 60.8018 24.6437C60.8018 24.1479 60.9969 23.672 61.3449 23.3188C61.6928 22.9657 62.1658 22.7636 62.6615 22.7563C63.1573 22.7637 63.6302 22.9657 63.9782 23.3189C64.3261 23.6721 64.5212 24.148 64.5212 24.6438C64.5211 25.1396 64.3261 25.6154 63.9781 25.9686C63.6301 26.3217 63.1572 26.5238 62.6614 26.5311ZM28.4379 36.7307V31.7684L9.2387 35.1432C8.14968 35.3397 7.16365 35.9108 6.45142 36.7577C5.73919 37.6046 5.34562 38.674 5.33888 39.7806V61.0546C5.33624 62.3009 5.82844 63.4972 6.70733 64.3808C7.58622 65.2644 8.77992 65.7629 10.0262 65.7669H14.251V73.7541C14.2546 74.0063 14.3341 74.2516 14.479 74.4581C14.624 74.6645 14.8278 74.8225 15.0638 74.9115C15.2998 75.0005 15.5572 75.0164 15.8023 74.9571C16.0475 74.8978 16.2692 74.766 16.4384 74.579L24.2256 65.7669H44.3747C45.6209 65.7629 46.8146 65.2644 47.6935 64.3808C48.5724 63.4972 49.0646 62.3009 49.062 61.0546V43.9428H35.6251C33.7164 43.9369 31.888 43.1744 30.5407 41.8224C29.1934 40.4704 28.4372 38.6394 28.4379 36.7307ZM17.3383 50.8551C16.8421 50.8461 16.3692 50.6426 16.0214 50.2884C15.6736 49.9342 15.4788 49.4577 15.4788 48.9614C15.4788 48.465 15.6737 47.9885 16.0214 47.6343C16.3692 47.2802 16.8421 47.0767 17.3384 47.0677C17.8347 47.0767 18.3076 47.2802 18.6554 47.6344C19.0031 47.9885 19.198 48.4651 19.198 48.9614C19.198 49.4578 19.0031 49.9343 18.6553 50.2885C18.3075 50.6426 17.8346 50.8461 17.3383 50.8551ZM27.2004 50.8551C26.7041 50.8461 26.2312 50.6426 25.8835 50.2884C25.5357 49.9342 25.3409 49.4577 25.3409 48.9614C25.3409 48.465 25.5357 47.9885 25.8835 47.6343C26.2313 47.2802 26.7042 47.0767 27.2005 47.0677C27.6968 47.0767 28.1697 47.2802 28.5175 47.6344C28.8652 47.9885 29.0601 48.4651 29.0601 48.9614C29.0601 49.4578 28.8652 49.9343 28.5174 50.2885C28.1696 50.6426 27.6967 50.8461 27.2004 50.8551ZM37.0626 47.0677C37.5589 47.0767 38.0318 47.2802 38.3796 47.6344C38.7273 47.9885 38.9222 48.4651 38.9222 48.9614C38.9221 49.4578 38.7273 49.9343 38.3795 50.2885C38.0317 50.6426 37.5588 50.8461 37.0625 50.8551C36.5662 50.8461 36.0933 50.6426 35.7456 50.2884C35.3978 49.9342 35.203 49.4577 35.203 48.9614C35.203 48.465 35.3978 47.9885 35.7456 47.6343C36.0934 47.2802 36.5663 47.0767 37.0626 47.0677Z" fill="url(#paint0_linear_132_140)"/>
<defs>
<linearGradient id="paint0_linear_132_140" x1="39.9993" y1="5.01664" x2="39.9993" y2="74.9944" gradientUnits="userSpaceOnUse">
<stop stop-color="#A3A3FF"/>
<stop offset="1" stop-color="#1F1FFF"/>
</linearGradient>
</defs>
</svg>
