<svg width="80" height="80" viewBox="0 0 80 80" fill="none" xmlns="http://www.w3.org/2000/svg">
<path d="M10.248 31.5416C8.08 32.4516 6.73433 34.0717 6.714 36.365C6.7 37.9684 7.782 40.1217 9.95 41.0017C10.843 41.365 23.3813 43.0517 23.3813 43.0517C23.3813 43.0517 26.7 53.5417 27.896 57.2284C28.2423 58.295 28.4397 58.8184 29.1997 59.515C30.489 60.695 32.6687 60.325 33.6114 59.3784C36.1054 56.8784 40.0474 53.0217 40.0474 53.0217L41.7064 54.3717C41.7064 54.3717 49.0734 60.2484 53.1004 63.015C55.4714 64.645 57.1171 66.345 59.7858 66.355C61.1451 66.3617 63.3254 65.685 64.7668 64.035C65.7191 62.945 66.3301 61.2017 66.5664 59.6384C67.1038 56.0884 73.4074 17.7016 73.3808 16.3583C73.3381 14.2149 71.5351 13.0083 70.0364 13.0216C69.0951 13.0316 68.3194 13.305 66.5934 13.8316C53.2421 17.9083 11.1323 31.1716 10.248 31.5416ZM60.0474 23.0216C60.0474 23.0216 42.4541 38.335 35.4238 45.3817C33.1713 47.6384 33.0123 51.5117 33.0123 51.5117L29.3783 39.885L60.0474 23.0216Z" fill="url(#paint0_linear_132_136)"/>
<defs>
<linearGradient id="paint0_linear_132_136" x1="40.0468" y1="13.02" x2="40.0468" y2="66.3567" gradientUnits="userSpaceOnUse">
<stop stop-color="#A3A3FF"/>
<stop offset="1" stop-color="#1F1FFF"/>
</linearGradient>
</defs>
</svg>
