<svg width="80" height="80" viewBox="0 0 80 80" fill="none" xmlns="http://www.w3.org/2000/svg">
<path d="M52.55 37.95H16.45C14.025 37.95 12.0625 39.9125 12.0625 42.3375V69.0126C12.0625 71.4376 14.025 73.4 16.45 73.4H52.55C54.9625 73.4 56.9375 71.4376 56.9375 69.0126V42.3375C56.9375 39.9125 54.9625 37.95 52.55 37.95ZM19.65 52.5375C19.65 48.9625 22.5375 46.05 26.1 46.05C34.6298 46.3602 34.6393 58.7087 26.0999 59.0126C22.5375 59.0126 19.65 56.1125 19.65 52.5375ZM42.5125 63.9376C37.8206 67.9832 31.008 67.9919 26.325 63.9376C25.8 63.4875 25.7375 62.7 26.1875 62.175C26.6375 61.6626 27.425 61.6 27.95 62.05C31.7 65.275 37.1375 65.275 40.875 62.05C42.12 60.9938 43.7327 62.8602 42.5125 63.9376ZM42.7375 59.0126C39.175 59.0126 36.2875 56.1125 36.2875 52.5375C36.5887 43.9572 48.8721 43.9466 49.175 52.5376C49.175 56.1126 46.2875 59.0126 42.7375 59.0126ZM9.56253 48.275V63.0875C6.84998 61.7125 5 58.9125 5 55.675C5 52.4375 6.84998 49.6375 9.56253 48.275ZM59.4375 63.0751V48.275C65.4583 51.1744 65.4606 60.1739 59.4375 63.0751ZM34.4998 23.825C40.0642 23.8853 41.0331 31.7453 35.75 33.2125V35.45H33.25V33.2125C27.9424 31.7454 28.9274 23.8883 34.4998 23.825ZM22.1499 52.5376C22.3086 47.2689 29.8824 47.2662 30.05 52.5375C29.8797 57.7902 22.3129 57.79 22.1499 52.5376ZM42.7376 56.5125C37.5225 56.3793 37.534 48.681 42.7375 48.55C47.9337 48.7126 47.9476 56.3461 42.7376 56.5125ZM70.7875 6.00001H46.625C44.3 6.00001 42.4125 7.88753 42.4125 10.2125V33.2625C42.3789 34.3468 43.7899 34.9346 44.55 34.15C44.55 34.15 48.625 30.075 48.625 30.075H70.7875C73.1125 30.075 75 28.175 75 25.8625V10.2125C75 7.88751 73.1125 6.00001 70.7875 6.00001ZM50.15 13.075H53.3125C54.9553 13.1058 54.9551 15.5524 53.3125 15.575H50.15C48.509 15.5526 48.5058 13.1059 50.15 13.075ZM67.2625 22.9875H50.15C48.5133 22.9577 48.5037 20.5193 50.1501 20.4875C50.15 20.4875 67.2625 20.4875 67.2625 20.4875C68.8992 20.5173 68.9088 22.9557 67.2625 22.9875ZM67.2625 15.575H59.8C59.1125 15.575 58.55 15.025 58.55 14.325C58.55 13.6375 59.1125 13.075 59.8 13.075H67.2625C68.9039 13.1053 68.9061 15.5523 67.2625 15.575Z" fill="url(#paint0_linear_132_138)"/>
<defs>
<linearGradient id="paint0_linear_132_138" x1="39.9994" y1="5.99816" x2="39.9994" y2="73.402" gradientUnits="userSpaceOnUse">
<stop stop-color="#A3A3FF"/>
<stop offset="1" stop-color="#1F1FFF"/>
</linearGradient>
</defs>
</svg>
