<svg width="197" height="120" viewBox="0 0 197 120" fill="none"
    xmlns="http://www.w3.org/2000/svg">
    <g style="mix-blend-mode:luminosity">
        <rect x="0.25" y="0.25" width="196.5" height="119.5" rx="15.75" fill="white"/>
        <rect x="0.25" y="0.25" width="196.5" height="119.5" rx="15.75" stroke="#DFEAFC" stroke-width="0.5"/>
        <path d="M49.4926 46.5907H53.7564V57.8143L65.1265 46.5907H70.8116L60.6258 56.3966L71.2853 72.9367H65.6003L57.3096 59.5865L53.638 63.1308V73.0548H49.3742L49.4926 46.5907ZM73.6541 46.5907H77.9179V51.1983C78.2732 50.3713 79.1023 49.1899 80.4051 48.0084C81.7079 46.7089 83.2476 46.1181 85.0242 46.1181H85.498C85.7349 46.1181 86.0902 46.1181 86.5639 46.2363V50.962C86.327 50.962 86.0902 50.8439 85.8533 50.8439H85.1427C82.8923 50.8439 81.2342 51.5527 80.0498 52.9705C78.8654 54.3882 78.2732 56.0422 78.2732 57.9325V73.0548H73.7725L73.6541 46.5907ZM103.027 56.9873C104.093 56.8692 104.685 56.3966 105.04 55.6878C105.277 55.3333 105.277 54.7426 105.277 54.0338C105.277 52.4979 104.685 51.4346 103.619 50.7257C102.553 50.0169 101.013 49.6624 99 49.6624C96.6312 49.6624 95.0915 50.2532 94.0256 51.5527C93.4334 52.2616 93.0781 53.3249 92.9596 54.6245H88.8143C88.9327 51.3165 89.9986 49.0717 92.0121 47.8903C94.144 46.5907 96.3943 46 99.1184 46C102.198 46 104.685 46.5907 106.699 47.7722C108.594 48.9536 109.541 50.8439 109.541 53.3249V68.4473C109.541 68.9198 109.659 69.2743 109.778 69.5105C110.015 69.7468 110.37 69.9831 110.962 69.9831H111.673C111.673 69.9831 112.147 69.865 112.502 69.865V73.173C111.791 73.4093 111.318 73.5274 110.962 73.5274C110.607 73.5274 110.133 73.6456 109.541 73.6456C108.001 73.6456 106.935 73.0548 106.225 71.9916C105.869 71.4008 105.633 70.5738 105.514 69.5105C104.567 70.692 103.264 71.7553 101.606 72.5823C99.9475 73.4093 98.0525 73.8819 96.039 73.8819C93.5518 73.8819 91.5384 73.173 89.9986 71.6371C88.4589 70.1013 87.6299 68.3291 87.6299 66.0844C87.6299 63.6034 88.3405 61.7131 89.8802 60.4135C91.4199 59.1139 93.4334 58.2869 95.9206 57.9325L103.027 56.9873ZM93.6703 68.9198C94.6178 69.6287 95.6837 69.9831 96.9865 69.9831C98.5262 69.9831 100.066 69.6287 101.487 68.9198C103.974 67.7384 105.159 65.73 105.159 63.0127V59.4684C104.567 59.8228 103.974 60.0591 103.027 60.2954C102.079 60.5316 101.369 60.6498 100.54 60.7679L97.9341 61.3586C96.2759 61.5949 95.0915 61.9494 94.2625 62.4219C92.8412 63.2489 92.249 64.4304 92.249 66.0844C92.249 67.2658 92.7227 68.211 93.6703 68.9198ZM115.463 46.5907H119.727V57.8143L131.097 46.5907H136.782L126.596 56.3966L137.256 72.9367H131.571L123.28 59.5865L119.608 63.1308V73.0548H115.345L115.463 46.5907ZM155.377 47.4177C157.153 48.2447 158.456 49.4262 159.404 50.8439C160.233 52.1435 160.825 53.6793 161.18 55.4515C161.417 56.6329 161.536 58.6413 161.536 61.2405H142.349C142.467 63.9578 143.059 66.0844 144.244 67.7384C145.428 69.3924 147.205 70.2194 149.692 70.2194C151.942 70.2194 153.837 69.5105 155.14 67.9747C155.851 67.0295 156.443 66.0844 156.798 64.903H161.18C161.062 65.8481 160.707 66.9114 159.996 68.0928C159.404 69.2743 158.575 70.2194 157.864 71.0464C156.561 72.346 154.903 73.2911 152.89 73.6456C151.824 73.8819 150.639 74 149.336 74C146.02 74 143.296 72.8186 141.046 70.4557C138.795 68.0928 137.611 64.7848 137.611 60.5316C137.611 56.2785 138.795 52.8523 141.046 50.2532C143.296 47.654 146.376 46.2363 150.047 46.2363C151.824 46 153.6 46.4726 155.377 47.4177ZM157.035 57.6962C156.798 55.8059 156.443 54.27 155.732 53.0886C154.548 50.962 152.534 49.8987 149.692 49.8987C147.678 49.8987 146.02 50.6076 144.599 52.1435C143.178 53.5612 142.467 55.4515 142.467 57.6962H157.035ZM165.444 46.5907H169.708V50.3713C171.011 48.8354 172.314 47.7722 173.735 47.0633C175.156 46.3544 176.696 46 178.354 46C182.144 46 184.631 47.2996 185.934 49.8987C186.645 51.3165 187 53.3249 187 56.0422V72.9367H182.499V56.3966C182.499 54.7426 182.262 53.443 181.789 52.4979C180.96 50.8439 179.538 50.0169 177.525 50.0169C176.459 50.0169 175.63 50.135 174.919 50.3713C173.735 50.7257 172.669 51.4346 171.721 52.4979C171.011 53.3249 170.537 54.27 170.3 55.2152C170.063 56.1603 169.945 57.4599 169.945 59.2321V73.0548H165.563L165.444 46.5907ZM27.8183 46.5907C18.5801 46.5907 11 54.0338 11 63.3671V70.5738C11 71.8734 12.0659 72.9367 13.3688 72.9367C14.6716 72.9367 15.7376 71.8734 15.7376 70.5738V63.3671C15.7376 62.0675 16.8035 61.0042 18.1063 61.0042C19.4092 61.0042 20.4751 62.0675 20.4751 63.3671V70.5738C20.4751 71.8734 21.541 72.9367 22.8439 72.9367C24.1467 72.9367 25.2127 71.8734 25.2127 70.5738V63.3671C25.2127 62.0675 26.2786 61.0042 27.5814 61.0042C28.8843 61.0042 29.9502 62.0675 29.9502 63.3671V70.5738C29.9502 71.8734 31.0161 72.9367 32.319 72.9367C33.6218 72.9367 34.6878 71.8734 34.6878 70.5738V63.3671C34.6878 62.0675 35.7537 61.0042 37.0565 61.0042C38.3594 61.0042 39.4253 62.0675 39.4253 63.3671V70.5738C39.4253 71.8734 40.4913 72.9367 41.7941 72.9367C43.0969 72.9367 44.1629 71.8734 44.1629 70.5738V63.3671C44.755 54.0338 37.175 46.5907 27.8183 46.5907Z" fill="#5841D8"/>
    </g>
</svg>
