<svg width="197" height="120" viewBox="0 0 197 120" fill="none" xmlns="http://www.w3.org/2000/svg">
<g style="mix-blend-mode:luminosity">
<rect x="0.25" y="0.25" width="196.5" height="119.5" rx="15.75" fill="white"/>
<rect x="0.25" y="0.25" width="196.5" height="119.5" rx="15.75" stroke="#DFEAFC" stroke-width="0.5"/>
<g clip-path="url(#clip0_314_4415)">
<path d="M117.656 68.3192V44.6469H122.415V68.3192H117.656Z" fill="#F7A600"/>
<path d="M62.2008 75.351H52V51.6786H61.7911C66.5495 51.6786 69.3215 54.2727 69.3215 58.3281C69.3215 60.954 67.5405 62.6513 66.3081 63.2167C67.7798 63.8806 69.6624 65.3768 69.6624 68.5363C69.6624 72.957 66.5495 75.351 62.2008 75.351ZM61.4141 55.8017H56.7584V61.2547H61.4131C63.4323 61.2547 64.562 60.1577 64.562 58.5271C64.562 56.8997 63.4333 55.8017 61.4141 55.8017ZM61.7212 65.4106H56.7595V71.23H61.7233C63.8801 71.23 64.9051 69.9001 64.9051 68.3034C64.9051 66.7077 63.878 65.4106 61.7233 65.4106H61.7212ZM84.1759 65.6436V75.351H79.4514V65.6436L72.1253 51.6786H77.2945L81.8475 61.2208L86.3317 51.6786H91.4999L84.1759 65.6436ZM104.991 75.351H94.7897V51.6786H104.58C109.338 51.6786 112.111 54.2727 112.111 58.3281C112.111 60.954 110.33 62.6513 109.098 63.2167C110.57 63.8806 112.452 65.3768 112.452 68.5363C112.452 72.957 109.339 75.351 104.991 75.351ZM104.204 55.8017H99.5481V61.2547H104.204C106.223 61.2547 107.353 60.1577 107.353 58.5271C107.353 56.8997 106.223 55.8017 104.204 55.8017ZM104.511 65.4106H99.547V71.23H104.511C106.669 71.23 107.694 69.9001 107.694 68.3034C107.694 66.7077 106.669 65.4106 104.511 65.4106ZM137.751 55.8028V75.3531H132.992V55.8017H126.627V51.6786H144.119V55.8017L137.751 55.8028Z" fill="#15192A"/>
</g>
</g>
<defs>
<clipPath id="clip0_314_4415">
<rect width="92.1187" height="36" fill="white" transform="translate(52 42)"/>
</clipPath>
</defs>
</svg>
