<svg width="197" height="120" viewBox="0 0 197 120" fill="none" xmlns="http://www.w3.org/2000/svg">
<g style="mix-blend-mode:luminosity">
<rect x="0.25" y="0.25" width="196.5" height="119.5" rx="15.75" fill="white"/>
<rect x="0.25" y="0.25" width="196.5" height="119.5" rx="15.75" stroke="#DFEAFC" stroke-width="0.5"/>
<path d="M73.1992 42H38.7999C38.5877 42 38.3843 42.0842 38.2343 42.2343C38.0842 42.3843 38 42.5877 38 42.8V77.1993C38 77.4115 38.0842 77.6149 38.2343 77.7649C38.3843 77.915 38.5877 77.9992 38.7999 77.9992H73.1992C73.4115 77.9992 73.6149 77.915 73.7649 77.7649C73.915 77.6149 73.9992 77.4115 73.9992 77.1993V42.8C73.9992 42.5877 73.915 42.3843 73.7649 42.2343C73.6149 42.0842 73.4115 42 73.1992 42ZM61.9994 65.1995C61.9994 65.4117 61.9152 65.6151 61.7651 65.7652C61.6151 65.9152 61.4117 65.9996 61.1995 65.9996H50.7997C50.5875 65.9996 50.3841 65.9152 50.2339 65.7652C50.084 65.6151 49.9998 65.4117 49.9998 65.1995V54.7997C49.9998 54.5875 50.084 54.3841 50.2339 54.2341C50.3841 54.084 50.5875 53.9998 50.7997 53.9998H61.1995C61.4117 53.9998 61.6151 54.084 61.7651 54.2341C61.9152 54.3841 61.9994 54.5875 61.9994 54.7997V65.1995Z" fill="black"/>
<path d="M145.217 54.0012H134.818C134.376 54.0012 134.018 54.3593 134.018 54.8011V65.201C134.018 65.6428 134.376 66.001 134.818 66.001H145.217C145.659 66.001 146.017 65.6428 146.017 65.201V54.8011C146.017 54.3593 145.659 54.0012 145.217 54.0012Z" fill="black"/>
<path d="M133.213 42.0009H122.814C122.372 42.0009 122.014 42.3589 122.014 42.8009V53.2006C122.014 53.6424 122.372 54.0006 122.814 54.0006H133.213C133.655 54.0006 134.013 53.6424 134.013 53.2006V42.8009C134.013 42.3589 133.655 42.0009 133.213 42.0009Z" fill="black"/>
<path d="M157.213 42.0009H146.813C146.371 42.0009 146.013 42.3589 146.013 42.8009V53.2006C146.013 53.6424 146.371 54.0006 146.813 54.0006H157.213C157.654 54.0006 158.012 53.6424 158.012 53.2006V42.8009C158.012 42.3589 157.654 42.0009 157.213 42.0009Z" fill="black"/>
<path d="M133.213 66.0001H122.814C122.372 66.0001 122.014 66.3581 122.014 66.7999V77.1998C122.014 77.6416 122.372 77.9999 122.814 77.9999H133.213C133.655 77.9999 134.013 77.6416 134.013 77.1998V66.7999C134.013 66.3581 133.655 66.0001 133.213 66.0001Z" fill="black"/>
<path d="M157.213 66.0001H146.813C146.371 66.0001 146.013 66.3581 146.013 66.7999V77.1998C146.013 77.6416 146.371 77.9999 146.813 77.9999H157.213C157.654 77.9999 158.012 77.6416 158.012 77.1998V66.7999C158.012 66.3581 157.654 66.0001 157.213 66.0001Z" fill="black"/>
<path d="M115.199 42.0009H104.799C104.357 42.0009 103.999 42.3589 103.999 42.8009V53.2006C103.999 53.6424 104.357 54.0006 104.799 54.0006H115.199C115.641 54.0006 115.999 53.6424 115.999 53.2006V42.8009C115.999 42.3589 115.641 42.0009 115.199 42.0009Z" fill="black"/>
<path d="M115.199 66.0001H104.799C104.357 66.0001 103.999 66.3581 103.999 66.7999V77.1998C103.999 77.6416 104.357 77.9999 104.799 77.9999H115.199C115.641 77.9999 115.999 77.6416 115.999 77.1998V66.7999C115.999 66.3581 115.641 66.0001 115.199 66.0001Z" fill="black"/>
<path d="M103.999 54.7907C103.999 54.5785 103.914 54.3751 103.764 54.2251C103.614 54.075 103.411 53.9908 103.199 53.9908H91.9988V42.8C91.9988 42.5877 91.9144 42.3843 91.7645 42.2343C91.6144 42.0842 91.4109 42 91.1988 42H80.7991C80.5868 42 80.3833 42.0842 80.2333 42.2343C80.0832 42.3843 79.999 42.5877 79.999 42.8V77.1813C79.999 77.3935 80.0832 77.5969 80.2333 77.7469C80.3833 77.897 80.5868 77.9812 80.7991 77.9812H91.1988C91.4109 77.9812 91.6144 77.897 91.7645 77.7469C91.9144 77.5969 91.9988 77.3935 91.9988 77.1813V65.9906H103.199C103.411 65.9906 103.614 65.9062 103.764 65.7562C103.914 65.6061 103.999 65.4027 103.999 65.1905V54.7907Z" fill="black"/>
</g>
</svg>
