<svg width="197" height="120" viewBox="0 0 197 120" fill="none" xmlns="http://www.w3.org/2000/svg">
<g style="mix-blend-mode:luminosity">
<rect x="0.25" y="0.25" width="196.5" height="119.5" rx="15.75" fill="white"/>
<rect x="0.25" y="0.25" width="196.5" height="119.5" rx="15.75" stroke="#DFEAFC" stroke-width="0.5"/>
<path fill-rule="evenodd" clip-rule="evenodd" d="M150.147 52.7025H154.612V48.2379H150.147V52.7025ZM126.416 60.1414C127.271 57.8777 129.453 56.2679 132.012 56.2679C134.572 56.2679 136.76 57.8777 137.609 60.1414H126.416ZM132.012 52.1114C126.416 52.1114 121.876 56.6515 121.876 62.248C121.876 67.8445 126.416 72.3846 132.012 72.3846C135.854 72.3846 139.193 70.2466 140.91 67.1025L137.169 65.2852C136.125 67.0522 134.207 68.2344 132.012 68.2344C129.239 68.2344 126.906 66.3479 126.227 63.7823H137.797V63.7886H142.036C142.111 63.2855 142.149 62.7699 142.149 62.248C142.149 56.6515 137.615 52.1114 132.012 52.1114ZM143.331 71.8438H147.796V67.3792H143.331V71.8438ZM150.147 71.8438H154.612V54.6644H150.147V71.8438ZM167.069 68.2344C163.761 68.2344 161.083 65.5556 161.083 62.248C161.083 58.9404 163.761 56.2616 167.069 56.2616C170.377 56.2616 173.055 58.9404 173.055 62.248C173.055 65.5556 170.377 68.2344 167.069 68.2344ZM167.069 52.1114C161.472 52.1114 156.932 56.6515 156.932 62.248C156.932 67.8445 161.472 72.3846 167.069 72.3846C172.665 72.3846 177.206 67.8445 177.206 62.248C177.206 56.6515 172.665 52.1114 167.069 52.1114ZM73.7268 58.5128V63.1283H79.971C79.644 64.4489 79.0026 65.631 78.0782 66.5743C76.6822 68.0017 74.7518 68.7814 72.6389 68.7814C68.2497 68.7814 64.678 65.2097 64.678 60.8143C64.678 56.4251 68.2497 52.8471 72.6389 52.8471C74.9907 52.8471 77.1539 53.8532 78.6504 55.5888L82.2222 52.6648C79.8515 49.8854 76.3364 48.2253 72.6389 48.2253C65.703 48.2253 60.0625 53.8721 60.0625 60.808C60.0625 67.7439 65.703 73.3907 72.6389 73.3907C76.0094 73.3907 79.1095 72.1771 81.3795 69.8567C83.2849 67.9074 84.5488 65.1909 84.7877 62.4744C84.9072 61.1476 84.9198 59.827 84.8443 58.5002L73.7268 58.5128ZM96.4649 68.2344C93.1636 68.2344 90.4786 65.5556 90.4786 62.248C90.4786 58.9404 93.1573 56.2616 96.4649 56.2616C99.7725 56.2616 102.451 58.9404 102.451 62.248C102.451 65.5556 99.7725 68.2344 96.4649 68.2344ZM102.451 54.0859C100.772 52.8534 98.7035 52.1303 96.4649 52.1303C90.8684 52.1303 86.3346 56.6703 86.3346 62.2669C86.3346 67.8634 90.8747 72.4034 96.4649 72.4034C98.7035 72.4034 100.772 71.674 102.451 70.4478V71.8501H106.602V52.6836H102.451V54.0859ZM115.506 48.2379H111.355V52.7025H108.872V56.62H111.355V66.8698C111.355 67.9262 111.487 68.8192 111.752 69.5172C112.009 70.2089 112.412 70.7496 112.883 71.171C113.361 71.5986 113.921 71.9318 114.588 72.1268C115.267 72.3154 116.009 72.3909 116.801 72.3909C117.618 72.3909 118.348 72.3091 118.964 72.1393C119.543 71.9821 120.096 71.7621 120.605 71.4854V68.3287C119.788 68.6808 119.021 68.8129 118.147 68.8506C117.222 68.8946 116.682 68.6305 116.229 68.1966C115.751 67.7439 115.499 67.1528 115.499 66.1655V56.62H120.605V52.7025H115.499V48.2379H115.506Z" fill="black"/>
<path fill-rule="evenodd" clip-rule="evenodd" d="M37.9969 69.9008C32.5324 69.9008 28.0992 65.4676 28.0992 60.0031C28.0992 54.5387 32.5324 50.1055 37.9969 50.1055V42C28.0552 42 20 50.0615 20 60.0031C20 69.9448 28.0552 78 37.9969 78C47.9322 78 55.9937 69.9385 55.9937 60.0031H47.8945C47.8945 65.4739 43.4613 69.9008 37.9969 69.9008Z" fill="#2354E6"/>
<path fill-rule="evenodd" clip-rule="evenodd" d="M37.9971 60.0031H47.8947V50.1055H37.9971V60.0031Z" fill="#17E6A1"/>
</g>
</svg>
