<svg width="441" height="400" viewBox="0 0 441 400" fill="none" xmlns="http://www.w3.org/2000/svg">
<path d="M220.115 400C341.682 400 440.231 387.165 440.231 371.332C440.231 355.499 341.682 342.664 220.115 342.664C98.5491 342.664 0 355.499 0 371.332C0 387.165 98.5491 400 220.115 400Z" fill="#DFEAFC"/>
<path fill-rule="evenodd" clip-rule="evenodd" d="M187.815 13.5588C191.053 16.7948 191.053 22.0413 187.815 25.2773C186.571 26.5205 185.03 27.2861 183.421 27.5741V82.0742L199.501 91.3151V119.223H196.561V93.0113L180.49 83.7704V27.5751C178.879 27.2879 177.336 26.522 176.09 25.2773C172.853 22.0413 172.853 16.7948 176.09 13.5588C179.328 10.3228 184.577 10.3228 187.815 13.5588Z" fill="url(#paint0_linear_314_4075)"/>
<path fill-rule="evenodd" clip-rule="evenodd" d="M422.829 296.266C426.067 299.502 426.067 304.748 422.829 307.984C419.591 311.22 414.342 311.22 411.104 307.984C409.859 306.74 409.093 305.198 408.806 303.587H376.781L367.536 319.659H339.613V316.721H365.839L375.084 300.658H408.806C409.095 299.049 409.861 297.509 411.104 296.266C414.342 293.03 419.591 293.03 422.829 296.266Z" fill="url(#paint1_linear_314_4075)"/>
<path fill-rule="evenodd" clip-rule="evenodd" d="M378.598 361.581C378.652 361.286 378.721 360.99 378.808 360.696C380.105 356.307 384.716 353.799 389.107 355.095C393.499 356.391 396.007 361 394.711 365.389C393.414 369.778 388.803 372.285 384.412 370.989C381.303 370.072 379.138 367.495 378.598 364.51H344.871L335.635 348.438H309.4V345.509H337.332L346.569 361.581H378.598Z" fill="url(#paint2_linear_314_4075)"/>
<path fill-rule="evenodd" clip-rule="evenodd" d="M103.826 16.4434C107.706 15.752 110.651 12.3629 110.651 8.28622C110.651 3.70987 106.94 0 102.361 0C97.7821 0 94.0703 3.70987 94.0703 8.28622C94.0703 12.3596 97.011 15.7464 100.886 16.4418V101.001L116.966 110.242V154.055H119.906V108.546L103.826 99.3049V16.4434Z" fill="url(#paint3_linear_314_4075)"/>
<path fill-rule="evenodd" clip-rule="evenodd" d="M270.536 27.5782C274.981 26.7814 277.98 22.5639 277.252 18.0921C276.517 13.5751 272.257 10.5091 267.738 11.2439C263.219 11.9787 260.151 16.2362 260.886 20.7531C261.466 24.3137 264.235 26.9728 267.596 27.5792V82.0742L251.516 91.3151V119.223H254.455V93.0113L270.536 83.7704V27.5782Z" fill="url(#paint4_linear_314_4075)"/>
<path d="M28.0895 252.637C26.6707 250.626 25.2518 248.336 25.5115 245.889C25.7711 243.442 28.6552 241.255 30.7324 242.58C25.2238 239.467 20.6288 234.964 17.4064 229.521C16.1174 227.343 15.0417 224.747 15.8207 222.338C16.5996 219.928 20.1143 218.491 21.7742 220.41C14.3507 214.055 9.4735 205.233 8.04021 195.57C7.41889 191.232 8.28132 185.652 12.4729 184.354C15.8021 183.316 19.1499 185.671 21.7464 187.979C25.9145 191.652 29.8596 195.57 33.5609 199.713C33.9503 196.83 33.0508 193.456 35.0168 191.315C36.6953 189.462 39.7834 189.675 41.8514 191.046C43.9193 192.418 45.2176 194.671 46.4325 196.839C49.9564 203.08 53.4741 209.318 56.9857 215.553C57.913 212.772 56.4756 208.842 59.0351 207.443C61.5946 206.043 63.9593 209.102 65.1185 211.623C72.0445 226.591 77.986 241.994 82.9051 257.735C84.4816 262.795 85.9468 268.014 85.6871 273.306C85.4089 278.441 83.1833 283.956 78.6393 286.737C75.0412 288.942 69.6069 288.85 65.712 287.358C62.2716 286.032 59.2206 283.122 56.2809 280.999C51.147 277.332 46.3127 273.262 41.8235 268.829C36.7725 263.851 32.1763 258.432 28.0895 252.637Z" fill="#0D7046"/>
<path d="M361.305 179.692C362.835 177.755 364.625 175.753 367.045 175.299C369.465 174.845 372.387 176.986 371.682 179.359C373.098 173.196 376.103 167.512 380.399 162.87C382.124 161.016 384.312 159.236 386.89 159.292C389.468 159.348 391.805 162.313 390.433 164.445C394.408 155.521 401.476 148.332 410.334 144.202C414.321 142.349 419.904 141.598 422.389 145.25C424.337 148.132 423.029 152.016 421.573 155.167C419.237 160.209 416.605 165.108 413.691 169.84C416.556 169.386 419.542 167.56 422.148 168.829C424.383 169.923 425.088 172.935 424.364 175.317C423.641 177.7 421.851 179.572 420.117 181.361L405.094 196.793C407.997 196.914 411.382 194.402 413.44 196.441C415.499 198.48 413.264 201.631 411.178 203.467C398.809 214.378 385.746 224.478 372.071 233.701C367.666 236.648 363.085 239.55 357.929 240.782C352.931 241.987 347.005 241.431 343.036 237.872C339.901 235.091 338.399 229.827 338.752 225.665C339.039 221.958 340.968 218.25 342.155 214.811C346.525 202.124 352.998 190.261 361.305 179.72V179.692Z" fill="#0D7046"/>
<path d="M367.183 224.145C369.52 223.348 372.108 222.643 374.389 223.58C376.67 224.516 377.95 227.908 376.086 229.521C380.629 225.121 386.247 221.989 392.38 220.437C394.837 219.826 397.638 219.511 399.733 220.957C401.829 222.402 402.209 226.156 399.9 227.204C408.093 221.881 417.934 219.699 427.609 221.058C431.959 221.689 437.059 224.099 437.133 228.473C437.133 231.958 433.971 234.498 431.022 236.352C426.317 239.303 421.443 241.977 416.426 244.36C419.078 245.546 422.574 245.63 424.067 248.123C425.347 250.255 424.299 253.165 422.389 254.759C420.478 256.354 417.965 256.956 415.545 257.54L394.596 262.36C396.97 264.037 401.18 263.778 401.801 266.614C402.423 269.45 398.815 270.868 396.07 271.248C379.745 273.652 363.281 274.99 346.782 275.253C341.487 275.327 336.062 275.253 331.017 273.501C326.167 271.786 321.502 268.088 320.12 262.944C319.026 258.875 320.64 253.675 323.181 250.375C325.425 247.456 329.079 245.37 331.944 243.127C336.918 239.25 342.189 235.77 347.709 232.719C353.931 229.285 360.449 226.416 367.183 224.145Z" fill="#0D7046"/>
<path d="M47.2302 203.402C46.6645 201.01 46.2009 198.359 47.3508 196.181C48.5007 194.003 51.9875 193.049 53.4249 195.051C49.47 190.114 46.8799 184.227 45.9134 177.978C45.5332 175.475 45.4961 172.667 47.1189 170.72C48.7418 168.774 52.5347 168.746 53.36 171.137C48.8303 162.481 47.5853 152.48 49.8546 142.979C50.884 138.715 53.768 133.868 58.1451 134.211C61.6134 134.489 63.8483 137.918 65.4155 141.023C67.9128 145.984 70.1145 151.087 72.009 156.307C73.4464 153.786 73.8637 150.311 76.4788 149.059C78.723 147.984 81.5236 149.31 82.9702 151.349C84.4169 153.388 84.7415 155.983 85.0753 158.421L87.8574 179.739C89.7584 177.533 89.8883 173.325 92.7816 172.973C95.5636 172.63 96.7414 176.337 96.8805 179.118C97.7354 195.585 97.5186 212.09 96.2313 228.529C95.814 233.812 95.2391 239.197 93.0042 244.008C90.8434 248.642 86.7167 252.961 81.4679 253.86C77.3134 254.565 72.2965 252.47 69.2362 249.634C66.5376 247.122 64.8035 243.294 62.8375 240.226C59.4442 234.906 56.4737 229.327 53.9535 223.543C51.1188 217.042 48.8688 210.301 47.2302 203.402Z" fill="#0D7046"/>
<path d="M341.264 245.88C341.264 320.336 297.048 381.073 222.999 382.927C221.831 382.927 205.426 382.834 204.239 382.834C167.898 382.834 133.045 368.405 107.348 342.721C81.6504 317.037 67.2139 282.203 67.2139 245.88C67.2163 209.558 81.6536 174.725 107.35 149.041C133.047 123.358 167.898 108.928 204.239 108.926C205.825 108.926 223.945 108.787 225.512 108.842C299.005 111.354 341.264 171.823 341.264 245.88Z" fill="#D85A2E"/>
<path d="M322.467 342.782C376.015 289.262 376.015 202.489 322.467 148.968C268.92 95.4482 182.101 95.4482 128.554 148.968C75.0058 202.489 75.0058 289.262 128.554 342.782C182.101 396.302 268.92 396.302 322.467 342.782Z" fill="#F7A848"/>
<path d="M225.513 368.227C193.058 368.193 161.942 355.291 138.994 332.354C116.045 309.417 103.137 278.318 103.103 245.88C103.103 178.422 158.011 123.533 225.513 123.533C293.014 123.533 347.923 178.422 347.923 245.88C347.923 313.338 293.005 368.227 225.513 368.227ZM225.513 127.074C193.987 127.074 163.752 139.591 141.461 161.871C119.169 184.152 106.645 214.371 106.645 245.88C106.645 277.389 119.169 307.608 141.461 329.889C163.752 352.169 193.987 364.686 225.513 364.686C257.038 364.686 287.273 352.169 309.565 329.889C331.857 307.608 344.38 277.389 344.38 245.88C344.38 214.371 331.857 184.152 309.565 161.871C287.273 139.591 257.038 127.074 225.513 127.074Z" fill="#FFC466"/>
<path d="M284.214 255.019C277.327 250.446 269.406 247.664 261.17 246.927V245.129C265.746 244.149 270.148 242.483 274.227 240.189C278.964 237.512 283.005 233.759 286.023 229.233C289.361 224.377 291.03 218.411 291.03 211.336C291.03 199.935 286.829 191.176 278.428 185.059C270.026 178.942 258.323 175.883 243.318 175.883H236.743V161.248H227.674V175.883H220.125V161.248H204.722V175.883H160.71V205.394H169.715V286.375H160.71V315.887H204.722V330.513H220.125V315.887H227.674V330.513H236.743V315.887H243.346C258.474 315.887 270.777 312.976 280.254 307.155C289.732 301.335 294.474 292.128 294.48 279.535C294.48 267.77 291.058 259.598 284.214 255.019ZM229.825 205.394C233.306 205.394 235.918 206.321 237.661 208.175C239.396 210.029 240.267 212.939 240.267 216.906V223.394C240.267 227.361 239.399 230.272 237.661 232.125C235.924 233.979 233.312 234.906 229.825 234.906H220.125V205.394H229.825ZM241.547 274.854C241.547 278.815 240.678 281.725 238.941 283.585C237.198 285.439 234.583 286.366 231.105 286.366H220.125V255.408H231.105C234.583 255.408 237.198 256.335 238.941 258.189C240.685 260.043 241.547 262.962 241.547 266.92V274.854Z" fill="#FFC466"/>
<g opacity="0.24">
<path d="M335.199 163.648L96.3789 292.094C107.879 324.087 130.826 350.69 160.793 366.772L362.092 257.976C362.435 253.99 362.621 249.958 362.621 245.88C362.669 216.219 353.042 187.35 335.199 163.648Z" fill="#FFE97D"/>
</g>
<g opacity="0.24">
<path d="M272.928 117.268L95.2291 203.114C90.6927 216.929 88.3857 231.377 88.3946 245.917C88.3946 248.911 88.5058 251.868 88.6913 254.806L311.376 139.049C299.825 129.754 286.84 122.398 272.928 117.268Z" fill="#FFE97D"/>
</g>
<path d="M57.3376 303.365V308.564H53.7394V327.102H69.866V329.678C84.8334 337.39 129.643 360.562 141.365 367.541C149.572 372.435 162.286 376.235 171.513 378.562V364.297H162.434V345.76H176.038V327.139H159.902V308.601H163.51V290.064H153.309V271.499H47.1367V290.036H57.3376V303.365Z" fill="#D85A2E"/>
<path d="M150.416 364.343H44.2344V382.927H150.416V364.343Z" fill="#FFC466"/>
<path d="M150.416 377.737H44.2344V382.927H150.416V377.737Z" fill="#F7A848"/>
<path d="M127.974 364.343H114.268V381.194H127.974V364.343Z" fill="#F7A848"/>
<path d="M107.053 364.343H101.712V381.194H107.053V364.343Z" fill="#F7A848"/>
<path d="M77.211 364.343H52.6641V377.727H77.211V364.343Z" fill="#FFD79C"/>
<path d="M88.2563 364.343H79.8359V377.727H88.2563V364.343Z" fill="#FFD79C"/>
<path d="M141.338 345.769H35.1562V364.353H141.338V345.769Z" fill="#FFC466"/>
<path d="M141.338 359.153H35.1562V364.343H141.338V359.153Z" fill="#F7A848"/>
<path d="M118.896 345.769H105.189V362.619H118.896V345.769Z" fill="#F7A848"/>
<path d="M97.9841 345.769H92.6426V362.619H97.9841V345.769Z" fill="#F7A848"/>
<path d="M68.1319 345.769H43.585V359.153H68.1319V345.769Z" fill="#FFD79C"/>
<path d="M79.1772 345.769H70.7568V359.153H79.1772V345.769Z" fill="#FFD79C"/>
<path d="M154.951 327.185H48.7695V345.769H154.951V327.185Z" fill="#FFC466"/>
<path d="M154.951 340.578H48.7695V345.769H154.951V340.578Z" fill="#F7A848"/>
<path d="M132.509 327.185H118.803V344.036H132.509V327.185Z" fill="#F7A848"/>
<path d="M111.588 327.185H106.246V344.036H111.588V327.185Z" fill="#F7A848"/>
<path d="M81.7461 327.185H57.1992V340.569H81.7461V327.185Z" fill="#FFD79C"/>
<path d="M92.7904 327.185H84.3701V340.569H92.7904V327.185Z" fill="#FFD79C"/>
<path d="M138.824 308.611H32.6426V327.194H138.824V308.611Z" fill="#FFC466"/>
<path d="M138.824 321.995H32.6426V327.185H138.824V321.995Z" fill="#F7A848"/>
<path d="M116.382 308.611H102.676V325.461H116.382V308.611Z" fill="#F7A848"/>
<path d="M95.4616 308.611H90.1201V325.461H95.4616V308.611Z" fill="#F7A848"/>
<path d="M65.6192 308.611H41.0723V321.995H65.6192V308.611Z" fill="#FFD79C"/>
<path d="M76.6635 308.611H68.2432V321.995H76.6635V308.611Z" fill="#FFD79C"/>
<path d="M142.431 290.027H36.25V308.611H142.431V290.027Z" fill="#FFC466"/>
<path d="M142.431 303.411H36.25V308.601H142.431V303.411Z" fill="#F7A848"/>
<path d="M119.989 290.027H106.283V306.877H119.989V290.027Z" fill="#F7A848"/>
<path d="M99.0691 290.027H93.7275V306.877H99.0691V290.027Z" fill="#F7A848"/>
<path d="M69.2266 290.027H44.6797V303.411H69.2266V290.027Z" fill="#FFD79C"/>
<path d="M80.2709 290.027H71.8506V303.411H80.2709V290.027Z" fill="#FFD79C"/>
<path d="M132.259 271.545H26.0771V290.129H132.259V271.545Z" fill="#FFC466"/>
<path d="M132.259 284.929H26.0771V290.12H132.259V284.929Z" fill="#F7A848"/>
<path d="M109.817 271.545H96.1104V288.396H109.817V271.545Z" fill="#F7A848"/>
<path d="M88.905 271.545H83.5635V288.396H88.905V271.545Z" fill="#F7A848"/>
<path d="M59.0538 271.545H34.5068V284.929H59.0538V271.545Z" fill="#FFD79C"/>
<path d="M70.0981 271.545H61.6777V284.929H70.0981V271.545Z" fill="#FFD79C"/>
<path d="M346.754 53.3969C347.487 55.7048 345.734 58.1332 346.022 60.5338C346.152 61.609 346.68 62.6007 346.884 63.6666C347.357 66.1785 345.957 68.6532 344.315 70.6182C346.918 69.6949 349.059 67.7972 350.288 65.3257C351.131 63.5925 351.493 61.6183 352.328 59.9035C353.459 57.5308 355.407 55.6585 356.89 53.4896C358.374 51.3207 359.413 48.5216 358.42 46.0746C357.734 44.4156 356.232 43.2292 355.434 41.6257C355.026 40.8008 354.813 39.8924 354.507 39.0304C353.502 36.6982 351.654 34.8305 349.331 33.7997C347.009 32.769 344.384 32.651 341.979 33.4692C344.64 28.5105 342.229 21.7628 337.601 18.5559C332.974 15.3489 326.353 15.6548 321.688 18.8154C319.408 20.4729 317.546 22.6383 316.249 25.1399C314.951 27.6416 314.255 30.4108 314.214 33.2282C314.121 36.8245 314.965 40.4949 314.075 43.9892C313.888 44.9823 313.372 45.8835 312.609 46.5474C312.041 46.9221 311.375 47.1218 310.694 47.1218C310.014 47.1218 309.348 46.9221 308.779 46.5474C307.654 45.7633 306.829 44.619 306.443 43.3033C304.681 46.3249 303.076 49.7914 303.586 53.2301C303.824 54.9639 304.424 56.6283 305.347 58.115C306.271 59.6017 307.497 60.8775 308.946 61.8592C311.728 63.713 315.215 64.1393 318.554 64.1857C321.006 64.3153 323.459 63.9658 325.778 63.1569C328.078 62.23 328.625 60.6265 329.487 58.3093C330.35 55.9922 330.127 52.7481 332.269 51.3763C332.955 50.9407 333.567 52.4237 334.337 52.1456C335.682 51.6359 338.594 48.9758 339.4 47.7801C340.411 46.2786 341.005 44.2394 342.711 43.637C344.417 43.0345 346.467 44.5639 347.292 46.2878C347.766 47.4321 347.964 48.6716 347.871 49.9064C347.777 51.1412 347.395 52.3368 346.754 53.3969Z" fill="#4F2830"/>
<path d="M314.974 228.39C314.974 228.39 307.871 235.425 307.185 236.584C306.498 237.742 325.045 254.352 325.045 254.352C325.045 254.352 328.579 249.476 321.855 238.372C315.132 227.269 314.974 228.39 314.974 228.39Z" fill="#281419"/>
<path d="M362.927 232.097C362.927 232.097 355.814 239.132 355.137 240.291C354.46 241.45 372.998 258.059 372.998 258.059C372.998 258.059 376.531 253.165 369.854 242.043C363.177 230.92 362.927 232.097 362.927 232.097Z" fill="#281419"/>
<path d="M293.737 107.294C290.223 112.856 286.569 119.103 287.515 125.637C288.572 132.895 294.934 138.048 300.785 142.451L314.417 152.646C316.272 154.055 318.229 155.529 319.323 157.596C320.417 159.663 320.696 159.153 322.5 162.5C325.406 167.893 324.451 165.177 325.406 167.893C326.361 170.609 325.796 173.603 325.165 176.411C321.043 194.859 315.062 212.843 307.314 230.086C311.023 233.516 316.402 235.267 321.382 236.092C331.007 217.23 340.225 196.747 345.493 176.244C346.939 170.683 348.219 164.853 347.347 159.153C345.372 146.51 333.669 138.057 326.64 127.352C322.782 121.485 320.222 114.7 315.409 109.575C310.596 104.449 302.297 101.474 296.519 105.459C295.815 105.95 294.98 106.553 294.192 106.219C293.403 105.886 293.135 106.72 293.737 107.294Z" fill="#4F2830"/>
<path d="M341.199 127.519L353.255 141.959C356.853 146.26 360.498 150.626 362.779 155.742C365.95 162.851 366.266 170.841 366.488 178.617C367.168 198.545 367.842 218.473 368.51 238.4C364.221 238.722 359.909 238.387 355.722 237.408C355.23 237.288 354.627 236.723 355.035 236.426C353.821 224.877 352.94 213.254 351.725 201.743C351.131 196.098 350.519 190.379 348.553 185.059C346.587 179.739 343.323 174.974 340.207 170.229C330.572 155.76 321.345 139.93 320.872 122.551C320.779 118.899 321.159 115.006 323.357 112.086C325.555 109.167 330.09 107.758 332.983 109.982C334.625 111.243 335.394 113.31 336.08 115.266C337.397 118.945 338.686 124.506 341.199 127.519Z" fill="#4F2830"/>
<path d="M345.744 178.663C348.072 171.332 349.741 163.435 347.599 155.844C345.642 148.883 341.107 143.192 336.47 137.77C333.688 134.461 330.396 130.244 331.759 125.646C331.782 125.548 331.766 125.445 331.714 125.359C331.662 125.273 331.579 125.21 331.482 125.184C331.385 125.157 331.281 125.17 331.193 125.218C331.105 125.266 331.038 125.347 331.008 125.443C328.94 132.44 336.248 138.345 339.994 143.276C344.761 149.55 348.09 156.567 347.775 164.594C347.471 169.313 346.535 173.97 344.993 178.441C344.844 178.914 345.586 179.118 345.744 178.645V178.663Z" fill="#82505C"/>
<path d="M334.615 130.448C335.044 130.125 335.363 129.677 335.529 129.167C335.695 128.656 335.7 128.106 335.542 127.593C335.514 127.495 335.449 127.413 335.36 127.362C335.272 127.312 335.168 127.298 335.069 127.324C335.02 127.337 334.974 127.359 334.934 127.39C334.894 127.421 334.86 127.46 334.835 127.504C334.81 127.548 334.794 127.597 334.788 127.647C334.782 127.697 334.786 127.748 334.8 127.797C334.8 127.899 334.856 127.991 334.875 128.093C334.875 128.047 334.893 128.195 334.875 128.093C334.875 128.14 334.875 128.149 334.875 128.177C334.875 128.205 334.875 128.279 334.875 128.334C334.875 128.39 334.875 128.436 334.875 128.483C334.875 128.529 334.875 128.538 334.875 128.566C334.875 128.511 334.875 128.594 334.875 128.566C334.86 128.673 334.835 128.779 334.8 128.881C334.79 128.932 334.775 128.982 334.754 129.03C334.754 128.955 334.754 129.03 334.754 129.076L334.606 129.345L334.559 129.41C334.559 129.465 334.615 129.345 334.559 129.41L334.457 129.521L334.355 129.632H334.3C334.213 129.688 334.15 129.774 334.124 129.873C334.099 129.973 334.111 130.079 334.16 130.17C334.213 130.257 334.297 130.321 334.396 130.347C334.495 130.373 334.6 130.359 334.689 130.309L334.615 130.448Z" fill="#82505C"/>
<path d="M326.983 163.973C327.411 163.742 327.889 163.622 328.374 163.622C328.86 163.622 329.338 163.742 329.765 163.973C330.201 164.214 330.591 163.546 330.164 163.305C329.611 162.997 328.989 162.835 328.356 162.835C327.723 162.835 327.1 162.997 326.548 163.305C326.121 163.546 326.548 164.232 326.946 163.973H326.983Z" fill="#82505C"/>
<path d="M326.074 162.406C327.411 162.111 328.673 161.547 329.784 160.747C329.868 160.692 329.929 160.607 329.955 160.51C329.981 160.412 329.969 160.308 329.923 160.219C329.898 160.174 329.864 160.135 329.824 160.104C329.784 160.073 329.737 160.05 329.688 160.037C329.639 160.024 329.587 160.021 329.537 160.029C329.486 160.036 329.438 160.053 329.394 160.08C328.332 160.844 327.122 161.38 325.842 161.655C325.744 161.685 325.661 161.752 325.611 161.842C325.561 161.932 325.547 162.038 325.574 162.137C325.602 162.235 325.667 162.318 325.755 162.368C325.844 162.418 325.948 162.432 326.046 162.406H326.074Z" fill="#82505C"/>
<path d="M350.065 175.188L350.297 174.974L350.361 174.919C350.401 174.883 350.444 174.852 350.491 174.826C350.669 174.697 350.858 174.586 351.057 174.492L351.205 174.418H351.279L351.576 174.316L351.91 174.233H352.068H352.235C352.336 174.231 352.432 174.19 352.504 174.12C352.577 174.049 352.619 173.954 352.624 173.853C352.624 173.658 352.448 173.436 352.235 173.464C351.212 173.584 350.257 174.036 349.518 174.752C349.481 174.787 349.452 174.83 349.432 174.877C349.412 174.924 349.401 174.974 349.401 175.025C349.401 175.076 349.412 175.127 349.432 175.174C349.452 175.221 349.481 175.263 349.518 175.299C349.59 175.371 349.689 175.411 349.791 175.411C349.894 175.411 349.992 175.371 350.065 175.299V175.188Z" fill="#82505C"/>
<path d="M351.243 171.684L355.314 169.311C355.389 169.254 355.441 169.171 355.46 169.078C355.478 168.984 355.462 168.888 355.414 168.806C355.366 168.724 355.29 168.662 355.2 168.632C355.11 168.603 355.012 168.607 354.924 168.644L350.853 171.017C350.778 171.074 350.726 171.158 350.708 171.251C350.689 171.344 350.705 171.44 350.753 171.522C350.801 171.604 350.877 171.666 350.967 171.696C351.058 171.726 351.155 171.721 351.243 171.684Z" fill="#82505C"/>
<path d="M308.399 66.3176C302.019 71.5915 297.688 78.9137 294.016 86.3287C290.427 93.5768 287.525 102.744 292.263 109.278C294.118 111.79 296.826 113.486 299.58 114.923C307.738 119.185 316.655 121.799 325.824 122.616C328.754 122.875 331.796 122.931 334.513 121.819C337.23 120.706 339.558 118.167 339.595 115.238C339.595 114.098 339.28 112.939 339.595 111.845C340.068 110.066 341.969 109.065 342.795 107.387C343.546 105.876 343.314 104.041 344 102.503C344.788 100.751 346.597 99.722 347.784 98.1926C350.185 95.0969 349.592 90.6942 348.794 86.857C347.654 81.3977 346.318 75.8921 343.675 70.9704C342.415 68.5849 340.809 66.3986 338.909 64.4824C337.203 62.7955 334.699 60.571 332.26 60.0983C331.221 59.8943 330.108 59.95 329.042 59.7924C327.652 59.5826 326.245 59.5112 324.841 59.5792C322.025 59.7429 319.255 60.3692 316.643 61.433C313.656 62.6194 310.874 64.2677 308.399 66.3176Z" fill="#C7D9FF"/>
<path d="M353.283 48.7163C351.586 54.778 345.549 61.3866 340.717 59.3197C336.739 57.6143 334.662 53.4897 336.006 47.3445C338.084 37.7978 344.065 36.5743 348.229 37.7422C352.393 38.91 355.017 42.6546 353.283 48.7163Z" fill="#F9AC7C"/>
<path d="M337.879 47.0109C337.323 49.0129 336.229 51.0427 334.801 50.6349C333.373 50.2271 332.139 47.567 332.705 45.5649C333.271 43.5629 334.884 42.256 336.312 42.6546C337.74 43.0531 338.445 45.0088 337.879 47.0109Z" fill="#F9AC7C"/>
<path d="M349.24 46.8811C348.78 47.5129 348.397 48.1975 348.099 48.9202C347.826 49.6141 347.603 50.3265 347.431 51.052C347.345 51.6264 347.064 52.1535 346.634 52.5443C345.948 53.0262 345.15 52.4423 344.603 52.016C344.334 51.8028 343.945 52.1828 344.223 52.4052C344.509 52.7114 344.865 52.9443 345.261 53.0846C345.656 53.2249 346.079 53.2685 346.495 53.2116C346.792 53.0992 347.059 52.9193 347.275 52.686C347.49 52.4528 347.649 52.1726 347.737 51.8677C348.025 51.154 348.136 50.3754 348.396 49.6432C348.712 48.7575 349.152 47.9212 349.703 47.1592C349.907 46.8718 349.434 46.5938 349.24 46.8811Z" fill="#4F2830"/>
<path d="M342.961 49.8842H342.655C342.136 49.897 341.619 49.8004 341.139 49.6007C340.659 49.4011 340.226 49.1028 339.869 48.7251C339.511 48.3475 339.238 47.8991 339.065 47.4088C338.892 46.9186 338.825 46.3976 338.867 45.8796C338.908 45.3615 339.059 44.8581 339.308 44.4019C339.557 43.9457 339.899 43.5469 340.312 43.2315C340.726 42.916 341.201 42.6909 341.706 42.5708C342.212 42.4506 342.738 42.4381 343.249 42.5341C344.223 42.6077 345.13 43.0628 345.77 43.8004C346.411 44.538 346.735 45.4985 346.671 46.4733C346.592 47.401 346.166 48.2649 345.479 48.8934C344.792 49.5219 343.893 49.869 342.961 49.8656V49.8842ZM342.961 43.0531C342.35 43.0572 341.753 43.2387 341.243 43.5756C340.733 43.9125 340.333 44.3903 340.089 44.9508C339.846 45.5114 339.771 46.1304 339.874 46.7327C339.976 47.335 340.252 47.8946 340.667 48.3432C341.081 48.7919 341.618 49.1104 342.21 49.2599C342.803 49.4095 343.426 49.3836 344.005 49.1855C344.583 48.9873 345.091 48.6255 345.467 48.144C345.843 47.6624 346.071 47.082 346.124 46.4733C346.188 45.6419 345.921 44.8189 345.381 44.1835C344.84 43.5481 344.071 43.1518 343.24 43.0809L342.961 43.0531Z" fill="white"/>
<path d="M353.014 54.1292H352.708C352.224 54.0934 351.753 53.961 351.321 53.7397C350.889 53.5184 350.507 53.2127 350.195 52.8409C349.792 52.378 349.51 51.8224 349.375 51.2239C349.24 50.6254 349.256 50.0027 349.42 49.4117C349.585 48.8207 349.894 48.2798 350.32 47.8375C350.745 47.3952 351.274 47.0654 351.858 46.8777C352.443 46.6899 353.065 46.6501 353.668 46.7617C354.272 46.8733 354.839 47.133 355.317 47.5173C355.796 47.9016 356.171 48.3987 356.41 48.9638C356.649 49.529 356.744 50.1446 356.687 50.7554C356.608 51.6752 356.189 52.5326 355.512 53.1599C354.834 53.7873 353.947 54.1396 353.024 54.1478L353.014 54.1292ZM353.014 47.2982C352.194 47.331 351.42 47.6837 350.858 48.2806C350.295 48.8776 349.989 49.6712 350.006 50.4911C350.022 51.311 350.359 52.0917 350.945 52.6658C351.531 53.2398 352.319 53.5613 353.139 53.5613C353.96 53.5613 354.748 53.2398 355.334 52.6658C355.92 52.0917 356.257 51.311 356.273 50.4911C356.29 49.6712 355.984 48.8776 355.421 48.2806C354.859 47.6837 354.084 47.331 353.265 47.2982H353.014Z" fill="white"/>
<path d="M349.388 49.4578C349.063 47.9562 346.068 48.0211 346.04 48.0118V47.4743C346.179 47.4743 349.508 47.4001 349.935 49.328L349.388 49.4578Z" fill="white"/>
<path d="M339.864 45.0829C339.823 45.082 339.783 45.0725 339.746 45.0549C339.71 45.0373 339.677 45.0121 339.651 44.981L336.47 40.9676C336.241 40.6778 335.939 40.4538 335.596 40.3186C335.252 40.1835 334.878 40.142 334.513 40.1983L333.113 40.43C333.04 40.4407 332.967 40.4224 332.908 40.379C332.848 40.3356 332.809 40.2707 332.798 40.1983C332.791 40.1635 332.792 40.1277 332.799 40.0931C332.807 40.0586 332.822 40.026 332.843 39.9973C332.863 39.9686 332.89 39.9446 332.921 39.9265C332.951 39.9085 332.985 39.8969 333.02 39.8925L334.43 39.6607C334.886 39.5841 335.355 39.6295 335.788 39.7923C336.221 39.9551 336.604 40.2294 336.896 40.5876L340.077 44.6195C340.128 44.6699 340.156 44.7382 340.156 44.8095C340.156 44.8808 340.128 44.9491 340.077 44.9995C340.02 45.0539 339.943 45.0838 339.864 45.0829Z" fill="white"/>
<path d="M335.292 50.088L329.478 62.6564C329.478 62.6564 331.546 69.3576 337.722 68.9962L341.181 56.5112L335.292 50.088Z" fill="#F9AC7C"/>
<path d="M341.19 59.5699C339.786 58.9808 338.56 58.0356 337.633 56.8279C336.706 55.6201 336.11 54.1915 335.904 52.6833C335.839 52.3403 335.311 52.4886 335.376 52.8316C335.605 54.4324 336.25 55.9453 337.245 57.2201C338.241 58.4949 339.553 59.4871 341.051 60.0982C341.376 60.2187 341.524 59.6904 341.19 59.5699Z" fill="#4F2830"/>
<path d="M325.007 129.734C324.945 129.189 324.689 128.685 324.285 128.314C323.882 127.943 323.358 127.73 322.81 127.713C321.711 127.721 320.619 127.896 319.573 128.232C318.038 128.601 316.429 128.524 314.936 128.01C314.2 127.749 313.53 127.331 312.971 126.785C312.412 126.239 311.978 125.579 311.7 124.849C310.216 126.158 308.876 127.622 307.703 129.215C310.133 132.515 312.924 136.417 316.977 136.63C320.844 136.75 324.905 133.525 325.007 129.734Z" fill="#F9AC7C"/>
<path d="M317.979 60.9231C307.778 64.6306 298.3 71.3597 289.945 78.2278C286.922 80.7118 283.945 83.548 282.684 87.2555C281.422 90.963 282.025 95.069 282.99 98.8877C286.45 112.337 293.956 124.401 304.495 133.451C307.757 131.228 310.836 128.748 313.704 126.036C309.132 120.604 305.728 112.624 307.064 105.645C308.112 100.158 311.867 95.6529 315.261 91.2318C318.656 86.8106 321.966 81.7684 321.855 76.1886C321.781 72.8148 320.455 69.6171 319.156 66.5029C318.285 64.4915 318.85 62.9437 317.979 60.9231Z" fill="#C7D9FF"/>
<path d="M322.856 63.1569C321.558 69.645 317.635 75.1135 313.036 79.7479C310.787 82.0189 308.402 84.1515 305.895 86.134C303.039 88.3955 299.812 90.4069 296.065 90.5181C295.629 90.5181 295.629 91.204 296.065 91.1854C299.589 91.0835 302.686 89.4058 305.45 87.3204C308.193 85.2331 310.79 82.96 313.221 80.5172C318.016 75.7438 322.151 70.0899 323.505 63.333C323.589 62.9159 322.94 62.7305 322.856 63.1569Z" fill="#7F9DD3"/>
<path d="M298.643 90.4996C298.88 91.4211 298.79 92.3963 298.387 93.2585C297.984 94.1207 297.295 94.8164 296.436 95.2267C296.046 95.4028 296.436 95.9867 296.779 95.8013C297.764 95.3163 298.552 94.5067 299.01 93.5089C299.468 92.5111 299.567 91.3862 299.292 90.3235C299.269 90.2375 299.212 90.1643 299.135 90.1199C299.057 90.0756 298.966 90.0638 298.88 90.0872C298.793 90.1105 298.72 90.1671 298.676 90.2445C298.631 90.3218 298.62 90.4136 298.643 90.4996Z" fill="#7F9DD3"/>
<path d="M298.096 94.0124C301.204 102.679 304.77 111.175 308.779 119.464C308.974 119.853 309.549 119.511 309.363 119.131C305.376 110.891 301.832 102.444 298.745 93.827C298.597 93.4284 297.948 93.6045 298.096 94.0124Z" fill="#7F9DD3"/>
<path d="M364.828 140.884L317.181 134.544L337.527 104.579L385.174 110.919L364.828 140.884Z" fill="#281419"/>
<path d="M364.29 145.129L306.878 137.483C306.948 136.923 307.128 136.383 307.407 135.893C307.687 135.403 308.061 134.974 308.507 134.629C308.954 134.284 309.464 134.032 310.009 133.885C310.554 133.738 311.122 133.701 311.682 133.775L364.856 140.847L364.29 145.129Z" fill="#281419"/>
<path fill-rule="evenodd" clip-rule="evenodd" d="M88.3943 93.0002C88.3943 93.9296 87.7541 94.7366 86.849 94.9479L80.0924 96.5254C80.0745 96.5295 80.0575 96.516 80.0575 96.4977C80.0575 96.4639 80.0089 96.4582 80.0009 96.491C79.9439 96.7263 79.8855 96.9589 79.8215 97.1909C79.8139 97.2182 79.8531 97.2342 79.8666 97.2093C79.874 97.1957 79.8923 97.1927 79.9036 97.2033L84.9851 101.974C85.6622 102.609 85.8126 103.627 85.3484 104.432L82.7599 108.916C82.2958 109.72 81.3395 110.099 80.4507 109.831L74.1811 107.942C73.9571 107.874 73.7143 107.938 73.5518 108.106C73.3945 108.269 73.3377 108.504 73.4032 108.721L75.2958 114.981C75.5646 115.87 75.1861 116.827 74.3821 117.291L69.8947 119.885C69.0902 120.35 68.0715 120.199 67.4356 119.522L63.2648 115.078C63.0418 114.84 62.7045 114.747 62.3912 114.837C62.088 114.924 61.8556 115.169 61.7842 115.476L60.4052 121.403C60.1944 122.308 59.3872 122.949 58.4572 122.949H53.2864C52.3568 122.949 51.5498 122.309 51.3386 121.404L50.0676 115.953C49.9711 115.54 49.6418 115.221 49.2295 115.119C48.836 115.02 48.4188 115.136 48.1414 115.432L44.3081 119.521C43.6726 120.199 42.6539 120.35 41.8492 119.885L37.3544 117.291C36.5497 116.827 36.1708 115.869 36.4398 114.98L37.9432 110.009C38.0871 109.533 37.9436 109.017 37.5887 108.669C37.2384 108.325 36.7322 108.19 36.262 108.332L31.2843 109.831C30.3955 110.099 29.4393 109.72 28.9753 108.916L26.3865 104.431C25.9224 103.627 26.0726 102.609 26.7493 101.974L30.3364 98.604C30.7371 98.2276 30.8855 97.6592 30.7442 97.128C30.6044 96.6027 30.1934 96.1865 29.6642 96.0625L24.8664 94.9393C23.9619 94.7276 23.3223 93.9209 23.3223 92.992V87.8218C23.3223 86.8929 23.9619 86.0862 24.8664 85.8745L29.6581 84.7527C30.1911 84.6279 30.6044 84.2121 30.7446 83.6829C30.886 83.1497 30.7364 82.5767 30.3339 82.1993L26.7507 78.8395C26.0733 78.2043 25.9222 77.1863 26.386 76.3817L28.9747 71.8913C29.4389 71.086 30.3968 70.7067 31.2865 70.9759L36.2671 72.4826C36.734 72.6239 37.2381 72.4879 37.5851 72.145C37.9402 71.7939 38.0862 71.2775 37.9417 70.7995L36.4398 65.8338C36.1708 64.9445 36.5497 63.987 37.3544 63.5226L41.8492 60.9283C42.6539 60.4639 43.6726 60.6148 44.3081 61.2928L48.1414 65.3821C48.4188 65.678 48.836 65.7934 49.2295 65.6952C49.6418 65.5924 49.9711 65.2742 50.0676 64.8605L51.3386 59.4103C51.5498 58.505 52.3568 57.8645 53.2864 57.8645H58.4572C59.3872 57.8645 60.1944 58.5055 60.4052 59.4113L61.7842 65.3379C61.8556 65.6451 62.0879 65.8895 62.3912 65.9765C62.7045 66.0664 63.0418 65.9735 63.2648 65.7358L67.4264 61.3014C68.0622 60.6238 69.081 60.4734 69.8855 60.9384L74.3724 63.5314C75.1766 63.9962 75.555 64.9534 75.2859 65.8424L73.3939 72.0938C73.3283 72.3104 73.384 72.5455 73.5399 72.7096C73.7037 72.8821 73.9508 72.9475 74.1786 72.8787L80.4394 70.985C81.3291 70.7159 82.2869 71.0952 82.7512 71.9005L85.3397 76.3907C85.8036 77.1954 85.6524 78.2136 84.9747 78.8488L79.8949 83.61C79.8832 83.621 79.8644 83.6181 79.8566 83.6042C79.8421 83.5787 79.8021 83.5955 79.8099 83.6237C79.8748 83.8585 79.934 84.0939 79.9917 84.3321C79.9996 84.3649 80.0482 84.3592 80.0482 84.3254C80.0482 84.3071 80.0653 84.2936 80.0831 84.2978L86.8506 85.8835C87.7549 86.0954 88.3943 86.902 88.3943 87.8308V93.0002ZM69.8491 104.942C73.7066 101.087 75.877 95.8594 75.8844 90.4069C75.877 84.9544 73.7066 79.7273 69.8491 75.8718C65.9916 72.0163 60.7618 69.847 55.3065 69.8397C49.8512 69.847 44.6214 72.0163 40.7639 75.8718C36.9064 79.7273 34.736 84.9544 34.7286 90.4069C34.7336 95.8602 36.9032 101.089 40.7612 104.945C44.6192 108.801 49.8504 110.969 55.3065 110.974C60.7618 110.967 65.9916 108.798 69.8491 104.942ZM61.2477 77.1684C68.5651 80.1649 72.0666 88.5229 69.0685 95.8365C66.0704 103.15 57.708 106.65 50.3907 103.653C43.0733 100.657 39.5718 92.2987 42.5699 84.9851C45.568 77.6715 53.9303 74.1718 61.2477 77.1684Z" fill="url(#paint5_linear_314_4075)"/>
<path fill-rule="evenodd" clip-rule="evenodd" d="M154.599 79.6245C154.599 80.5586 153.952 81.3683 153.041 81.5749L148.982 82.4958C148.971 82.4983 148.961 82.4899 148.961 82.4785C148.961 82.4573 148.928 82.4537 148.923 82.4744C148.885 82.6365 148.841 82.795 148.796 82.9501C148.79 82.9702 148.818 82.9823 148.829 82.9644C148.834 82.9547 148.848 82.9528 148.856 82.9606L151.935 85.8366C152.615 86.4719 152.767 87.4925 152.301 88.2985L151.05 90.4646C150.586 91.2674 149.632 91.6462 148.744 91.38L144.946 90.2413C144.792 90.195 144.625 90.2395 144.514 90.3563C144.408 90.4678 144.37 90.6276 144.415 90.7748L145.551 94.5244C145.821 95.4135 145.443 96.3711 144.638 96.8361L142.478 98.0854C141.674 98.5501 140.656 98.4007 140.02 97.7247L137.531 95.0797C137.381 94.9206 137.154 94.8643 136.944 94.9247C136.74 94.9834 136.578 95.1439 136.53 95.3507L135.707 98.8802C135.496 99.7856 134.689 100.426 133.759 100.426H131.259C130.329 100.426 129.522 99.7859 129.311 98.8806L128.569 95.6969C128.501 95.4051 128.255 95.1804 127.964 95.1094C127.689 95.0423 127.408 95.1246 127.214 95.3314L124.971 97.7214C124.335 98.3991 123.316 98.5494 122.511 98.0843L120.35 96.8344C119.547 96.3702 119.168 95.4148 119.435 94.5267L120.303 91.6431C120.401 91.3186 120.3 90.968 120.059 90.7304C119.825 90.5009 119.487 90.4106 119.174 90.505L116.276 91.3776C115.388 91.6452 114.432 91.2664 113.968 90.4629L112.721 88.3039C112.254 87.4955 112.408 86.4715 113.093 85.8368L115.183 83.8993C115.457 83.6452 115.558 83.2604 115.457 82.9005C115.358 82.5465 115.08 82.2624 114.722 82.1789L111.966 81.5358C111.06 81.3246 110.42 80.5176 110.42 79.5881V77.087C110.42 76.1588 111.059 75.3526 111.962 75.1401L114.725 74.4904C115.082 74.4065 115.359 74.1272 115.457 73.7741C115.557 73.4127 115.456 73.0229 115.181 72.7679L113.093 70.832C112.408 70.1973 112.254 69.1733 112.721 68.3649L113.966 66.2083C114.431 65.4036 115.389 65.0251 116.278 65.2946L119.165 66.1694C119.484 66.266 119.827 66.1766 120.063 65.9421C120.303 65.7041 120.401 65.3523 120.304 65.0285L119.435 62.1421C119.168 61.2539 119.547 60.2986 120.35 59.8344L122.511 58.5845C123.316 58.1193 124.335 58.2697 124.971 58.9473L127.215 61.3386C127.409 61.5454 127.708 61.6267 127.984 61.5597C128.277 61.4885 128.501 61.264 128.569 60.9705L129.311 57.7967C129.522 56.8918 130.329 56.2517 131.258 56.2517H133.723C134.652 56.2517 135.459 56.892 135.671 57.7971L136.493 61.319C136.541 61.5267 136.698 61.6919 136.903 61.7508C137.115 61.8117 137.343 61.7491 137.494 61.5886L139.983 58.9441C140.619 58.2681 141.637 58.1187 142.44 58.5833L144.605 59.8349C145.408 60.2989 145.786 61.2535 145.52 62.1413L144.376 65.9533C144.332 66.0977 144.373 66.2533 144.477 66.3617C144.59 66.4784 144.758 66.5283 144.913 66.4815L148.705 65.3382C149.594 65.0702 150.55 65.4489 151.014 66.2526L152.265 68.4183C152.73 69.2235 152.579 70.243 151.9 70.8786L148.819 73.7637C148.811 73.7714 148.798 73.7693 148.792 73.7595C148.782 73.7415 148.754 73.753 148.76 73.7728C148.805 73.9318 148.849 74.0907 148.887 74.2497C148.892 74.2699 148.923 74.2664 148.923 74.2456C148.923 74.2344 148.934 74.2261 148.945 74.2287L153.054 75.1883C153.959 75.3996 154.599 76.2065 154.599 77.1359V79.6245ZM141.981 88.2502C144.599 85.6335 146.072 82.0859 146.076 78.3854C146.072 74.6848 144.599 71.1372 141.981 68.5205C139.363 65.9038 135.813 64.4316 132.111 64.4267C128.407 64.4292 124.857 65.9006 122.238 68.5178C119.619 71.135 118.147 74.684 118.145 78.3854C118.15 82.0859 119.623 85.6335 122.241 88.2502C124.859 90.8669 128.408 92.3391 132.111 92.344C135.813 92.3391 139.363 90.8669 141.981 88.2502ZM142.209 78.3761C142.209 83.7407 137.858 88.0897 132.491 88.0897C127.123 88.0897 122.772 83.7407 122.772 78.3761C122.772 73.0114 127.123 68.6625 132.491 68.6625C137.858 68.6625 142.209 73.0114 142.209 78.3761Z" fill="url(#paint6_linear_314_4075)"/>
<path d="M289.778 333.729C285.244 321.476 288.174 324.414 275.868 319.872C288.128 315.33 285.142 318.269 289.778 305.969C294.322 318.222 291.383 315.284 303.642 319.872C291.383 324.414 294.322 321.476 289.778 333.729Z" fill="white"/>
<path d="M297.521 308.963C294.359 300.436 296.399 302.475 287.877 299.323C296.399 296.163 294.368 298.202 297.521 289.675C300.684 298.202 298.634 296.163 307.166 299.323C298.634 302.475 300.684 300.436 297.521 308.963Z" fill="white"/>
<path d="M110.567 331.402C108.62 326.147 109.881 327.408 104.623 325.461C109.881 323.505 108.62 324.766 110.567 319.511C112.515 324.766 111.263 323.505 116.521 325.461C111.263 327.408 112.524 326.147 110.567 331.402Z" fill="white"/>
<path d="M84.7692 305.812C81.8295 297.887 83.7306 299.778 75.8018 296.849C83.7306 293.911 81.8295 295.811 84.7692 287.886C87.6996 295.811 85.8078 293.911 93.7367 296.849C85.8078 299.778 87.6996 297.887 84.7692 305.812Z" fill="white"/>
<path d="M176.039 161.146C173.099 153.221 175 155.121 167.071 152.183C175 149.245 173.099 151.145 176.039 143.22C178.969 151.145 177.077 149.245 184.997 152.183C177.068 155.121 178.96 153.221 176.039 161.146Z" fill="white"/>
<path d="M160.709 168.885C158.854 163.88 160.051 165.076 155.043 163.222C160.051 161.368 158.854 162.564 160.709 157.559C162.564 162.564 161.367 161.368 166.375 163.222C161.367 165.113 162.564 163.88 160.709 168.885Z" fill="white"/>
<defs>
<linearGradient id="paint0_linear_314_4075" x1="186.581" y1="11.1289" x2="186.581" y2="119.226" gradientUnits="userSpaceOnUse">
<stop stop-color="#A3A3FF"/>
<stop offset="1" stop-color="#1F1FFF"/>
</linearGradient>
<linearGradient id="paint1_linear_314_4075" x1="382.434" y1="293.838" x2="382.434" y2="319.66" gradientUnits="userSpaceOnUse">
<stop stop-color="#A3A3FF"/>
<stop offset="1" stop-color="#1F1FFF"/>
</linearGradient>
<linearGradient id="paint2_linear_314_4075" x1="352.226" y1="345.509" x2="352.226" y2="371.332" gradientUnits="userSpaceOnUse">
<stop stop-color="#A3A3FF"/>
<stop offset="1" stop-color="#1F1FFF"/>
</linearGradient>
<linearGradient id="paint3_linear_314_4075" x1="106.988" y1="-0.00420953" x2="106.988" y2="154.06" gradientUnits="userSpaceOnUse">
<stop stop-color="#A3A3FF"/>
<stop offset="1" stop-color="#1F1FFF"/>
</linearGradient>
<linearGradient id="paint4_linear_314_4075" x1="264.438" y1="11.1322" x2="264.438" y2="119.226" gradientUnits="userSpaceOnUse">
<stop stop-color="#A3A3FF"/>
<stop offset="1" stop-color="#1F1FFF"/>
</linearGradient>
<linearGradient id="paint5_linear_314_4075" x1="55.8577" y1="57.8627" x2="55.8577" y2="122.951" gradientUnits="userSpaceOnUse">
<stop stop-color="#A3A3FF"/>
<stop offset="1" stop-color="#1F1FFF"/>
</linearGradient>
<linearGradient id="paint6_linear_314_4075" x1="132.509" y1="56.2505" x2="132.509" y2="100.428" gradientUnits="userSpaceOnUse">
<stop stop-color="#A3A3FF"/>
<stop offset="1" stop-color="#1F1FFF"/>
</linearGradient>
</defs>
</svg>
