<svg width="522" height="404" viewBox="0 0 522 404" fill="none" xmlns="http://www.w3.org/2000/svg">
<g clip-path="url(#clip0_314_4432)">
<path d="M226.082 33.759V25.966H220.31C220.055 24.4673 219.65 22.9962 219.102 21.5732L224.1 18.7749L220.082 12.0696L215.094 14.8679C214.114 13.7116 213.02 12.6506 211.827 11.7L214.669 6.78978L207.711 2.89328L204.825 7.74015C203.361 7.20907 201.848 6.81654 200.306 6.56803V0.971436H192.269V6.56803C190.731 6.81656 189.221 7.2091 187.761 7.74015L184.875 2.89328L177.917 6.78978L180.791 11.6261C179.601 12.5794 178.508 13.6401 177.524 14.794L172.493 12.0696L168.486 18.8172L173.484 21.5732C172.932 22.9912 172.527 24.4593 172.276 25.9555H166.493V33.7485H172.276C172.527 35.2412 172.932 36.7058 173.484 38.1201L168.486 40.9184L172.493 47.666L177.481 44.8783C178.467 46.0296 179.561 47.0901 180.748 48.0462L177.873 52.8825L184.831 56.779L187.717 51.9215C189.177 52.4561 190.687 52.8521 192.226 53.1042V58.7008H200.262V53.1042C201.804 52.8522 203.318 52.4561 204.782 51.9215L207.667 56.779L214.626 52.8825L211.74 48.0462C212.93 47.0929 214.024 46.0321 215.007 44.8783L219.994 47.666L224.013 40.9184L219.014 38.1201C219.562 36.7042 219.967 35.2401 220.223 33.7485L226.082 33.759ZM215.192 29.8625C215.192 33.4923 214.082 37.0406 212.002 40.0587C209.923 43.0767 206.967 45.429 203.509 46.8181C200.05 48.2072 196.245 48.5706 192.573 47.8625C188.902 47.1543 185.53 45.4064 182.883 42.8398C180.236 40.2731 178.433 37.003 177.703 33.4429C176.973 29.8829 177.348 26.1928 178.78 22.8393C180.213 19.4858 182.638 16.6195 185.751 14.6029C188.863 12.5863 192.522 11.5099 196.266 11.5099C198.756 11.5044 201.223 11.9748 203.525 12.8944C205.828 13.8139 207.921 15.1646 209.685 16.869C211.448 18.5735 212.848 20.5984 213.805 22.8279C214.761 25.0574 215.255 27.4479 215.257 29.8625H215.192Z" fill="#DFEAFC"/>
<path d="M209.374 32.8349C211.07 25.8288 206.588 18.816 199.363 17.1714C192.138 15.5269 184.906 19.8733 183.21 26.8794C181.514 33.8856 185.996 40.8984 193.221 42.5429C200.446 44.1875 207.678 39.8411 209.374 32.8349Z" fill="#DFEAFC"/>
<path d="M461.845 284.507V280.358H458.774C458.645 279.563 458.429 278.785 458.131 278.034L460.788 276.546L458.61 272.955L455.964 274.434C455.435 273.813 454.844 273.243 454.2 272.734L455.725 270.157L452.022 268.045L450.487 270.622C449.71 270.342 448.908 270.134 448.091 269.999V267.021H443.811V269.999C442.994 270.134 442.192 270.342 441.415 270.622L439.869 268.045L436.177 270.157L437.702 272.734C437.058 273.243 436.468 273.813 435.938 274.434L433.292 272.955L431.114 276.546L433.782 278.034C433.484 278.785 433.268 279.563 433.139 280.358H430.068V284.507H433.139C433.27 285.305 433.485 286.087 433.782 286.841L431.114 288.33L433.292 291.92L435.938 290.431C436.47 291.053 437.061 291.626 437.702 292.142L436.177 294.708L439.869 296.82L441.415 294.233C442.19 294.52 442.993 294.733 443.811 294.866V297.844H448.091V294.866C448.909 294.733 449.712 294.52 450.487 294.233L452.022 296.82L455.725 294.708L454.2 292.142C454.841 291.626 455.432 291.053 455.964 290.431L458.61 291.92L460.788 288.33L458.099 286.852C458.395 286.097 458.61 285.315 458.741 284.518L461.845 284.507ZM456.062 282.396C456.062 284.327 455.471 286.216 454.365 287.822C453.258 289.428 451.685 290.68 449.844 291.42C448.003 292.159 445.978 292.352 444.024 291.975C442.07 291.599 440.275 290.668 438.866 289.302C437.458 287.936 436.498 286.196 436.11 284.301C435.721 282.406 435.92 280.442 436.683 278.658C437.445 276.873 438.736 275.347 440.393 274.274C442.049 273.201 443.997 272.628 445.989 272.628C447.317 272.628 448.631 272.882 449.857 273.376C451.082 273.871 452.195 274.595 453.131 275.507C454.067 276.42 454.808 277.503 455.311 278.694C455.814 279.885 456.069 281.161 456.062 282.448V282.396Z" fill="#DFEAFC"/>
<path d="M453.144 282.448C453.144 283.821 452.724 285.162 451.938 286.303C451.152 287.444 450.035 288.333 448.727 288.858C447.42 289.383 445.982 289.52 444.594 289.253C443.206 288.985 441.931 288.324 440.93 287.354C439.93 286.384 439.248 285.148 438.972 283.802C438.696 282.456 438.838 281.061 439.38 279.793C439.921 278.526 440.838 277.442 442.015 276.68C443.191 275.918 444.574 275.511 445.99 275.511C447.887 275.511 449.707 276.242 451.049 277.543C452.39 278.844 453.144 280.608 453.144 282.448Z" fill="#DFEAFC"/>
<path d="M260.995 403.989C405.138 403.989 521.989 393.877 521.989 381.402C521.989 368.928 405.138 358.815 260.995 358.815C116.851 358.815 0 368.928 0 381.402C0 393.877 116.851 403.989 260.995 403.989Z" fill="#DFEAFC"/>
<path d="M51.5199 139.218H29.7295V377.485H51.5199V139.218Z" fill="#DFEAFC"/>
<path d="M88.8382 208.109H67.0479V377.485H88.8382V208.109Z" fill="#DFEAFC"/>
<path d="M126.147 250.062H104.356V377.485H126.147V250.062Z" fill="#DFEAFC"/>
<path d="M163.455 149.894H141.665V377.485H163.455V149.894Z" fill="#DFEAFC"/>
<path d="M200.774 178.045H178.983V377.485H200.774V178.045Z" fill="#DFEAFC"/>
<path d="M275.402 217.676H253.611V377.495H275.402V217.676Z" fill="#DFEAFC"/>
<path d="M312.71 230.157H290.92V377.485H312.71V230.157Z" fill="#DFEAFC"/>
<path d="M350.018 264.603H328.228V377.495H350.018V264.603Z" fill="#DFEAFC"/>
<path d="M387.337 307.052H365.547V377.485H387.337V307.052Z" fill="#DFEAFC"/>
<path d="M424.646 321.044H402.855V377.485H424.646V321.044Z" fill="#DFEAFC"/>
<path d="M461.965 336.947H440.175V377.495H461.965V336.947Z" fill="#DFEAFC"/>
<path d="M499.273 345.025H477.482V377.495H499.273V345.025Z" fill="#DFEAFC"/>
<path d="M471.167 171.52C470.001 171.586 468.834 171.404 467.749 170.987C466.663 170.569 465.685 169.925 464.884 169.102C463.325 167.302 462.527 164.997 462.651 162.65V154.973C462.49 152.612 463.244 150.277 464.764 148.426C466.216 146.905 468.35 146.145 471.167 146.145C473.984 146.145 476.125 146.905 477.592 148.426C479.116 150.276 479.873 152.61 479.715 154.973V162.65C479.839 164.997 479.042 167.302 477.483 169.102C476.677 169.928 475.693 170.573 474.602 170.99C473.511 171.408 472.338 171.589 471.167 171.52ZM471.167 165.987C471.439 165.992 471.709 165.941 471.958 165.838C472.208 165.734 472.432 165.579 472.615 165.385C473.004 164.982 473.216 164.447 473.203 163.896V153.568C473.232 152.895 473.106 152.224 472.833 151.604C472.583 151.129 472.027 150.886 471.167 150.886C470.85 150.843 470.526 150.888 470.235 151.017C469.944 151.146 469.696 151.354 469.523 151.615C469.244 152.23 469.114 152.898 469.142 153.568V163.843C469.129 164.395 469.34 164.929 469.73 165.332C469.909 165.531 470.129 165.691 470.377 165.8C470.625 165.909 470.895 165.966 471.167 165.965V165.987ZM476.122 182.681L487.883 145.343H494.95L483.146 182.66L476.122 182.681ZM499.437 183.061C498.271 183.127 497.105 182.944 496.019 182.526C494.934 182.108 493.956 181.466 493.153 180.643C491.591 178.841 490.79 176.532 490.91 174.181V166.515C490.76 164.144 491.538 161.806 493.088 159.968C494.489 158.44 496.624 157.676 499.491 157.676C502.359 157.676 504.497 158.44 505.905 159.968C507.436 161.814 508.194 164.151 508.029 166.515V174.181C508.152 176.531 507.355 178.839 505.796 180.643C504.987 181.465 504.002 182.105 502.912 182.519C501.821 182.933 500.65 183.111 499.48 183.04L499.437 183.061ZM499.437 177.518C499.707 177.522 499.974 177.47 500.222 177.366C500.47 177.263 500.692 177.109 500.874 176.916C501.263 176.513 501.474 175.979 501.462 175.427V165.184C501.496 164.51 501.37 163.838 501.092 163.22C500.842 162.734 500.297 162.502 499.437 162.502C499.119 162.457 498.796 162.502 498.504 162.631C498.212 162.76 497.965 162.968 497.792 163.23C497.513 163.845 497.382 164.513 497.411 165.184V175.448C497.399 176 497.61 176.534 497.999 176.937C498.19 177.128 498.421 177.277 498.677 177.374C498.932 177.47 499.207 177.512 499.48 177.497L499.437 177.518Z" fill="#0D7046"/>
<path d="M471.167 171.52C470.001 171.586 468.834 171.404 467.749 170.987C466.663 170.569 465.685 169.925 464.884 169.102C463.325 167.302 462.527 164.997 462.651 162.65V154.973C462.49 152.612 463.244 150.277 464.764 148.426C466.216 146.905 468.35 146.145 471.167 146.145C473.984 146.145 476.125 146.905 477.592 148.426C479.116 150.276 479.873 152.61 479.715 154.973V162.65C479.839 164.997 479.042 167.302 477.483 169.102C476.677 169.928 475.693 170.573 474.602 170.99C473.511 171.408 472.338 171.589 471.167 171.52ZM471.167 165.987C471.439 165.992 471.709 165.941 471.958 165.838C472.208 165.734 472.432 165.579 472.615 165.385C473.004 164.982 473.216 164.447 473.203 163.896V153.568C473.232 152.895 473.106 152.224 472.833 151.604C472.583 151.129 472.027 150.886 471.167 150.886C470.85 150.843 470.526 150.888 470.235 151.017C469.944 151.146 469.696 151.354 469.523 151.615C469.244 152.23 469.114 152.898 469.142 153.568V163.843C469.129 164.395 469.34 164.929 469.73 165.332C469.909 165.531 470.129 165.691 470.377 165.8C470.625 165.909 470.895 165.966 471.167 165.965V165.987ZM476.122 182.681L487.883 145.343H494.95L483.146 182.66L476.122 182.681ZM499.437 183.061C498.271 183.127 497.105 182.944 496.019 182.526C494.934 182.108 493.956 181.466 493.153 180.643C491.591 178.841 490.79 176.532 490.91 174.181V166.515C490.76 164.144 491.538 161.806 493.088 159.968C494.489 158.44 496.624 157.676 499.491 157.676C502.359 157.676 504.497 158.44 505.905 159.968C507.436 161.814 508.194 164.151 508.029 166.515V174.181C508.152 176.531 507.355 178.839 505.796 180.643C504.987 181.465 504.002 182.105 502.912 182.519C501.821 182.933 500.65 183.111 499.48 183.04L499.437 183.061ZM499.437 177.518C499.707 177.522 499.974 177.47 500.222 177.366C500.47 177.263 500.692 177.109 500.874 176.916C501.263 176.513 501.474 175.979 501.462 175.427V165.184C501.496 164.51 501.37 163.838 501.092 163.22C500.842 162.734 500.297 162.502 499.437 162.502C499.119 162.457 498.796 162.502 498.504 162.631C498.212 162.76 497.965 162.968 497.792 163.23C497.513 163.845 497.382 164.513 497.411 165.184V175.448C497.399 176 497.61 176.534 497.999 176.937C498.19 177.128 498.421 177.277 498.677 177.374C498.932 177.47 499.207 177.512 499.48 177.497L499.437 177.518Z" fill="url(#paint0_linear_314_4432)"/>
<path d="M31.8848 38.9016C30.7189 38.9682 29.5521 38.7862 28.4665 38.3684C27.3809 37.9506 26.4029 37.3072 25.6014 36.4835C24.0401 34.6812 23.2422 32.3716 23.369 30.021V22.3547C23.2081 19.9935 23.9614 17.6589 25.4816 15.8078C26.89 14.2872 29.0244 13.5269 31.8848 13.5269C34.7452 13.5269 36.8868 14.2872 38.3097 15.8078C39.8533 17.6498 40.6303 19.9852 40.4877 22.3547V30.021C40.6062 32.3673 39.8092 34.6708 38.2553 36.4729C37.4438 37.3081 36.4518 37.959 35.3504 38.3789C34.2491 38.7988 33.0656 38.9773 31.8848 38.9016ZM31.8848 33.3684C32.1547 33.3725 32.4224 33.321 32.6702 33.2172C32.918 33.1134 33.1403 32.9598 33.3222 32.7665C33.7113 32.3638 33.9224 31.8293 33.9103 31.2776V21.0031C33.9424 20.3296 33.8158 19.6579 33.54 19.039C33.3005 18.5638 32.7451 18.321 31.8848 18.321C31.5676 18.2774 31.2441 18.3229 30.9527 18.452C30.6613 18.5811 30.4141 18.7885 30.2404 19.0496C29.9618 19.6642 29.8315 20.3323 29.8593 21.0031V31.2776C29.8472 31.8293 30.0582 32.3638 30.4473 32.7665C30.6293 32.9598 30.8516 33.1134 31.0994 33.2172C31.3472 33.321 31.6149 33.3725 31.8848 33.3684ZM36.8396 50.0843L48.6441 12.7244H55.7007L43.8744 50.0843H36.8396ZM60.1546 50.4644C58.9872 50.5289 57.8194 50.346 56.7324 49.9284C55.6454 49.5108 54.6653 48.8685 53.8603 48.0462C52.3262 46.2321 51.549 43.9263 51.6823 41.5838V33.9175C51.5214 31.5562 52.2747 29.2217 53.795 27.3705C55.1779 25.7972 57.2906 25.058 60.1546 25.058C63.0186 25.058 65.153 25.8288 66.5686 27.3494C68.1189 29.1879 68.8967 31.526 68.7466 33.8964V41.5626C68.8852 43.9058 68.1075 46.2136 66.5686 48.0251C65.7499 48.8624 64.7502 49.5134 63.6412 49.9315C62.5322 50.3496 61.3415 50.5244 60.1546 50.4433V50.4644ZM60.1546 44.9312C60.4252 44.9333 60.6932 44.8798 60.9409 44.7742C61.1887 44.6687 61.4106 44.5134 61.592 44.3187C61.9811 43.916 62.1922 43.3815 62.1801 42.8298V32.5659C62.2088 31.8926 62.0823 31.2216 61.8098 30.6018C61.5593 30.116 61.004 29.8837 60.1546 29.8837C59.8371 29.8375 59.5127 29.8817 59.2207 30.0111C58.9288 30.1405 58.6819 30.3494 58.5102 30.6123C58.2247 31.2248 58.094 31.8946 58.1291 32.5659V42.8298C58.1169 43.3815 58.328 43.916 58.7171 44.3187C58.9005 44.5096 59.1233 44.6609 59.3709 44.7628C59.6186 44.8646 59.8856 44.9148 60.1546 44.91V44.9312Z" fill="#0D7046"/>
<path d="M31.8848 38.9016C30.7189 38.9682 29.5521 38.7862 28.4665 38.3684C27.3809 37.9506 26.4029 37.3072 25.6014 36.4835C24.0401 34.6812 23.2422 32.3716 23.369 30.021V22.3547C23.2081 19.9935 23.9614 17.6589 25.4816 15.8078C26.89 14.2872 29.0244 13.5269 31.8848 13.5269C34.7452 13.5269 36.8868 14.2872 38.3097 15.8078C39.8533 17.6498 40.6303 19.9852 40.4877 22.3547V30.021C40.6062 32.3673 39.8092 34.6708 38.2553 36.4729C37.4438 37.3081 36.4518 37.959 35.3504 38.3789C34.2491 38.7988 33.0656 38.9773 31.8848 38.9016ZM31.8848 33.3684C32.1547 33.3725 32.4224 33.321 32.6702 33.2172C32.918 33.1134 33.1403 32.9598 33.3222 32.7665C33.7113 32.3638 33.9224 31.8293 33.9103 31.2776V21.0031C33.9424 20.3296 33.8158 19.6579 33.54 19.039C33.3005 18.5638 32.7451 18.321 31.8848 18.321C31.5676 18.2774 31.2441 18.3229 30.9527 18.452C30.6613 18.5811 30.4141 18.7885 30.2404 19.0496C29.9618 19.6642 29.8315 20.3323 29.8593 21.0031V31.2776C29.8472 31.8293 30.0582 32.3638 30.4473 32.7665C30.6293 32.9598 30.8516 33.1134 31.0994 33.2172C31.3472 33.321 31.6149 33.3725 31.8848 33.3684ZM36.8396 50.0843L48.6441 12.7244H55.7007L43.8744 50.0843H36.8396ZM60.1546 50.4644C58.9872 50.5289 57.8194 50.346 56.7324 49.9284C55.6454 49.5108 54.6653 48.8685 53.8603 48.0462C52.3262 46.2321 51.549 43.9263 51.6823 41.5838V33.9175C51.5214 31.5562 52.2747 29.2217 53.795 27.3705C55.1779 25.7972 57.2906 25.058 60.1546 25.058C63.0186 25.058 65.153 25.8288 66.5686 27.3494C68.1189 29.1879 68.8967 31.526 68.7466 33.8964V41.5626C68.8852 43.9058 68.1075 46.2136 66.5686 48.0251C65.7499 48.8624 64.7502 49.5134 63.6412 49.9315C62.5322 50.3496 61.3415 50.5244 60.1546 50.4433V50.4644ZM60.1546 44.9312C60.4252 44.9333 60.6932 44.8798 60.9409 44.7742C61.1887 44.6687 61.4106 44.5134 61.592 44.3187C61.9811 43.916 62.1922 43.3815 62.1801 42.8298V32.5659C62.2088 31.8926 62.0823 31.2216 61.8098 30.6018C61.5593 30.116 61.004 29.8837 60.1546 29.8837C59.8371 29.8375 59.5127 29.8817 59.2207 30.0111C58.9288 30.1405 58.6819 30.3494 58.5102 30.6123C58.2247 31.2248 58.094 31.8946 58.1291 32.5659V42.8298C58.1169 43.3815 58.328 43.916 58.7171 44.3187C58.9005 44.5096 59.1233 44.6609 59.3709 44.7628C59.6186 44.8646 59.8856 44.9148 60.1546 44.91V44.9312Z" fill="url(#paint1_linear_314_4432)"/>
<path d="M320.105 339.206C318.939 339.271 317.773 339.088 316.687 338.67C315.602 338.252 314.624 337.61 313.821 336.788C312.263 334.984 311.465 332.676 311.589 330.326V322.659C311.428 320.298 312.181 317.963 313.701 316.112C315.11 314.578 317.244 313.814 320.105 313.821C322.965 313.828 325.107 314.592 326.529 316.112C328.06 317.958 328.818 320.296 328.653 322.659V330.326C328.771 332.675 327.974 334.982 326.421 336.788C325.612 337.612 324.628 338.255 323.538 338.673C322.447 339.09 321.275 339.272 320.105 339.206ZM320.105 333.662C320.374 333.666 320.642 333.615 320.89 333.511C321.138 333.407 321.36 333.254 321.542 333.06C321.931 332.658 322.142 332.123 322.13 331.572V321.308C322.164 320.634 322.037 319.962 321.76 319.344C321.52 318.858 320.965 318.625 320.105 318.625C319.787 318.581 319.463 318.625 319.172 318.755C318.88 318.884 318.633 319.092 318.46 319.354C318.18 319.968 318.05 320.637 318.079 321.308V331.572C318.076 331.851 318.13 332.129 318.239 332.388C318.347 332.647 318.507 332.883 318.711 333.082C318.89 333.266 319.106 333.412 319.345 333.512C319.585 333.612 319.844 333.663 320.105 333.662ZM325.048 350.357L336.82 313.018H343.877L332.094 350.357H325.048ZM348.374 350.737C347.207 350.804 346.038 350.622 344.951 350.204C343.864 349.787 342.884 349.143 342.08 348.319C340.546 346.509 339.768 344.207 339.902 341.867V334.201C339.738 331.836 340.492 329.497 342.015 327.643C343.43 326.123 345.568 325.362 348.429 325.362C351.289 325.362 353.427 326.123 354.843 327.643C356.37 329.496 357.127 331.835 356.966 334.201V341.867C357.09 344.214 356.293 346.52 354.734 348.319C353.923 349.151 352.932 349.799 351.833 350.217C350.733 350.635 349.553 350.813 348.374 350.737ZM348.374 345.204C348.644 345.208 348.912 345.157 349.16 345.053C349.408 344.949 349.63 344.795 349.812 344.602C350.201 344.199 350.412 343.665 350.4 343.113V332.839C350.426 332.166 350.3 331.495 350.03 330.875C349.853 330.615 349.603 330.409 349.31 330.282C349.017 330.155 348.692 330.111 348.374 330.157C348.057 330.11 347.732 330.155 347.44 330.284C347.149 330.413 346.902 330.622 346.73 330.885C346.444 331.498 346.314 332.167 346.349 332.839V343.113C346.337 343.665 346.548 344.199 346.937 344.602C347.119 344.795 347.341 344.949 347.589 345.053C347.837 345.157 348.104 345.208 348.374 345.204Z" fill="url(#paint2_linear_314_4432)"/>
<path d="M219.972 373.272C219.972 373.272 218.535 386.629 218.949 388.382C219.363 390.135 262.214 389.438 262.214 389.438C262.214 389.438 261.386 381.445 240.151 376.767C218.916 372.089 219.972 373.272 219.972 373.272Z" fill="#4F2830"/>
<path d="M262.617 373.863C262.617 373.863 261.18 387.221 261.593 388.984C262.007 390.748 304.858 390.04 304.858 390.04C304.858 390.04 304.031 382.047 282.796 377.369C261.561 372.691 262.617 373.863 262.617 373.863Z" fill="#4F2830"/>
<path fill-rule="evenodd" clip-rule="evenodd" d="M296.081 247.148C293.84 223.853 290.277 200.696 285.409 177.782C284.964 175.678 283.365 174.361 281.695 172.987C281.077 172.478 280.449 171.961 279.867 171.393C274.356 166.177 266.265 162.449 258.991 164.909C256.053 165.926 253.631 167.848 251.778 170.262C251.456 170.156 251.122 170.082 250.78 170.041C236.22 166.926 217.533 178.806 217.631 193.241L218.056 256.218C218.121 266.355 218.187 276.514 217.316 286.609C217.073 289.444 216.757 292.276 216.441 295.107C215.763 301.184 215.086 307.258 215.138 313.367C215.179 319.249 215.821 334.435 216.424 348.688C216.928 360.608 217.404 371.876 217.479 376.503C223.087 377.865 233.944 377.875 239.465 376.186C241.74 353.904 244.701 331.296 247.677 308.568C251.184 281.787 254.712 254.84 257.166 228.065C257.88 231.182 258.587 234.312 259.294 237.442C262.175 250.193 265.057 262.951 268.356 274.867C267.038 274.814 266.537 276.641 267.038 277.813C267.224 278.248 267.482 278.658 267.739 279.067C268.175 279.76 268.607 280.448 268.683 281.245C268.676 282.273 268.383 283.28 267.833 284.159C262.617 294.761 262.639 306.968 262.759 318.71C262.857 328.24 262.135 337.923 261.414 347.606C260.692 357.29 259.971 366.973 260.069 376.503C262.934 376.503 267.08 376.751 271.225 376.999C275.365 377.247 279.503 377.495 282.36 377.495C282.628 374.754 282.895 371.99 283.164 369.206C285.48 345.203 287.929 319.82 292.564 296.514C292.861 295.007 293.167 293.502 293.473 291.996C294.961 284.668 296.45 277.339 296.92 269.893C297.245 262.302 296.964 254.697 296.081 247.148Z" fill="url(#paint3_linear_314_4432)"/>
<path d="M257.945 228.457C259.263 216.292 260.842 203.114 269.216 193.368C269.575 192.945 268.955 192.312 268.595 192.766C260.047 202.713 258.413 215.997 257.063 228.457C256.998 229.006 257.88 229.006 257.945 228.457Z" fill="#C95B72"/>
<path d="M268.52 201.403L271.634 200.347C271.743 200.311 271.834 200.237 271.89 200.14C271.947 200.042 271.964 199.928 271.939 199.819C271.924 199.765 271.898 199.714 271.862 199.669C271.826 199.625 271.782 199.588 271.731 199.56C271.68 199.533 271.624 199.515 271.567 199.509C271.509 199.503 271.45 199.508 271.394 199.524L268.28 200.58C268.171 200.616 268.08 200.69 268.024 200.787C267.967 200.885 267.95 200.999 267.975 201.108C267.99 201.162 268.016 201.213 268.052 201.258C268.088 201.302 268.132 201.339 268.183 201.367C268.234 201.394 268.29 201.412 268.347 201.418C268.405 201.424 268.464 201.419 268.52 201.403Z" fill="#C95B72"/>
<path d="M220.179 220.453C225.181 217.83 228.962 213.457 230.753 208.225C230.928 207.697 230.078 207.475 229.904 208.003C228.178 213.022 224.54 217.211 219.733 219.714C219.232 219.967 219.679 220.706 220.179 220.453Z" fill="#C95B72"/>
<path d="M223.97 217.676C222.663 227.528 223.719 237.433 224.677 247.243C225.636 257.052 226.267 267.095 224.677 277.052C223.883 282.036 222.794 286.968 221.999 291.952C221.234 296.797 220.801 301.687 220.703 306.588C220.463 316.851 221.334 327.115 221.988 337.358C222.714 349.002 223.461 360.653 224.231 372.311C224.231 372.849 225.146 372.86 225.113 372.311C224.445 361.92 223.777 351.533 223.109 341.149C222.456 330.97 221.585 320.78 221.552 310.579C221.498 305.43 221.792 300.284 222.434 295.173C223.109 290.125 224.187 285.141 225.08 280.125C225.971 275.404 226.488 270.625 226.627 265.827C226.667 260.835 226.434 255.844 225.93 250.875C224.928 239.84 223.403 228.7 224.841 217.676C224.917 217.137 224.035 217.137 223.959 217.676H223.97Z" fill="#C95B72"/>
<path d="M283.547 292.849L287.119 288.024C287.159 287.975 287.188 287.919 287.203 287.859C287.219 287.798 287.221 287.735 287.21 287.674C287.198 287.613 287.173 287.555 287.136 287.504C287.099 287.453 287.052 287.411 286.996 287.379C286.941 287.348 286.879 287.328 286.815 287.322C286.752 287.316 286.687 287.323 286.626 287.343C286.566 287.363 286.51 287.396 286.464 287.438C286.417 287.481 286.381 287.533 286.357 287.591L282.774 292.427C282.717 292.524 282.701 292.639 282.73 292.747C282.758 292.855 282.828 292.949 282.926 293.008C283.029 293.063 283.15 293.077 283.264 293.047C283.377 293.018 283.475 292.947 283.536 292.849H283.547Z" fill="#C95B72"/>
<path d="M284.048 285.775L286.498 283.388C286.58 283.308 286.626 283.2 286.626 283.087C286.626 282.974 286.58 282.866 286.498 282.786C286.416 282.706 286.304 282.662 286.188 282.662C286.071 282.662 285.96 282.706 285.877 282.786L283.427 285.162C283.376 285.199 283.335 285.247 283.304 285.301C283.274 285.355 283.256 285.414 283.251 285.476C283.247 285.537 283.255 285.599 283.277 285.657C283.299 285.714 283.334 285.767 283.378 285.811C283.423 285.855 283.476 285.889 283.535 285.911C283.595 285.933 283.658 285.943 283.721 285.94C283.785 285.936 283.847 285.92 283.903 285.891C283.959 285.863 284.009 285.823 284.048 285.775Z" fill="#C95B72"/>
<path d="M233.77 294.592L238.06 288.636C238.387 288.182 237.625 287.76 237.298 288.203L233.008 294.159C232.681 294.613 233.454 295.035 233.77 294.592Z" fill="#C95B72"/>
<path d="M236.83 285.204L240.511 280.981C240.589 280.899 240.632 280.791 240.632 280.68C240.632 280.568 240.589 280.461 240.511 280.379C240.471 280.339 240.422 280.307 240.369 280.285C240.316 280.264 240.258 280.253 240.201 280.253C240.143 280.253 240.086 280.264 240.032 280.285C239.979 280.307 239.931 280.339 239.89 280.379C238.663 281.787 237.437 283.177 236.21 284.55C236.127 284.63 236.081 284.738 236.081 284.851C236.081 284.964 236.127 285.072 236.21 285.152C236.292 285.231 236.404 285.276 236.52 285.276C236.636 285.276 236.748 285.231 236.83 285.152V285.204Z" fill="#C95B72"/>
<path d="M254.199 71.3936L267.626 73.3154L286.782 118.278L278.788 175.638H245.466L252.032 71.3936H254.199Z" fill="white"/>
<path d="M294.47 207.162C290.497 206.505 286.739 204.955 283.495 202.635C280.252 200.315 277.615 197.291 275.794 193.805C272.298 186.782 272.712 178.694 273.387 170.985C275.979 141.703 281.457 111.587 272.462 83.425C271.111 79.2011 269.369 74.9034 266.287 71.5032C269.376 71.8278 272.365 72.7547 275.075 74.2282C277.784 75.7018 280.159 77.6914 282.055 80.0776C285.638 84.6288 287.065 90.2993 288.219 95.822C295.896 132.474 295.188 169.824 294.47 207.162Z" fill="url(#paint4_linear_314_4432)"/>
<path d="M278.026 41.1403C279.594 41.2286 281.14 40.746 282.361 39.787C283.581 38.828 284.389 37.4616 284.625 35.9555C284.725 35.4464 284.717 34.9229 284.603 34.4166C284.489 33.9104 284.271 33.4317 283.961 33.0094C283.631 32.6016 283.158 32.3257 282.632 32.2342C282.106 32.1426 281.563 32.2419 281.108 32.5131C280.88 31.3831 280.351 30.3308 279.572 29.4614C279.171 29.0409 278.62 28.7825 278.031 28.7375C277.442 28.6925 276.857 28.8642 276.392 29.2185C276.109 27.265 273.125 25.945 271.242 25.1108C269.706 24.2924 267.998 23.826 266.248 23.7473C264.499 23.6686 262.753 23.9797 261.147 24.6567C259.641 25.0642 258.266 25.8343 257.15 26.8954C256.597 27.4298 256.215 28.1075 256.049 28.8472C255.883 29.587 255.94 30.3574 256.214 31.0664C253.709 30.0105 250.431 29.7359 248.123 31.1826C245.814 32.6292 244.681 35.8182 246.054 38.1202C246.406 38.6008 246.723 39.1055 247.001 39.6303C247.839 41.6472 245.912 43.7274 245.694 45.8921C245.476 48.0568 246.848 49.9787 248.384 51.5098C249.919 53.041 251.716 54.4032 252.664 56.325C253.219 57.4338 253.665 58.8804 254.918 59.1444C255.469 59.2128 256.029 59.1247 256.529 58.891C261.081 57.1698 264.043 52.9776 266.929 49.1339C269.815 45.2902 273.169 40.5806 278.026 41.1403Z" fill="#4F2830"/>
<path d="M279.191 44.1496C279.191 52.7029 273.42 63.5054 266.124 62.5233C260.112 61.7102 255.8 57.0534 255.343 48.5213C254.635 35.2795 262.258 31.5414 268.312 31.6259C274.367 31.7104 279.246 35.6069 279.191 44.1496Z" fill="#F9AC7C"/>
<path d="M257.728 47.4231C257.728 50.2425 256.977 53.2837 254.897 53.2731C252.817 53.2625 250.181 50.2003 250.203 47.3703C250.225 44.5403 251.924 42.27 253.993 42.2806C256.062 42.2911 257.783 44.5931 257.728 47.4231Z" fill="#F9AC7C"/>
<path d="M273.049 43.1888C272.656 44.2112 272.385 45.2742 272.243 46.3567C272.145 47.3533 272.113 48.355 272.145 49.3556C272.232 50.1254 272.044 50.9008 271.612 51.552C270.85 52.4074 269.575 51.9428 268.693 51.552C268.247 51.3725 267.855 52.0061 268.301 52.1962C268.788 52.4786 269.333 52.6543 269.897 52.7108C270.462 52.7674 271.032 52.7034 271.568 52.5235C271.954 52.3071 272.278 52.0004 272.51 51.6315C272.742 51.2626 272.875 50.8432 272.897 50.4116C273.038 49.3556 272.897 48.3631 272.973 47.3388C273.056 45.9849 273.346 44.6504 273.833 43.3789C274.008 42.9249 273.267 42.7348 273.104 43.1783L273.049 43.1888Z" fill="#4F2830"/>
<path d="M264.359 49.5352C263.072 49.5359 261.831 49.0703 260.88 48.2297C259.928 47.389 259.335 46.234 259.216 44.9912C259.098 43.7484 259.462 42.5074 260.238 41.5117C261.015 40.516 262.146 39.8375 263.412 39.6091C264.415 39.4272 265.452 39.5381 266.391 39.9276C267.33 40.3172 268.128 40.968 268.685 41.7978C269.243 42.6275 269.534 43.5988 269.521 44.5889C269.509 45.579 269.195 46.5433 268.617 47.3599C267.858 48.4545 266.684 49.2137 265.35 49.4718C265.022 49.5215 264.691 49.5427 264.359 49.5352ZM264.359 40.2638C264.085 40.2622 263.811 40.287 263.542 40.3377C262.442 40.54 261.465 41.1453 260.813 42.0279C260.161 42.9106 259.884 44.0028 260.041 45.078C260.197 46.1531 260.775 47.1285 261.653 47.8017C262.532 48.4748 263.644 48.7941 264.759 48.6932C265.873 48.5923 266.905 48.079 267.64 47.2598C268.375 46.4406 268.756 45.3784 268.705 44.2938C268.654 43.2092 268.174 42.1854 267.364 41.435C266.555 40.6846 265.479 40.2652 264.359 40.2638Z" fill="#281419"/>
<path d="M279.431 51.5098C278.145 51.5079 276.906 51.0404 275.957 50.1989C275.007 49.3575 274.416 48.2026 274.299 46.9605C274.182 45.7185 274.547 44.4788 275.323 43.4842C276.099 42.4897 277.23 41.8119 278.495 41.5837C279.499 41.4018 280.535 41.5127 281.474 41.9023C282.413 42.2918 283.211 42.9427 283.769 43.7724C284.326 44.6021 284.617 45.5734 284.605 46.5635C284.592 47.5536 284.278 48.5179 283.7 49.3345C283.326 49.8781 282.845 50.3446 282.284 50.707C281.724 51.0695 281.094 51.3208 280.433 51.4464C280.102 51.496 279.767 51.5172 279.431 51.5098ZM279.431 42.2384C279.157 42.2373 278.884 42.2621 278.615 42.3124C277.468 42.521 276.454 43.1628 275.795 44.0965C275.137 45.0302 274.887 46.1794 275.103 47.2912C275.318 48.403 275.98 49.3864 276.943 50.0251C277.905 50.6637 279.091 50.9053 280.237 50.6967C281.392 50.5931 282.458 50.0487 283.199 49.1833C283.941 48.3179 284.297 47.2024 284.19 46.0821C284.083 44.9619 283.522 43.9287 282.629 43.2099C281.737 42.491 280.587 42.1454 279.431 42.249V42.2384Z" fill="#281419"/>
<path d="M274.204 46.5152C273.377 44.9735 270.284 45.4592 269.151 45.8182L268.934 45.1107C269.13 45.058 273.594 43.7802 274.89 46.1667L274.204 46.5152Z" fill="#281419"/>
<path d="M259.634 44.2025C259.554 44.2034 259.477 44.1773 259.416 44.1286L253.644 39.9998C253.229 39.7029 252.74 39.5191 252.226 39.4671C251.713 39.4151 251.195 39.4969 250.726 39.7041L248.918 40.4961C248.825 40.5362 248.72 40.54 248.625 40.5065C248.529 40.473 248.451 40.4049 248.406 40.3166C248.366 40.2254 248.363 40.1224 248.4 40.0297C248.437 39.9369 248.509 39.8617 248.602 39.8202L250.421 39.0283C251.014 38.7675 251.667 38.6652 252.315 38.7321C252.962 38.7989 253.579 39.0324 254.102 39.4084L259.862 43.5267C259.946 43.5858 260.001 43.6745 260.018 43.7733C260.034 43.8722 260.009 43.9733 259.949 44.0547C259.912 44.1008 259.864 44.138 259.809 44.1636C259.754 44.1892 259.694 44.2025 259.634 44.2025Z" fill="#281419"/>
<path d="M255.854 52.344L253.48 71.0028C253.48 71.0028 259.1 78.8064 267.18 75.7758L266.232 60.9923L255.854 52.344Z" fill="#F9AC7C"/>
<path d="M267.104 62.2278C262.693 62.5974 258.947 59.1655 257.183 55.5541C256.976 55.1317 256.312 55.5013 256.53 55.9343C258.392 59.7568 262.454 63.326 267.104 62.967C267.583 62.967 267.594 62.1856 267.104 62.2278Z" fill="#4F2830"/>
<path d="M212.622 209.644C219.013 209.196 225.321 207.969 231.396 205.99C236.427 204.354 241.425 202.115 245.019 198.335C250.834 192.221 251.988 183.308 252.838 175.03C255.909 144.966 258.642 114.787 257.499 84.5971C257.281 78.6415 256.627 72.0629 252.163 67.9552C242.046 67.2794 231.385 73.8791 225.374 81.7777C219.363 89.6763 216.379 99.3489 213.929 108.874C205.439 142.177 201.944 176.493 203.551 210.763C206.526 210.083 209.566 209.708 212.622 209.644Z" fill="url(#paint5_linear_314_4432)"/>
<path d="M276.458 77.9933C277.35 76.6899 277.736 75.1222 277.547 73.5689C277.353 72.7417 277.276 71.8926 277.319 71.0451C277.46 70.2109 278.212 69.3767 279.072 69.5457C278.342 69.5457 277.983 70.6016 278.506 71.1402C278.78 71.378 279.129 71.5198 279.496 71.5427C279.863 71.5657 280.228 71.4686 280.531 71.2669C281.125 70.8469 281.613 70.3017 281.958 69.6724C282.795 68.5983 283.331 67.3323 283.515 65.9976C283.445 64.4484 282.852 62.9643 281.827 61.7738C280.794 60.3309 279.651 58.9649 278.408 57.6872L283.254 54.5193C283.787 54.1814 284.343 53.6957 284.277 53.0832C284.147 52.2701 282.97 52.1646 282.099 52.3546C279.17 53.0516 276.654 54.8784 274.28 56.6524C273.004 57.5049 271.87 58.5411 270.915 59.7252C269.021 62.3546 269.108 65.8076 269.26 68.9966C269.347 70.8762 268.672 72.5551 268.433 74.4136C271.179 75.4502 273.859 76.6455 276.458 77.9933Z" fill="#F9AC7C"/>
<path d="M243.713 141.298C242.475 141.328 241.252 141.032 240.174 140.443L236.569 138.869C235.496 138.465 234.493 137.902 233.596 137.201C233.148 136.845 232.79 136.395 232.548 135.884C232.307 135.374 232.188 134.816 232.202 134.255C232.358 133.313 232.819 132.443 233.52 131.773C235.26 130.096 237.301 128.74 239.542 127.771C241.981 126.578 244.769 125.459 247.361 126.272C250.29 127.18 251.945 130.348 252.022 133.326C252.076 135.184 251.477 137.919 249.593 138.869C248.82 139.26 247.971 139.324 247.197 139.767C246.157 140.505 244.971 141.026 243.713 141.298Z" fill="#F9AC7C"/>
<path d="M251.793 117.666L252.718 115.29C253.589 115.395 253.121 114.698 253.481 115.522C257.107 99.6826 262.617 85.7967 266.897 70.1157L279.191 74.9098C278.821 85.6911 276.948 96.6415 275.042 107.254C274.095 113.331 272.605 119.316 270.588 125.142C268.116 131.794 262.965 141.72 255.974 142.238C253.219 142.324 250.491 141.697 248.068 140.422C238.17 135.723 231.919 122.819 227.574 112.576C224.154 104.508 221.955 94.9414 225.875 87.1273C226.7 85.2175 228.176 83.6405 230.057 82.6605C232.725 81.4779 235.948 82.4916 238.159 84.4345C240.283 86.5417 241.923 89.0607 242.972 91.8263C246.707 100.147 250.355 108.627 251.793 117.666Z" fill="url(#paint6_linear_314_4432)"/>
<path d="M249.68 141.33C266.45 139.936 280.77 135.427 297.127 131.626C300.753 130.781 303.661 126.219 303.29 122.629C302.92 119.038 299.958 113.906 298.346 110.654L288.611 90.8971C287.021 87.6764 285.344 84.403 282.839 81.8264C282.213 81.1183 281.416 80.5707 280.52 80.2319C278.462 79.5772 276.24 80.8655 274.944 82.5339C273.924 83.9862 273.218 85.6238 272.868 87.3478C272.518 89.0718 272.532 90.8467 272.908 92.5655C273.518 96.0291 271.819 100.158 273.409 103.326C275.903 108.426 266.657 114.297 269.14 119.387C258.599 123.906 262.77 125.533 251.314 126.684C250.105 126.8 248.7 127.022 248.134 128.056C247.87 128.651 247.783 129.306 247.883 129.947C248.248 133.772 248.848 137.573 249.68 141.33Z" fill="url(#paint7_linear_314_4432)"/>
<path d="M278.418 77.2224C277.198 94.519 275.489 112.502 267.528 128.289C265.705 132.221 263.323 135.885 260.45 139.176C259.7 140.063 258.758 140.78 257.692 141.276C256.625 141.773 255.459 142.036 254.275 142.048C251.744 141.862 249.31 141.02 247.23 139.609C239.966 135.237 234.957 127.993 232.104 120.284C228.303 110.052 228.162 98.9751 228.358 88.2255C228.358 88.1274 228.318 88.0334 228.246 87.9641C228.175 87.8948 228.078 87.8559 227.977 87.8559C227.876 87.8559 227.779 87.8948 227.707 87.9641C227.636 88.0334 227.596 88.1274 227.596 88.2255C227.258 106.103 228.608 127.391 244.899 138.975C248.166 141.309 252.686 143.78 256.878 142.438C260.831 141.171 263.26 137.021 265.285 133.769C269.991 125.887 273.324 117.307 275.151 108.373C277.46 98.1304 278.418 87.6552 279.126 77.2224C279.126 76.7472 278.396 76.7472 278.364 77.2224H278.418Z" fill="#493CE0"/>
<path d="M258.218 98.1409C254.345 105.095 251.56 112.568 249.952 120.316C249.854 120.781 250.595 120.981 250.693 120.517C252.292 112.847 255.051 105.45 258.882 98.5633C259.111 98.1515 258.457 97.7713 258.218 98.1937V98.1409Z" fill="#493CE0"/>
<path d="M253.513 107.898C251.737 109.108 250.211 110.63 249.015 112.386C248.743 112.787 249.407 113.157 249.68 112.755C250.807 111.103 252.244 109.67 253.916 108.532C254.002 108.481 254.065 108.4 254.091 108.306C254.118 108.211 254.106 108.111 254.057 108.025C254.005 107.941 253.921 107.88 253.823 107.856C253.725 107.833 253.621 107.848 253.535 107.898H253.513Z" fill="#493CE0"/>
<path d="M273.267 116.346C278.619 113.538 284.459 111.708 290.495 110.95C290.974 110.886 290.974 110.147 290.495 110.211C284.324 110.98 278.352 112.841 272.875 115.702C272.439 115.934 272.875 116.568 273.267 116.346Z" fill="#493CE0"/>
<path d="M287.13 111.33C287.953 109.701 289.314 108.385 290.996 107.592C291.046 107.571 291.09 107.541 291.127 107.502C291.164 107.463 291.191 107.418 291.208 107.368C291.225 107.318 291.231 107.266 291.225 107.213C291.22 107.161 291.203 107.111 291.176 107.066C291.148 107.02 291.111 106.981 291.067 106.951C291.023 106.92 290.973 106.9 290.92 106.889C290.867 106.879 290.813 106.88 290.76 106.892C290.707 106.904 290.658 106.926 290.615 106.958C288.812 107.808 287.352 109.216 286.466 110.96C286.42 111.047 286.41 111.146 286.436 111.24C286.462 111.334 286.523 111.415 286.608 111.467C286.696 111.514 286.8 111.526 286.897 111.5C286.995 111.474 287.078 111.414 287.13 111.33Z" fill="#493CE0"/>
<path d="M246.065 69.4821C247.473 75.5715 248.874 81.6644 250.268 87.7608C251.408 93.5198 253.058 99.1726 255.201 104.656C255.375 105.089 256.116 104.899 255.931 104.456C253.798 98.9688 252.148 93.3168 250.998 87.5602C249.604 81.4778 248.206 75.3885 246.805 69.292C246.696 68.8274 245.967 69.0175 246.065 69.4821Z" fill="#493CE0"/>
<path d="M221.4 178.309C226.625 173.987 232.1 169.957 237.799 166.24C238.213 165.976 237.8 165.332 237.418 165.596C231.663 169.369 226.134 173.455 220.855 177.834C220.485 178.141 221.029 178.658 221.4 178.352V178.309Z" fill="#493CE0"/>
<path d="M286.346 167.169C288.697 168.489 290.826 170.149 292.662 172.09C293 172.438 293.544 171.91 293.207 171.562C291.323 169.576 289.138 167.881 286.727 166.536C286.642 166.5 286.546 166.496 286.458 166.525C286.37 166.553 286.295 166.611 286.248 166.689C286.201 166.767 286.185 166.859 286.204 166.947C286.222 167.036 286.272 167.115 286.346 167.169Z" fill="#493CE0"/>
<path d="M201.884 304.393C211.701 293.052 210.178 276.14 198.483 266.62C186.787 257.1 169.347 258.577 159.529 269.918C149.712 281.26 151.234 298.171 162.93 307.691C174.626 317.211 192.066 315.734 201.884 304.393Z" fill="#FFC466"/>
<path d="M180.705 310.653C175.905 310.655 171.213 309.277 167.221 306.692C163.23 304.108 160.118 300.434 158.281 296.134C156.443 291.835 155.961 287.104 156.897 282.539C157.833 277.974 160.144 273.781 163.538 270.49C166.932 267.199 171.256 264.958 175.963 264.051C180.671 263.143 185.55 263.61 189.984 265.392C194.418 267.174 198.207 270.191 200.872 274.062C203.537 277.933 204.958 282.483 204.956 287.137C204.948 293.371 202.39 299.348 197.844 303.756C193.298 308.164 187.134 310.645 180.705 310.653ZM180.705 264.761C176.141 264.759 171.678 266.069 167.882 268.527C164.086 270.984 161.126 274.478 159.378 278.567C157.63 282.655 157.172 287.154 158.061 291.496C158.95 295.837 161.147 299.825 164.373 302.955C167.6 306.085 171.712 308.218 176.188 309.082C180.665 309.946 185.305 309.504 189.522 307.81C193.739 306.117 197.344 303.249 199.88 299.569C202.416 295.889 203.769 291.563 203.769 287.137C203.764 281.206 201.332 275.519 197.008 271.325C192.684 267.13 186.821 264.769 180.705 264.761Z" fill="#D85A2E"/>
<path d="M180.225 301.677V301.403C180.176 301.053 180.158 300.7 180.171 300.347L180.117 299.291H179.158C178.054 299.31 176.952 299.168 175.891 298.868C175.325 298.678 175.042 298.446 175.042 298.182C175.04 298.062 175.065 297.943 175.116 297.833C175.166 297.724 175.242 297.627 175.336 297.549C175.592 297.37 175.904 297.284 176.218 297.306C176.761 297.327 177.299 297.416 177.819 297.57C178.269 297.701 178.733 297.786 179.202 297.823C179.486 297.818 179.77 297.796 180.051 297.76L179.572 288.256L179.463 286.239C177.817 284.926 176.277 283.493 174.857 281.952C174.064 281.074 173.621 279.951 173.604 278.784C173.635 278.271 173.777 277.769 174.021 277.313C174.265 276.856 174.606 276.454 175.02 276.134C176.124 275.187 177.446 274.51 178.875 274.159V273.019C178.875 272.438 179.104 272.142 179.561 272.142C179.718 272.141 179.873 272.172 180.015 272.234C180.158 272.296 180.286 272.387 180.389 272.501C180.618 272.738 180.743 273.053 180.737 273.378V273.8C181.819 273.64 182.91 273.555 184.004 273.547C184.645 273.543 185.281 273.658 185.877 273.884C186.379 274.047 186.822 274.348 187.151 274.75L186.247 275.426C185.625 275.418 185.003 275.376 184.385 275.299C183.456 275.236 182.781 275.204 182.36 275.204C181.861 275.204 181.363 275.236 180.868 275.299L181.5 285.563C182.349 286.229 183.035 286.799 183.547 287.263C184.059 287.728 184.636 288.319 185.235 288.942C186.303 290.109 186.905 291.607 186.934 293.166C186.937 294.355 186.556 295.514 185.845 296.482C185.077 297.547 183.978 298.346 182.708 298.763V301.234C182.734 301.435 182.711 301.64 182.642 301.831C182.573 302.023 182.459 302.197 182.31 302.339C182.16 302.481 181.979 302.587 181.78 302.65C181.58 302.713 181.369 302.731 181.162 302.702C180.519 302.691 180.225 302.353 180.225 301.677ZM179.322 282.512C179.213 281.054 179.104 278.826 178.995 275.806C178.211 276.089 177.501 276.536 176.915 277.116C176.484 277.504 176.22 278.036 176.174 278.605C176.184 279.489 176.46 280.352 176.969 281.086C177.651 282.047 178.456 282.92 179.365 283.684L179.322 282.512ZM183.95 295.004C184.3 294.433 184.502 293.788 184.538 293.124C184.538 291.646 183.616 290.041 181.772 288.309L182.403 296.757C183.023 296.282 183.532 295.684 183.895 295.004H183.95Z" fill="#D85A2E"/>
<path fill-rule="evenodd" clip-rule="evenodd" d="M107.264 26.1667L28.335 102.703H65.24V287.126H149.298V102.703H186.193L107.264 26.1667Z" fill="url(#paint8_linear_314_4432)"/>
<path d="M135.055 245.201C136.156 245.197 137.047 244.303 137.047 243.201V239.401C137.047 238.297 136.152 237.401 135.047 237.401H132.962C131.988 237.401 131.165 236.696 130.93 235.751C130.839 235.385 130.739 235.02 130.63 234.659C130.342 233.706 130.712 232.658 131.58 232.172L133.275 231.223C134.256 230.673 134.592 229.423 134.018 228.456L132.054 225.151C131.5 224.218 130.303 223.897 129.356 224.428L127.501 225.469C126.669 225.935 125.63 225.743 124.962 225.062C124.687 224.781 124.405 224.506 124.116 224.238C123.386 223.561 123.181 222.468 123.69 221.612L124.63 220.031C125.204 219.064 124.869 217.814 123.888 217.264L120.419 215.322C119.473 214.793 118.278 215.113 117.723 216.044L116.681 217.795C116.189 218.62 115.183 218.971 114.261 218.704C113.84 218.583 113.415 218.472 112.988 218.373C112.031 218.151 111.315 217.323 111.315 216.34V214.449C111.315 213.344 110.419 212.449 109.315 212.449H105.289C104.184 212.449 103.289 213.344 103.289 214.449V216.277C103.289 217.259 102.573 218.088 101.616 218.31C101.189 218.409 100.764 218.519 100.343 218.641C99.4206 218.908 98.4143 218.557 97.923 217.732L96.8833 215.986C96.3276 215.052 95.1286 214.733 94.1825 215.267L90.7218 217.218C89.7429 217.77 89.4108 219.02 89.9866 219.985L90.9272 221.561C91.4398 222.42 91.2319 223.52 90.498 224.199C90.2082 224.468 89.9255 224.743 89.65 225.026C88.9882 225.704 87.9584 225.904 87.126 225.451L85.1815 224.393C84.2377 223.879 83.0567 224.203 82.507 225.126L80.5242 228.456C79.9483 229.423 80.2835 230.674 81.2656 231.224L82.9584 232.172C83.8267 232.658 84.1961 233.706 83.9088 234.659C83.7998 235.02 83.6997 235.385 83.6087 235.751C83.3738 236.696 82.5506 237.401 81.5764 237.401H79.4912C78.3866 237.401 77.4912 238.297 77.4912 239.401V243.194C77.4912 244.299 78.3866 245.194 79.4912 245.194H81.5771C82.551 245.194 83.374 245.898 83.6094 246.843C83.6998 247.206 83.7991 247.567 83.9073 247.925C84.1952 248.878 83.826 249.927 82.9571 250.414L81.2595 251.364C80.2797 251.912 79.9434 253.16 80.5146 254.127L82.4982 257.483C83.0506 258.418 84.248 258.742 85.1958 258.212L87.0457 257.178C87.8788 256.712 88.9186 256.907 89.586 257.589C89.8636 257.873 90.1485 258.15 90.4403 258.42C91.1672 259.093 91.3771 260.178 90.8787 261.034L89.9608 262.611C89.398 263.577 89.7375 264.818 90.7141 265.363L94.1819 267.3C95.1332 267.831 96.3348 267.503 96.8842 266.562L97.8934 264.833C98.3817 263.997 99.3968 263.639 100.327 263.91C100.744 264.031 101.165 264.141 101.588 264.24C102.543 264.464 103.256 265.291 103.256 266.272V268.168C103.256 269.272 104.152 270.168 105.256 270.168H109.282C110.387 270.168 111.282 269.272 111.282 268.168V266.272C111.282 265.291 111.996 264.464 112.951 264.24C113.379 264.14 113.804 264.029 114.226 263.906C115.149 263.637 116.158 263.987 116.65 264.814L117.692 266.564C118.246 267.494 119.44 267.815 120.386 267.287L123.852 265.351C124.835 264.802 125.171 263.551 124.596 262.583L123.655 261.001C123.147 260.147 123.35 259.055 124.078 258.379C124.37 258.109 124.655 257.831 124.933 257.548C125.598 256.869 126.634 256.678 127.464 257.142L129.325 258.182C130.271 258.711 131.466 258.39 132.02 257.458L133.985 254.149C134.559 253.182 134.224 251.932 133.242 251.383L131.549 250.435C130.68 249.948 130.311 248.899 130.598 247.946C130.707 247.586 130.807 247.223 130.898 246.858C131.132 245.916 131.951 245.213 132.922 245.209L135.055 245.201ZM126.168 241.298C126.162 241.298 126.157 241.302 126.157 241.308C126.155 244.935 125.045 248.48 122.967 251.495C120.887 254.513 117.93 256.865 114.471 258.254C111.012 259.643 107.206 260.006 103.535 259.297C99.8631 258.588 96.4908 256.839 93.8443 254.271C91.1978 251.703 89.3961 248.432 88.6671 244.872C87.938 241.311 88.3144 237.62 89.7485 234.267C91.1827 230.914 93.6102 228.048 96.7241 226.033C99.838 224.017 103.498 222.943 107.242 222.945C112.263 222.945 117.078 224.878 120.629 228.32C124.177 231.759 126.173 236.422 126.179 241.287C126.179 241.293 126.174 241.298 126.168 241.298Z" fill="white"/>
<path d="M116.768 250.504C122.016 245.415 122.016 237.165 116.768 232.076C111.52 226.987 103.012 226.987 97.7638 232.076C92.5159 237.165 92.5159 245.415 97.7638 250.504C103.012 255.593 111.52 255.593 116.768 250.504Z" fill="white"/>
<path d="M96.3087 85.2371H79.9414V110.791H96.3087V85.2371Z" fill="white"/>
<path d="M70.8926 87.7502L88.131 71.0449L105.359 87.7502H70.8926Z" fill="white"/>
<path d="M126.082 141.932H114.005V160.781H126.082V141.932Z" fill="white"/>
<path d="M107.329 143.79L120.037 131.467L132.746 143.79H107.329Z" fill="white"/>
<path d="M40.6299 160.696C50.2226 160.696 57.999 153.155 57.999 143.854C57.999 134.552 50.2226 127.011 40.6299 127.011C31.0372 127.011 23.2607 134.552 23.2607 143.854C23.2607 153.155 31.0372 160.696 40.6299 160.696Z" fill="#FFC466"/>
<path d="M40.6294 158.626C37.6141 158.626 34.6666 157.759 32.1594 156.135C29.6523 154.511 27.6982 152.202 26.5443 149.5C25.3904 146.799 25.0885 143.827 25.6767 140.959C26.265 138.091 27.717 135.457 29.8491 133.39C31.9813 131.322 34.6978 129.914 37.6552 129.344C40.6125 128.773 43.6779 129.066 46.4637 130.185C49.2495 131.304 51.6305 133.199 53.3057 135.63C54.9809 138.061 55.8751 140.919 55.8751 143.843C55.8751 145.784 55.4808 147.707 54.7146 149.5C53.9484 151.294 52.8254 152.924 51.4097 154.297C49.9941 155.669 48.3134 156.758 46.4637 157.501C44.614 158.244 42.6315 158.626 40.6294 158.626ZM40.6294 129.799C37.7623 129.797 34.9589 130.619 32.5739 132.162C30.1889 133.705 28.3294 135.9 27.2307 138.468C26.132 141.036 25.8434 143.862 26.4015 146.589C26.9595 149.316 28.3391 151.821 30.3657 153.788C32.3923 155.755 34.975 157.094 37.7869 157.638C40.5988 158.181 43.5136 157.903 46.1627 156.84C48.8119 155.776 51.0762 153.975 52.6693 151.663C54.2625 149.352 55.1128 146.634 55.1128 143.854C55.1099 140.129 53.5834 136.557 50.8682 133.922C48.153 131.287 44.4708 129.804 40.6294 129.799Z" fill="#D85A2E"/>
<path d="M40.3246 152.988V152.819C40.308 152.597 40.308 152.375 40.3246 152.153V151.478H39.7148C39.0147 151.489 38.3169 151.397 37.6457 151.203C37.2864 151.087 37.1122 150.939 37.1122 150.781C37.1083 150.704 37.1231 150.628 37.1552 150.558C37.1874 150.489 37.2361 150.427 37.2973 150.379C37.454 150.267 37.6477 150.214 37.8418 150.231C38.181 150.245 38.5174 150.299 38.8436 150.39C39.1277 150.471 39.4196 150.524 39.7148 150.548H40.2484L39.9326 144.582L39.8673 143.315C38.8316 142.495 37.8631 141.598 36.9706 140.633C36.4741 140.07 36.1967 139.356 36.1865 138.616C36.2059 138.294 36.2944 137.979 36.4463 137.692C36.5981 137.404 36.8101 137.151 37.0686 136.947C37.7652 136.354 38.5977 135.931 39.497 135.712V135.005C39.497 134.635 39.6386 134.445 39.9326 134.445C40.0304 134.444 40.1272 134.464 40.2157 134.505C40.3043 134.545 40.3825 134.604 40.4444 134.677C40.5181 134.749 40.5755 134.835 40.613 134.929C40.6505 135.024 40.6673 135.125 40.6622 135.226V135.49C41.34 135.391 42.0241 135.338 42.7095 135.332C43.1084 135.327 43.5043 135.399 43.8747 135.543C44.1947 135.637 44.4765 135.825 44.6805 136.082L44.1143 136.515C43.7209 136.507 43.3283 136.479 42.9382 136.43C42.361 136.43 41.9363 136.367 41.675 136.367C41.3616 136.366 41.0487 136.388 40.7384 136.43L41.2067 142.85C41.7403 143.273 42.165 143.632 42.4917 143.906C42.8184 144.181 43.1668 144.55 43.5807 144.962C44.2593 145.695 44.6455 146.639 44.6696 147.623C44.6729 148.381 44.429 149.12 43.9727 149.735C43.4827 150.403 42.7897 150.905 41.9908 151.171V152.724C42.0074 152.85 41.9936 152.978 41.9504 153.099C41.9072 153.219 41.8359 153.328 41.7419 153.417C41.648 153.506 41.5341 153.572 41.4091 153.612C41.2841 153.651 41.1514 153.661 41.0216 153.642C40.5098 153.621 40.3246 153.41 40.3246 152.988ZM39.7148 140.95C39.6495 140.027 39.5841 138.619 39.5188 136.726C39.0274 136.906 38.5818 137.187 38.212 137.549C37.9344 137.791 37.7661 138.128 37.7438 138.489C37.7554 139.042 37.9292 139.581 38.2447 140.041C38.6751 140.644 39.1838 141.191 39.7584 141.668L39.7148 140.95ZM42.6333 148.795C42.8507 148.435 42.9775 148.03 43.0035 147.613C42.8571 146.419 42.2309 145.33 41.2611 144.582L41.6641 149.925C42.0661 149.619 42.3964 149.234 42.6333 148.795Z" fill="#D85A2E"/>
<path d="M494.707 118.075C501.49 111.497 501.49 100.833 494.707 94.2555C487.924 87.6781 476.926 87.6781 470.143 94.2556C463.36 100.833 463.36 111.497 470.143 118.075C476.926 124.652 487.924 124.652 494.707 118.075Z" fill="#FFC466"/>
<path d="M482.416 120.939C479.4 120.939 476.453 120.072 473.946 118.448C471.438 116.823 469.484 114.514 468.33 111.813C467.177 109.112 466.875 106.139 467.463 103.272C468.051 100.404 469.503 97.7698 471.635 95.7023C473.767 93.6348 476.484 92.2268 479.441 91.6564C482.399 91.086 485.464 91.3787 488.25 92.4976C491.036 93.6166 493.417 95.5114 495.092 97.9425C496.767 100.374 497.661 103.232 497.661 106.156C497.661 110.077 496.055 113.837 493.196 116.609C490.337 119.382 486.459 120.939 482.416 120.939ZM482.416 92.1115C479.549 92.1115 476.747 92.9358 474.363 94.4802C471.979 96.0245 470.122 98.2196 469.025 100.788C467.928 103.356 467.641 106.182 468.2 108.908C468.759 111.635 470.14 114.139 472.167 116.105C474.194 118.07 476.776 119.409 479.588 119.951C482.399 120.493 485.314 120.215 487.962 119.151C490.611 118.088 492.874 116.286 494.467 113.975C496.06 111.663 496.91 108.946 496.91 106.166C496.907 102.44 495.379 98.8663 492.661 96.2312C489.944 93.596 486.259 92.1143 482.416 92.1115Z" fill="#D85A2E"/>
<path d="M482.122 115.3V115.142C482.106 114.917 482.106 114.691 482.122 114.466V113.79H481.512C480.813 113.805 480.115 113.716 479.443 113.526C479.084 113.4 478.91 113.262 478.91 113.093C478.907 113.017 478.922 112.941 478.954 112.872C478.986 112.802 479.034 112.741 479.095 112.692C479.254 112.584 479.446 112.532 479.639 112.544C479.979 112.558 480.315 112.611 480.641 112.703C480.924 112.791 481.216 112.848 481.512 112.872C481.69 112.884 481.868 112.884 482.046 112.872L481.752 106.927L481.687 105.659C480.65 104.836 479.682 103.936 478.79 102.967C478.29 102.41 478.012 101.698 478.006 100.96C478.025 100.638 478.113 100.323 478.265 100.036C478.417 99.7482 478.629 99.4949 478.888 99.292C479.584 98.6986 480.417 98.2751 481.316 98.0565V97.3384C481.316 96.9688 481.458 96.7893 481.752 96.7893C481.849 96.7886 481.944 96.808 482.033 96.8463C482.121 96.8845 482.2 96.9407 482.264 97.0111C482.336 97.0836 482.393 97.1697 482.431 97.2641C482.468 97.3584 482.485 97.4592 482.482 97.5602V97.8242C483.159 97.7251 483.843 97.6721 484.529 97.6658C484.927 97.6667 485.322 97.7383 485.694 97.877C486.013 97.9782 486.294 98.1694 486.5 98.4261L485.934 98.8484C485.54 98.8466 485.147 98.8184 484.758 98.764C484.18 98.764 483.756 98.7112 483.494 98.7112C483.181 98.7127 482.869 98.7303 482.558 98.764L483.026 105.184C483.56 105.607 483.984 105.966 484.311 106.24C484.638 106.515 484.986 106.884 485.4 107.296C486.08 108.024 486.466 108.965 486.489 109.947C486.493 110.706 486.245 111.446 485.781 112.059C485.3 112.728 484.609 113.228 483.81 113.484V115.036C483.827 115.163 483.813 115.291 483.77 115.411C483.727 115.532 483.655 115.641 483.561 115.73C483.467 115.819 483.353 115.885 483.228 115.924C483.103 115.964 482.971 115.974 482.841 115.955C482.307 115.934 482.122 115.723 482.122 115.3ZM481.512 103.262C481.447 102.354 481.382 100.95 481.316 99.0385C480.824 99.2118 480.377 99.4896 480.01 99.8516C479.736 100.096 479.568 100.432 479.541 100.791C479.553 101.344 479.727 101.883 480.042 102.344C480.471 102.948 480.976 103.497 481.545 103.98L481.512 103.262ZM484.431 111.119C484.648 110.754 484.775 110.346 484.801 109.925C484.654 108.735 484.028 107.65 483.059 106.905L483.462 112.238C483.863 111.936 484.194 111.555 484.431 111.119Z" fill="#D85A2E"/>
<path d="M314.278 43.0198C326.529 43.0198 336.461 33.3895 336.461 21.5099C336.461 9.63032 326.529 0 314.278 0C302.027 0 292.096 9.63032 292.096 21.5099C292.096 33.3895 302.027 43.0198 314.278 43.0198Z" fill="#FFC466"/>
<path d="M314.278 40.3799C310.43 40.3799 306.667 39.2732 303.467 37.1998C300.267 35.1263 297.773 32.1792 296.3 28.7311C294.827 25.2831 294.441 21.489 295.192 17.8286C295.943 14.1681 297.797 10.8058 300.518 8.1668C303.24 5.52778 306.707 3.73059 310.482 3.00248C314.257 2.27438 318.17 2.64807 321.725 4.0763C325.281 5.50452 328.32 7.92314 330.459 11.0263C332.597 14.1295 333.738 17.7778 333.738 21.5099C333.735 26.5137 331.684 31.3117 328.035 34.8499C324.387 38.3881 319.439 40.3771 314.278 40.3799ZM314.278 3.55859C310.617 3.55859 307.038 4.61141 303.993 6.58393C300.949 8.55645 298.576 11.3601 297.175 14.6402C295.774 17.9204 295.407 21.5298 296.121 25.012C296.836 28.4943 298.599 31.6929 301.188 34.2034C303.777 36.714 307.076 38.4237 310.667 39.1163C314.258 39.809 317.98 39.4535 321.363 38.0948C324.746 36.7361 327.637 34.4352 329.671 31.4831C331.705 28.5311 332.791 25.0604 332.791 21.5099C332.791 16.7489 330.84 12.1829 327.369 8.8164C323.897 5.44988 319.188 3.55859 314.278 3.55859Z" fill="#D85A2E"/>
<path d="M313.886 33.1888V32.9776C313.869 32.6927 313.869 32.4072 313.886 32.1223V31.2564H313.112C312.217 31.274 311.324 31.1564 310.466 30.9079C310.009 30.7601 309.78 30.57 309.78 30.3694C309.778 30.2723 309.797 30.1758 309.836 30.0865C309.876 29.9972 309.935 29.9172 310.009 29.852C310.215 29.711 310.465 29.6439 310.717 29.6619C311.153 29.6772 311.585 29.7482 312.002 29.8731C312.357 29.9765 312.721 30.0438 313.091 30.0737C313.319 30.0904 313.548 30.0904 313.777 30.0737L313.385 22.4814L313.265 20.8341C311.941 19.7847 310.703 18.6373 309.562 17.4022C308.921 16.6872 308.566 15.7731 308.561 14.8256C308.581 14.4196 308.688 14.022 308.875 13.6584C309.063 13.2948 309.327 12.973 309.65 12.7137C310.534 11.9528 311.595 11.4096 312.742 11.1298V10.2217C312.742 9.74647 312.927 9.51416 313.308 9.51416C313.432 9.51405 313.554 9.53941 313.667 9.58856C313.779 9.63772 313.88 9.70954 313.962 9.79927C314.149 9.98942 314.251 10.2439 314.245 10.5068V10.8447C315.106 10.7143 315.976 10.6437 316.848 10.6335C317.362 10.6356 317.871 10.7286 318.35 10.908C318.757 11.0342 319.114 11.2773 319.374 11.605L318.644 12.1435C318.146 12.1373 317.648 12.1056 317.153 12.0485C316.412 12.0485 315.868 11.964 315.53 11.964C315.136 11.9733 314.743 12.0086 314.354 12.0696L314.953 20.2638C315.628 20.8024 316.183 21.2564 316.597 21.6366C317.011 22.0167 317.457 22.4602 317.937 22.9777C318.794 23.914 319.28 25.1154 319.309 26.3673C319.304 27.326 318.992 28.2596 318.416 29.0389C317.79 29.8873 316.907 30.5258 315.889 30.8657V32.8509C315.91 33.0123 315.891 33.1761 315.835 33.3295C315.78 33.4829 315.688 33.6217 315.568 33.7351C315.448 33.8486 315.302 33.9336 315.143 33.9835C314.983 34.0335 314.814 34.047 314.648 34.023C314.136 33.9913 313.886 33.7168 313.886 33.1888ZM313.123 17.814C313.036 16.6525 312.949 14.8573 312.862 12.4392C312.232 12.6664 311.663 13.0272 311.196 13.4951C310.845 13.8034 310.631 14.2308 310.597 14.6884C310.607 15.3967 310.83 16.0867 311.239 16.6736C311.783 17.4572 312.431 18.1674 313.167 18.7855L313.123 17.814ZM316.837 27.8351C317.117 27.3761 317.278 26.8578 317.305 26.3251C317.305 25.1424 316.579 23.8541 315.127 22.4602L315.639 29.2712C316.144 28.881 316.553 28.3869 316.837 27.8245V27.8351Z" fill="#D85A2E"/>
<path d="M462.673 266.788C474.924 266.788 484.855 257.158 484.855 245.278C484.855 233.399 474.924 223.769 462.673 223.769C450.422 223.769 440.49 233.399 440.49 245.278C440.49 257.158 450.422 266.788 462.673 266.788Z" fill="#FFC466"/>
<path d="M462.673 264.159C458.821 264.161 455.055 263.055 451.852 260.982C448.648 258.908 446.151 255.959 444.676 252.509C443.201 249.058 442.814 245.261 443.565 241.598C444.316 237.934 446.171 234.569 448.894 231.928C451.618 229.287 455.088 227.488 458.866 226.76C462.644 226.032 466.56 226.407 470.118 227.837C473.677 229.268 476.718 231.689 478.856 234.796C480.995 237.902 482.135 241.554 482.133 245.289C482.127 250.292 480.075 255.088 476.427 258.626C472.779 262.164 467.833 264.154 462.673 264.159ZM462.673 227.338C459.012 227.338 455.433 228.391 452.388 230.363C449.344 232.336 446.971 235.139 445.57 238.419C444.169 241.7 443.802 245.309 444.516 248.791C445.231 252.273 446.994 255.472 449.583 257.983C452.172 260.493 455.47 262.203 459.062 262.895C462.653 263.588 466.375 263.233 469.758 261.874C473.14 260.515 476.032 258.214 478.066 255.262C480.1 252.31 481.186 248.84 481.186 245.289C481.186 240.528 479.235 235.962 475.764 232.596C472.292 229.229 467.583 227.338 462.673 227.338Z" fill="#D85A2E"/>
<path d="M462.291 256.957V256.746C462.267 256.458 462.267 256.168 462.291 255.88V255.025H461.518C460.624 255.04 459.732 254.927 458.872 254.687C458.415 254.529 458.186 254.349 458.186 254.138C458.182 254.042 458.201 253.947 458.24 253.859C458.28 253.771 458.339 253.693 458.415 253.631C458.619 253.486 458.87 253.416 459.122 253.431C459.558 253.451 459.989 253.522 460.407 253.642C460.762 253.747 461.127 253.818 461.496 253.853C461.726 253.847 461.955 253.829 462.182 253.8L461.801 246.197L461.714 244.582C460.393 243.529 459.155 242.382 458.012 241.15C457.375 240.436 457.021 239.527 457.01 238.584C457.032 238.178 457.14 237.781 457.327 237.418C457.515 237.054 457.777 236.732 458.099 236.472C458.987 235.715 460.046 235.172 461.191 234.888V233.98C461.191 233.505 461.377 233.272 461.747 233.272C461.87 233.272 461.992 233.297 462.105 233.347C462.218 233.396 462.318 233.468 462.4 233.557C462.582 233.751 462.683 234.003 462.683 234.265V234.603C463.545 234.472 464.414 234.402 465.286 234.392C465.8 234.393 466.31 234.486 466.789 234.666C467.191 234.8 467.546 235.041 467.812 235.363L467.083 235.912C466.584 235.907 466.085 235.871 465.591 235.807C464.85 235.754 464.306 235.733 463.968 235.733C463.568 235.731 463.168 235.756 462.77 235.807L463.369 244.001C464.055 244.539 464.6 245.004 465.014 245.374C465.428 245.743 465.874 246.197 466.364 246.715C467.22 247.655 467.702 248.861 467.725 250.115C467.727 251.091 467.406 252.042 466.811 252.829C466.19 253.682 465.305 254.322 464.284 254.655V256.641C464.304 256.802 464.286 256.966 464.23 257.119C464.174 257.273 464.083 257.411 463.963 257.525C463.843 257.638 463.697 257.723 463.537 257.773C463.378 257.823 463.209 257.837 463.043 257.813C462.531 257.76 462.291 257.496 462.291 256.957ZM461.518 241.572C461.431 240.41 461.344 238.615 461.257 236.197C460.627 236.424 460.058 236.785 459.591 237.253C459.244 237.569 459.03 237.998 458.992 238.457C459.003 239.165 459.226 239.855 459.634 240.442C460.174 241.228 460.823 241.939 461.562 242.554L461.518 241.572ZM465.232 251.604C465.515 251.141 465.679 250.62 465.711 250.083C465.711 248.9 464.985 247.612 463.533 246.218L464.045 253.04C464.541 252.648 464.945 252.159 465.232 251.604Z" fill="#D85A2E"/>
<path d="M202.401 304.427C213.198 293.957 213.198 276.981 202.401 266.511C191.603 256.041 174.097 256.041 163.299 266.511C152.501 276.981 152.501 293.957 163.299 304.427C174.097 314.897 191.603 314.897 202.401 304.427Z" fill="#FFC466"/>
<path d="M182.849 308.995C178.05 308.997 173.358 307.619 169.367 305.035C165.376 302.452 162.264 298.778 160.426 294.479C158.588 290.18 158.106 285.45 159.041 280.885C159.976 276.321 162.286 272.128 165.679 268.836C169.071 265.545 173.394 263.303 178.101 262.394C182.808 261.486 187.687 261.951 192.121 263.732C196.555 265.512 200.345 268.527 203.011 272.397C205.678 276.266 207.101 280.815 207.101 285.468C207.092 291.704 204.535 297.681 199.989 302.091C195.443 306.501 189.28 308.984 182.849 308.995ZM182.849 263.093C178.286 263.093 173.824 264.405 170.029 266.864C166.235 269.322 163.277 272.817 161.531 276.906C159.784 280.994 159.327 285.493 160.217 289.834C161.108 294.174 163.306 298.161 166.533 301.291C169.76 304.42 173.871 306.551 178.348 307.414C182.824 308.278 187.464 307.835 191.68 306.141C195.896 304.447 199.5 301.579 202.036 297.9C204.571 294.22 205.925 289.894 205.925 285.468C205.916 279.537 203.482 273.85 199.157 269.656C194.831 265.461 188.967 263.101 182.849 263.093Z" fill="#D85A2E"/>
<path d="M182.371 300.009V299.755C182.323 299.406 182.305 299.052 182.317 298.7L182.262 297.644H181.304C180.199 297.663 179.098 297.52 178.037 297.221C177.471 297.031 177.187 296.799 177.187 296.545C177.183 296.425 177.207 296.305 177.258 296.195C177.309 296.085 177.385 295.988 177.481 295.912C177.734 295.726 178.047 295.635 178.364 295.658C178.906 295.685 179.443 295.774 179.964 295.922C180.415 296.055 180.878 296.143 181.347 296.186C181.631 296.181 181.915 296.16 182.197 296.123L181.718 286.619L181.609 284.602C179.966 283.289 178.427 281.86 177.002 280.326C176.213 279.446 175.77 278.324 175.75 277.158C175.781 276.645 175.923 276.143 176.167 275.687C176.411 275.23 176.751 274.828 177.166 274.507C178.273 273.565 179.593 272.888 181.021 272.533V271.403C181.021 270.812 181.249 270.516 181.707 270.516C181.863 270.515 182.018 270.546 182.161 270.608C182.304 270.67 182.431 270.761 182.534 270.875C182.762 271.113 182.887 271.427 182.883 271.751V272.184C183.963 272.016 185.055 271.928 186.15 271.92C186.79 271.922 187.425 272.036 188.023 272.258C188.525 272.421 188.968 272.722 189.297 273.124L188.393 273.811C187.77 273.798 187.148 273.752 186.531 273.673C185.602 273.61 184.926 273.578 184.505 273.578C184.006 273.578 183.508 273.61 183.013 273.673L183.754 283.895C184.603 284.599 185.289 285.169 185.812 285.606C186.324 286.07 186.901 286.662 187.489 287.274C188.557 288.44 189.159 289.938 189.188 291.498C189.189 292.686 188.808 293.845 188.099 294.814C187.324 295.877 186.223 296.675 184.952 297.094V299.565C184.98 299.767 184.959 299.973 184.89 300.165C184.822 300.358 184.708 300.533 184.558 300.675C184.408 300.818 184.226 300.924 184.025 300.986C183.825 301.049 183.613 301.065 183.405 301.033C182.665 301.023 182.371 300.685 182.371 300.009ZM181.413 280.843C181.304 279.397 181.195 277.158 181.086 274.148C180.303 274.428 179.592 274.871 179.006 275.447C178.573 275.838 178.308 276.374 178.266 276.947C178.275 277.828 178.552 278.687 179.06 279.418C179.743 280.381 180.552 281.254 181.467 282.015L181.413 280.843ZM186.041 293.346C186.388 292.77 186.59 292.122 186.629 291.456C186.629 289.977 185.707 288.372 183.863 286.64L184.494 295.088C185.132 294.62 185.659 294.026 186.041 293.346Z" fill="#D85A2E"/>
<path d="M169.248 297.359C167.07 291.614 168.464 292.987 162.54 290.864C168.464 288.752 167.048 290.104 169.248 284.36C171.426 290.104 170.021 288.731 175.945 290.864C170.021 292.955 171.437 291.614 169.248 297.359Z" fill="white"/>
<path d="M359.884 87.7462C363.622 72.2072 353.661 56.6721 337.637 53.0475C321.612 49.4229 305.591 59.0813 301.853 74.6203C298.115 90.1593 308.076 105.694 324.1 109.319C340.125 112.944 356.146 103.285 359.884 87.7462Z" fill="#FFC466"/>
<path d="M330.841 106.515C325.672 106.515 320.619 105.028 316.321 102.244C312.023 99.4589 308.674 95.5009 306.695 90.8701C304.717 86.2392 304.2 81.1436 305.208 76.2275C306.217 71.3114 308.706 66.7957 312.361 63.2514C316.016 59.7071 320.673 57.2935 325.743 56.3156C330.812 55.3377 336.067 55.8396 340.843 57.7578C345.619 59.6759 349.7 62.9242 352.572 67.0918C355.444 71.2595 356.977 76.1593 356.977 81.1717C356.977 87.8931 354.223 94.3392 349.322 99.0919C344.421 103.845 337.773 106.515 330.841 106.515ZM330.841 57.0535C325.923 57.0577 321.116 58.4758 317.029 61.1284C312.942 63.7811 309.757 67.5493 307.878 71.9567C305.999 76.3641 305.509 81.2128 306.472 85.8898C307.434 90.5669 309.804 94.8624 313.284 98.2332C316.763 101.604 321.195 103.899 326.019 104.828C330.843 105.757 335.843 105.278 340.386 103.452C344.93 101.626 348.813 98.5345 351.545 94.5688C354.277 90.6031 355.735 85.9409 355.735 81.1717C355.727 74.7741 353.101 68.6412 348.433 64.1194C343.766 59.5976 337.439 57.0563 330.841 57.0535Z" fill="#D85A2E"/>
<path d="M330.319 96.8421V96.5465C330.275 96.1644 330.257 95.7799 330.264 95.3955L330.199 94.2339H329.175C327.972 94.2594 326.771 94.1063 325.615 93.7799C324.994 93.5687 324.689 93.3258 324.689 93.0407C324.686 92.9123 324.713 92.7848 324.767 92.6678C324.822 92.5509 324.903 92.4473 325.005 92.3649C325.278 92.1705 325.614 92.0769 325.952 92.1009C326.538 92.1269 327.119 92.219 327.684 92.3754C328.169 92.5235 328.669 92.6192 329.175 92.6605C329.482 92.6564 329.787 92.6317 330.09 92.5866L329.578 82.386L329.459 80.2108C327.681 78.8013 326.021 77.2584 324.493 75.5962C323.629 74.6404 323.149 73.4143 323.143 72.1432C323.175 71.5905 323.327 71.0507 323.59 70.5592C323.853 70.0678 324.22 69.6359 324.667 69.2921C325.857 68.2717 327.284 67.5469 328.827 67.1802L328.773 65.9553C328.773 65.3217 329.012 65.0049 329.513 65.0049C329.681 65.0034 329.848 65.0364 330.002 65.102C330.156 65.1675 330.293 65.264 330.406 65.3851C330.652 65.6431 330.785 65.984 330.776 66.3354V66.7895C331.936 66.614 333.109 66.5222 334.283 66.515C334.969 66.5107 335.65 66.6363 336.287 66.8845C336.833 67.053 337.315 67.3767 337.669 67.8138L336.689 68.5424C336.019 68.5351 335.35 68.4893 334.686 68.4051C333.684 68.3312 332.965 68.2995 332.508 68.2995C331.972 68.2979 331.437 68.3332 330.907 68.4051L331.713 79.4188C332.628 80.1368 333.368 80.7493 333.891 81.2562C334.413 81.763 335.045 82.3121 335.698 83.0619C336.852 84.321 337.501 85.9397 337.528 87.6236C337.524 88.9056 337.105 90.1539 336.33 91.1927C335.497 92.3384 334.311 93.1995 332.943 93.6531V96.3142C332.973 96.5317 332.95 96.753 332.876 96.9605C332.802 97.168 332.68 97.356 332.518 97.5096C332.357 97.6633 332.16 97.7783 331.945 97.8458C331.73 97.9132 331.501 97.9311 331.277 97.8981C330.689 97.9298 330.319 97.6024 330.319 96.8421ZM329.23 76.1876C329.121 74.6247 329.001 72.2066 328.892 68.9648C328.044 69.2613 327.277 69.7416 326.649 70.3692C326.183 70.7875 325.895 71.3603 325.843 71.9743C325.853 72.9275 326.152 73.8567 326.704 74.6458C327.437 75.6817 328.304 76.6221 329.284 77.4442L329.23 76.1876ZM334.228 89.6511C334.607 89.0317 334.824 88.3321 334.86 87.613C334.86 86.0291 333.858 84.2973 331.876 82.4283L332.562 91.5835C333.272 91.0668 333.859 90.4076 334.283 89.6511H334.228Z" fill="#D85A2E"/>
<path d="M315.258 86.557C313.08 80.8126 314.485 82.1853 308.55 80.0523C314.485 77.9404 313.058 79.3025 315.258 73.5581C317.436 79.3025 316.031 77.9298 321.955 80.0523C316.031 82.1853 317.447 80.8126 315.258 86.557Z" fill="white"/>
<path d="M320.692 95.2899C319.211 91.4251 320.169 92.3544 316.184 90.9183C320.169 89.4927 319.211 90.4114 320.692 86.5571C322.162 90.4114 321.215 89.4927 325.189 90.9183C321.215 92.3227 322.162 91.4251 320.692 95.2899Z" fill="white"/>
</g>
<defs>
<linearGradient id="paint0_linear_314_4432" x1="485.34" y1="145.341" x2="485.34" y2="183.075" gradientUnits="userSpaceOnUse">
<stop stop-color="#A3FFCD"/>
<stop offset="1" stop-color="#0D7046"/>
</linearGradient>
<linearGradient id="paint1_linear_314_4432" x1="46.0559" y1="12.7233" x2="46.0559" y2="50.4782" gradientUnits="userSpaceOnUse">
<stop stop-color="#A3FFCD"/>
<stop offset="1" stop-color="#0D7046"/>
</linearGradient>
<linearGradient id="paint2_linear_314_4432" x1="334.277" y1="313.017" x2="334.277" y2="350.755" gradientUnits="userSpaceOnUse">
<stop stop-color="#A3A3FF"/>
<stop offset="1" stop-color="#1F1FFF"/>
</linearGradient>
<linearGradient id="paint3_linear_314_4432" x1="256.093" y1="164.134" x2="256.093" y2="377.495" gradientUnits="userSpaceOnUse">
<stop stop-color="#F17F93"/>
<stop offset="1" stop-color="#8B4955"/>
</linearGradient>
<linearGradient id="paint4_linear_314_4432" x1="280.588" y1="71.5032" x2="280.588" y2="207.162" gradientUnits="userSpaceOnUse">
<stop stop-color="#493CE0"/>
<stop offset="1" stop-color="#28217A"/>
</linearGradient>
<linearGradient id="paint5_linear_314_4432" x1="230.468" y1="67.9075" x2="230.468" y2="210.763" gradientUnits="userSpaceOnUse">
<stop stop-color="#493CE0"/>
<stop offset="1" stop-color="#28217A"/>
</linearGradient>
<linearGradient id="paint6_linear_314_4432" x1="251.49" y1="70.1157" x2="251.49" y2="142.246" gradientUnits="userSpaceOnUse">
<stop stop-color="#493CE0"/>
<stop offset="1" stop-color="#28217A"/>
</linearGradient>
<linearGradient id="paint7_linear_314_4432" x1="275.583" y1="80.0581" x2="275.583" y2="141.33" gradientUnits="userSpaceOnUse">
<stop stop-color="#493CE0"/>
<stop offset="1" stop-color="#28217A"/>
</linearGradient>
<linearGradient id="paint8_linear_314_4432" x1="107.262" y1="26.1596" x2="107.262" y2="287.134" gradientUnits="userSpaceOnUse">
<stop stop-color="#A3A3FF"/>
<stop offset="1" stop-color="#1F1FFF"/>
</linearGradient>
<clipPath id="clip0_314_4432">
<rect width="522" height="404" fill="white"/>
</clipPath>
</defs>
</svg>
