<svg width="1440" height="544" viewBox="0 0 1440 544" fill="none"
    xmlns="http://www.w3.org/2000/svg">
    <path d="M0 0H1440V544L1429.5 521.571C1367.43 389.016 1218.34 319.491 1079.69 366.387C1006.65 391.093 935.546 418.013 896.5 440.5C801 495.5 761.5 494.449 622.5 500.5C502.48 505.724 332.192 493.401 277.007 488.994C264.929 488.029 252.928 487.7 240.817 488.099L190.554 489.756C175.539 490.251 160.583 491.874 145.811 494.609L102.709 502.591C83.2839 506.188 64.2614 511.695 45.9188 519.032L36 523L0 541.5V0Z" fill="#135DC8"/>
    <path d="M0 0H1440V544L1429.5 521.571C1367.43 389.016 1218.34 319.491 1079.69 366.387C1006.65 391.093 935.546 418.013 896.5 440.5C801 495.5 761.5 494.449 622.5 500.5C502.48 505.724 332.192 493.401 277.007 488.994C264.929 488.029 252.928 487.7 240.817 488.099L190.554 489.756C175.539 490.251 160.583 491.874 145.811 494.609L102.709 502.591C83.2839 506.188 64.2614 511.695 45.9188 519.032L36 523L0 541.5V0Z" fill="url(#paint0_linear_184_2828)" fill-opacity="0.6"/>
    <defs>
        <linearGradient id="paint0_linear_184_2828" x1="720" y1="0" x2="720" y2="435.643" gradientUnits="userSpaceOnUse">
            <stop stop-opacity="0"/>
            <stop offset="1" stop-color="#3A037F"/>
        </linearGradient>
    </defs>
</svg>
