<svg width="100" height="96" viewBox="0 0 100 96" fill="none" xmlns="http://www.w3.org/2000/svg">
<path d="M71.9715 63.0469C71.9715 57.9219 76.1395 53.752 81.2625 53.752C86.3875 53.752 90.5574 57.9219 90.5574 63.0469C90.5574 68.1738 86.3875 72.3438 81.2625 72.3438C76.1395 72.3438 71.9715 68.1738 71.9715 63.0469ZM18.7332 72.3438C23.8582 72.3438 28.0281 68.1738 28.0281 63.0469C28.0281 57.9219 23.8582 53.752 18.7332 53.752C13.6102 53.752 9.44416 57.9219 9.44416 63.0469C9.44416 68.1738 13.6102 72.3438 18.7332 72.3438ZM89.9813 75.0781H85.3074H82.5418L83.4637 81.2363L81.2625 84.9297L79.0653 81.2363L79.9871 75.0781H77.2215H72.5477C70.5633 75.0781 68.7137 75.8672 67.3465 77.2734C68.2313 78.7656 68.7391 80.5039 68.7391 82.3594V95.7227H97.2664V82.3594C97.2664 78.3438 93.9988 75.0781 89.9813 75.0781ZM58.7176 75.0781H54.0418H51.2762L52.2 81.2363L49.9989 84.9297L47.8016 81.2363L48.7235 75.0781H45.9578H41.284C37.2664 75.0781 33.9969 78.3438 33.9969 82.3594V95.7227H66.0028V82.3594C66.0028 78.3438 62.7352 75.0781 58.7176 75.0781ZM22.7781 75.0781H20.0125L20.9344 81.2363L18.7332 84.9297L16.5379 81.2363L17.4598 75.0781H14.6942H10.0184C6.0008 75.0781 2.73323 78.3438 2.73323 82.3594V95.7227H31.2625V82.3594C31.2625 80.5039 31.7703 78.7656 32.6531 77.2734C31.286 75.8672 29.4383 75.0781 27.4539 75.0781H22.7781ZM40.7078 63.0469C40.7078 68.1738 44.8758 72.3438 49.9969 72.3438C55.1238 72.3438 59.2938 68.1738 59.2938 63.0469C59.2938 57.9219 55.1238 53.752 49.9969 53.752C44.8758 53.752 40.7078 57.9219 40.7078 63.0469ZM28.9207 17.7285L40.8856 26.3848L36.2957 40.4238C36.1121 40.9863 36.3113 41.6055 36.7918 41.9551C37.2723 42.3027 37.9227 42.3027 38.4012 41.9531L50.3348 33.2461L62.2625 41.9531C62.5028 42.1289 62.786 42.2148 63.0692 42.2148C63.3504 42.2148 63.6336 42.1289 63.8719 41.9551C64.3524 41.6055 64.5535 40.9883 64.368 40.4238L59.7781 26.3848L71.743 17.7285C72.2235 17.3809 72.4266 16.7637 72.243 16.1992C72.0594 15.6348 71.534 15.2539 70.9422 15.2539C70.9403 15.2539 70.9403 15.2539 70.9403 15.2539L56.1688 15.2793L51.6375 1.22461C51.5457 0.941406 51.368 0.705078 51.1395 0.539063C50.911 0.373047 50.6317 0.277344 50.3348 0.277344C49.741 0.277344 49.2156 0.660156 49.034 1.22461L44.4949 15.2793L29.7254 15.2539H29.7235C29.1297 15.2539 28.6063 15.6348 28.4227 16.1992C28.2391 16.7637 28.4403 17.3809 28.9207 17.7285ZM99.9344 29.375C99.7528 28.8105 99.2274 28.4297 98.6356 28.4297C98.6336 28.4297 98.6336 28.4297 98.6317 28.4297L88.0262 28.4492L84.7664 18.3594C84.6766 18.0781 84.4988 17.8398 84.2703 17.6738C84.0418 17.5078 83.7625 17.4121 83.4657 17.4121C82.8719 17.4121 82.3465 17.7949 82.1629 18.3613L78.909 28.4492L68.3035 28.4297C68.3016 28.4297 68.3016 28.4297 68.3016 28.4297C67.7078 28.4297 67.1844 28.8105 67.0008 29.375C66.8172 29.9395 67.0184 30.5566 67.4989 30.9043L76.0926 37.125L72.7918 47.2051C72.6082 47.7695 72.8074 48.3867 73.2879 48.7363C73.5281 48.9102 73.8094 48.998 74.0926 48.998C74.3739 48.998 74.6571 48.9102 74.8973 48.7344L83.4657 42.4844L92.0321 48.7344C92.5125 49.084 93.161 49.0859 93.6414 48.7363C94.1219 48.3887 94.3231 47.7695 94.1375 47.2051L90.8446 37.125L99.4363 30.9043C99.9168 30.5566 100.118 29.9395 99.9344 29.375ZM31.7 28.4297C31.6981 28.4297 31.6981 28.4297 31.6961 28.4297L21.0906 28.4492L17.8367 18.3613C17.7469 18.0781 17.5692 17.8398 17.3406 17.6738C17.1121 17.5078 16.8328 17.4121 16.536 17.4121C15.9422 17.4121 15.4168 17.7949 15.2332 18.3594L11.9754 28.4492L1.36799 28.4297H1.36604C0.774241 28.4297 0.24885 28.8105 0.0652567 29.375C-0.118337 29.9395 0.0828348 30.5566 0.563304 30.9043L9.15705 37.125L5.86213 47.2051C5.67854 47.7695 5.87776 48.3887 6.35823 48.7363C6.59846 48.9102 6.87971 48.998 7.16291 48.998C7.44612 48.998 7.72737 48.9102 7.9676 48.7344L16.536 42.4863L25.0965 48.7344C25.577 49.084 26.2254 49.0859 26.7059 48.7363C27.1863 48.3887 27.3875 47.7695 27.202 47.2051L23.909 37.125L32.5008 30.9043C32.9813 30.5566 33.1844 29.9395 33.0008 29.375C32.8172 28.8105 32.2918 28.4297 31.7 28.4297Z" fill="url(#paint0_linear_338_606)"/>
<defs>
<linearGradient id="paint0_linear_338_606" x1="49.9989" y1="0.274736" x2="49.9989" y2="95.7255" gradientUnits="userSpaceOnUse">
<stop stop-color="#A3A3FF"/>
<stop offset="1" stop-color="#1F1FFF"/>
</linearGradient>
</defs>
</svg>
