<svg width="96" height="96" viewBox="0 0 96 96" fill="none"
    xmlns="http://www.w3.org/2000/svg">
    <path d="M82.2591 68.666C74.7828 68.666 68.6849 74.7638 68.6849 82.2402C68.6849 89.7166 74.7826 95.8144 82.2591 95.8144C89.7357 95.8144 95.8334 89.7166 95.8334 82.2402C95.8334 74.7638 89.7355 68.666 82.2591 68.666ZM89.6267 78.9523L79.9015 88.6775C79.4257 89.1533 78.8146 89.3607 78.1474 89.273C77.4804 89.1853 76.9437 88.8265 76.6072 88.2439L73.3595 82.6189C72.8275 81.6974 73.1462 80.5082 74.0677 79.976C74.9892 79.4439 76.1785 79.7627 76.7105 80.6842L78.8013 84.3056L86.8906 76.2164C87.6429 75.464 88.8742 75.464 89.6267 76.2164C90.3791 76.9689 90.3791 78.1998 89.6267 78.9523ZM13.1943 51.2709L17.958 45.3117L13.1943 39.3523C13.0421 39.1621 13.0144 38.9176 13.1201 38.698C13.2255 38.4787 13.4341 38.3476 13.6775 38.3476H27.2783V46.2933C27.2783 48.2832 28.9062 49.9113 30.8962 49.9113H33.2232V51.2771C33.2232 51.8273 32.7746 52.276 32.2244 52.276H13.6777C13.4341 52.276 13.2257 52.1449 13.1203 51.9254C13.0148 51.706 13.0425 51.4613 13.1945 51.2711L13.1943 51.2709ZM65.1392 49.9109C67.1291 49.9109 68.7572 48.2828 68.7572 46.2929V38.3472H82.3578C82.6013 38.3472 82.8097 38.4783 82.9152 38.6976C83.0207 38.9172 82.9929 39.1617 82.841 39.3519L78.0771 45.3113L82.841 51.2705C82.9929 51.4607 83.0209 51.7054 82.9152 51.9248C82.8097 52.1443 82.6011 52.2754 82.3578 52.2754H63.8111C63.2609 52.2754 62.8123 51.8267 62.8123 51.2765V49.9107H65.1392V49.9109ZM12.4089 64.3086V57.6435C12.4089 56.8885 13.021 56.2763 13.7761 56.2763H46.6503V52.5898C46.6503 51.8347 47.2625 51.2226 48.0175 51.2226C48.7726 51.2226 49.3847 51.8347 49.3847 52.5898V56.2763H82.2591C83.0142 56.2763 83.6263 56.8885 83.6263 57.6435V64.3086C83.6263 65.0637 83.0142 65.6758 82.2591 65.6758C81.5041 65.6758 80.8919 65.0637 80.8919 64.3086V59.0107H49.3847V64.3086C49.3847 65.0637 48.7726 65.6758 48.0175 65.6758C47.2625 65.6758 46.6503 65.0637 46.6503 64.3086V59.0107H15.1433V64.3086C15.1433 65.0637 14.5312 65.6758 13.7761 65.6758C13.021 65.6758 12.4089 65.0637 12.4089 64.3086ZM25.3101 69.2306H16.2976C15.914 69.2306 15.5839 69.3674 15.3128 69.6386L0.572803 84.3783C0.0304199 84.9207 0.0304199 85.8055 0.572803 86.3478L9.66831 95.4433C10.2107 95.9857 11.0955 95.9857 11.6378 95.4433L26.3779 80.7033C26.6492 80.4322 26.7857 80.1021 26.7857 79.7185V70.706C26.7857 69.8931 26.1228 69.2303 25.3101 69.2303V69.2306ZM10.5072 90.4469L5.56968 85.5094L7.50288 83.5761L12.4404 88.5136L10.5072 90.4469ZM13.9648 86.9892L9.02729 82.0517L10.9605 80.1185L15.898 85.056L13.9648 86.9892ZM23.1169 75.7152C22.3394 76.4928 21.0789 76.4928 20.3015 75.7152C19.524 74.9377 19.524 73.6771 20.3015 72.8998C21.0791 72.1222 22.3396 72.1222 23.1169 72.8998C23.8945 73.6773 23.8945 74.9379 23.1169 75.7152ZM48.0177 68.6662C40.5414 68.6662 34.4435 74.764 34.4435 82.2406C34.4435 89.7172 40.5412 95.815 48.0177 95.815C55.4943 95.815 61.5919 89.7172 61.5919 82.2406C61.5919 74.764 55.4941 68.6662 48.0177 68.6662ZM53.2824 85.6027C53.1261 86.884 52.3212 88.0023 51.1322 88.5945C50.6105 88.8543 50.0148 89.0342 49.3839 89.134V90.1715C49.3839 90.9265 48.773 91.5385 48.0169 91.5385C47.2609 91.5385 46.649 90.9265 46.649 90.1715V89.0795C45.0542 88.7687 43.5988 87.9676 42.8918 86.6769C42.5302 86.0152 42.7722 85.1828 43.4349 84.8215C44.0966 84.458 44.9271 84.7 45.2904 85.3646C45.8609 86.4058 48.4968 86.8531 49.9156 86.1451C50.2791 85.9662 50.5228 85.6377 50.5679 85.2724C50.5943 85.0504 50.6396 84.6765 49.8919 84.2369C49.2546 83.864 48.4658 83.6748 47.6316 83.4771C47.2898 83.3953 46.9349 83.3115 46.5753 83.2097C45.4927 82.9095 44.1494 82.3974 43.3462 81.1123C42.482 79.7275 42.6845 77.9793 43.8527 76.7629C44.5164 76.0709 45.5162 75.5908 46.6486 75.3799V74.3095C46.6486 73.5537 47.2605 72.9426 48.0166 72.9426C48.7726 72.9426 49.3835 73.5535 49.3835 74.3095V75.3875C51.0083 75.6943 52.2802 76.5162 52.9054 77.675C53.2623 78.3387 53.0146 79.1691 52.3509 79.5267C51.6843 79.8836 50.8568 79.6359 50.4972 78.9713C50.2535 78.5166 49.5398 78.1588 48.6398 78.0355C47.5025 77.8803 46.3193 78.141 45.825 78.6549C45.647 78.8422 45.39 79.2197 45.6667 79.6631C45.9068 80.049 46.3992 80.323 47.3095 80.5771C47.6203 80.6627 47.9328 80.7371 48.264 80.8172C49.2582 81.0535 50.2863 81.2972 51.2765 81.8801C52.7564 82.749 53.4671 84.0707 53.2818 85.6023L53.2824 85.6027ZM36.781 33.2486H30.8962C30.4101 33.2486 30.0126 33.6463 30.0126 34.1322V46.2931C30.0126 46.7793 30.4103 47.1767 30.8962 47.1767H65.1396C65.6255 47.1767 66.0232 46.7791 66.0232 46.2931V34.1322C66.0232 33.6463 65.6255 33.2486 65.1396 33.2486H59.2548C63.6447 29.8746 66.475 24.5717 66.475 18.6068C66.475 8.41345 58.2115 0.14978 48.0179 0.14978C37.8244 0.14978 29.5609 8.41345 29.5609 18.6068C29.5609 24.5717 32.3912 29.8744 36.7812 33.2486H36.781ZM48.0177 3.0783C56.5939 3.0783 63.5462 10.0308 63.5462 18.6068C63.5462 27.1828 56.5939 34.1355 48.0177 34.1355C39.4416 34.1355 32.4892 27.1832 32.4892 18.6068C32.4892 10.0304 39.4417 3.0783 48.0177 3.0783ZM37.1406 25.4039C38.5675 20.7502 42.8964 17.3662 48.0177 17.3662C53.139 17.3662 57.4679 20.7502 58.8949 25.4039C56.5722 28.9437 52.5687 31.2818 48.0177 31.2818C43.4668 31.2818 39.4632 28.9439 37.1406 25.4039ZM43.0156 10.9344C43.0156 8.17165 45.2552 5.9322 48.0179 5.9322C50.7806 5.9322 53.0203 8.17165 53.0203 10.9344C53.0203 13.697 50.7806 15.9367 48.0179 15.9367C45.2552 15.9367 43.0156 13.697 43.0156 10.9344Z" fill="url(#paint0_linear_338_590)"/>
    <defs>
        <linearGradient id="paint0_linear_338_590" x1="47.9988" y1="0.147165" x2="47.9988" y2="95.853" gradientUnits="userSpaceOnUse">
            <stop stop-color="#A3A3FF"/>
            <stop offset="1" stop-color="#1F1FFF"/>
        </linearGradient>
    </defs>
</svg>
