<svg width="92" height="82" viewBox="0 0 92 82" fill="none" xmlns="http://www.w3.org/2000/svg">
<path fill-rule="evenodd" clip-rule="evenodd" d="M88.3223 54.1125L49.6551 71.0328C49.3426 71.1688 48.9957 71.2 48.666 71.1203L22.5629 64.8906V70.0422C22.5629 70.7016 22.1504 71.2891 21.5301 71.5125C20.9098 71.736 20.216 71.5453 19.7973 71.0375L16.7582 67.3656L14.0098 69.0657C13.527 69.3641 12.9223 69.3766 12.427 69.1016C11.9316 68.825 11.6254 68.3031 11.6254 67.7359V62.2813L1.42383 59.8469C0.866016 61.0313 0.533203 62.4422 0.533203 63.9813C0.533203 67.8203 2.59883 70.8063 5.05977 71.5328C5.08633 71.5406 5.11289 71.5484 5.13945 71.5547L48.666 81.9422C48.9957 82.0203 49.3426 81.9891 49.6551 81.8531L90.377 64.0344C91.166 63.6891 91.527 62.7672 91.1816 61.9766C90.9941 61.5469 90.6348 61.2453 90.2207 61.1141C90.2113 61.111 90.202 61.1078 90.1926 61.1047C89.7176 60.9641 89.3051 60.6172 88.9613 60.1594C88.2957 59.2719 87.9066 57.9891 87.9066 56.55C87.9066 55.6641 88.0535 54.8328 88.3223 54.1125ZM90.377 39.7156L49.6551 57.5328C49.3426 57.6703 48.9957 57.7 48.666 57.6219L2.10195 46.5094C1.1457 47.8813 0.533203 49.7344 0.533203 51.8203C0.533203 53.7281 1.04258 55.4235 1.85664 56.7375L11.6254 59.0688V56.5844C11.6254 55.0984 12.5613 53.6375 14.552 53.3828C15.4066 53.2719 16.191 53.8781 16.3004 54.7328C16.4098 55.5891 15.8051 56.3719 14.9488 56.4813C14.8473 56.4953 14.7504 56.5078 14.7504 56.5844V64.9328L16.2723 63.9922C16.9363 63.5828 17.8004 63.725 18.2973 64.325L19.4379 65.7031V58.6609C19.4379 57.4672 20.3113 55.5203 22.6457 55.2125C23.5004 55.0984 24.2863 55.7016 24.3988 56.5563C24.5113 57.4109 23.9098 58.1969 23.0551 58.3094C22.7551 58.35 22.5629 58.5078 22.5629 58.6609V61.6781L48.8816 67.9594L91.0129 49.525C90.8176 49.2547 90.5363 49.0469 90.1926 48.9453C88.7441 48.5172 87.6863 47.0719 87.3941 44.8125C87.2145 43.4266 87.8441 42.0094 88.6473 40.975C89.0457 40.4641 89.7816 39.9703 90.377 39.7156ZM71.0004 32.1656V41.0281C71.0004 41.4766 70.8082 41.9031 70.4723 42.2C70.1379 42.4969 69.691 42.6344 69.2457 42.5797C61.1582 41.5781 53.177 41.575 46.2707 45.1578C45.8332 45.3844 45.316 45.3922 44.8738 45.1781C36.9113 41.3516 29.4676 41.5234 22.8066 42.5719C22.3551 42.6438 21.8941 42.5141 21.5473 42.2172C21.2004 41.9203 21.0004 41.486 21.0004 41.0281V37.2281L5.35664 44.0734L48.8816 54.461L89.6051 36.6422L71.0004 32.1656ZM24.1254 21.8703C36.1848 17.5453 56.3098 17.6141 67.8754 21.861V39.275C60.1707 38.45 52.2582 38.7359 45.527 42.0328C37.9176 38.5297 30.4754 38.3719 24.1254 39.2219V21.8703ZM21.0004 24.0594V20.786C21.0004 20.1406 21.3957 19.5625 21.9973 19.3297C35.1082 14.2406 57.4973 14.3391 70.0176 19.3344C70.6113 19.5719 71.0004 20.1469 71.0004 20.786V24.7828L81.9332 20.3953C81.9301 20.9906 81.927 21.5828 81.9238 22.1578C81.377 22.9891 80.1754 24.8844 79.3738 26.6313C78.8285 27.8219 78.4863 28.9703 78.4863 29.7797C78.4863 32.5469 80.7332 34.7938 83.5004 34.7938C86.2676 34.7938 88.5145 32.5469 88.5145 29.7797C88.5145 28.9703 88.1723 27.8219 87.627 26.6313C86.8113 24.8547 85.5816 22.925 85.0488 22.1172C85.0551 21.15 85.0582 20.1375 85.0613 19.1391L90.3316 17.0235C90.9441 16.7781 91.3363 16.175 91.3113 15.5172C91.2879 14.8578 90.8535 14.286 90.2254 14.0844L85.0035 12.4172L85.002 12.3969C84.7176 6.1047 76.6223 3.6094 72.891 8.42033C72.8645 8.45471 72.8379 8.49063 72.8145 8.52657L46.3832 0.0890822C46.0738 -0.00935528 45.741 -0.00936807 45.4316 0.0906319L1.72539 14.0859C1.08789 14.2891 0.651953 14.875 0.639453 15.5438C0.626953 16.2125 1.03945 16.8141 1.66914 17.0422L21.0004 24.0594ZM83.5004 25.5282C83.7801 26 84.0754 26.5203 84.3504 27.0485C84.8801 28.0656 85.3895 29.0922 85.3895 29.7797C85.3895 30.8219 84.5426 31.6688 83.5004 31.6688C82.4582 31.6688 81.6113 30.8219 81.6113 29.7797C81.6113 29.0922 82.1207 28.0656 82.6504 27.0485C82.9254 26.5203 83.2207 26 83.5004 25.5282ZM81.6316 11.3422C81.2082 10.261 80.3051 9.50157 79.2723 9.17345C78.2395 8.84532 77.0801 8.94845 76.1457 9.59063L81.6316 11.3422Z" fill="url(#paint0_linear_338_596)"/>
<defs>
<linearGradient id="paint0_linear_338_596" x1="45.9221" y1="0.0132021" x2="45.9221" y2="81.9868" gradientUnits="userSpaceOnUse">
<stop stop-color="#A3A3FF"/>
<stop offset="1" stop-color="#1F1FFF"/>
</linearGradient>
</defs>
</svg>
