<svg width="278" height="317" viewBox="0 0 278 317" fill="none" xmlns="http://www.w3.org/2000/svg">
<mask id="mask0_314_3995" style="mask-type:alpha" maskUnits="userSpaceOnUse" x="5" y="44" width="228" height="228">
<circle cx="119.045" cy="158.046" r="113.5" transform="rotate(55.0594 119.045 158.046)" fill="#DFEAFC"/>
</mask>
<g mask="url(#mask0_314_3995)">
<rect x="137.918" y="-13.116" width="8" height="227" transform="rotate(55.0594 137.918 -13.116)" fill="#DFEAFC"/>
<rect x="211.228" y="91.8116" width="8" height="227" transform="rotate(55.0594 211.228 91.8116)" fill="#DFEAFC"/>
<rect x="174.573" y="39.3478" width="8" height="227" transform="rotate(55.0594 174.573 39.3478)" fill="#DFEAFC"/>
<rect x="247.882" y="144.275" width="8" height="227" transform="rotate(55.0594 247.882 144.275)" fill="#DFEAFC"/>
<rect x="156.246" y="13.116" width="8" height="227" transform="rotate(55.0594 156.246 13.116)" fill="#DFEAFC"/>
<rect x="229.555" y="118.043" width="8" height="227" transform="rotate(55.0594 229.555 118.043)" fill="#DFEAFC"/>
<rect x="192.9" y="65.5797" width="8" height="227" transform="rotate(55.0594 192.9 65.5797)" fill="#DFEAFC"/>
<rect x="266.209" y="170.507" width="8" height="227" transform="rotate(55.0594 266.209 170.507)" fill="#DFEAFC"/>
<rect x="147.082" width="8" height="227" transform="rotate(55.0594 147.082 0)" fill="#DFEAFC"/>
<rect x="220.391" y="104.928" width="8" height="227" transform="rotate(55.0594 220.391 104.928)" fill="#DFEAFC"/>
<rect x="183.736" y="52.4637" width="8" height="227" transform="rotate(55.0594 183.736 52.4637)" fill="#DFEAFC"/>
<rect x="257.046" y="157.391" width="8" height="227" transform="rotate(55.0594 257.046 157.391)" fill="#DFEAFC"/>
<rect x="165.409" y="26.2319" width="8" height="227" transform="rotate(55.0594 165.409 26.2319)" fill="#DFEAFC"/>
<rect x="238.719" y="131.159" width="8" height="227" transform="rotate(55.0594 238.719 131.159)" fill="#DFEAFC"/>
<rect x="202.063" y="78.6957" width="8" height="227" transform="rotate(55.0594 202.063 78.6957)" fill="#DFEAFC"/>
<rect x="275.373" y="183.623" width="8" height="227" transform="rotate(55.0594 275.373 183.623)" fill="#DFEAFC"/>
</g>
</svg>
