<svg width="400" height="394" viewBox="0 0 400 394" fill="none"
    xmlns="http://www.w3.org/2000/svg">
    <path d="M329.393 349.424C279.075 392.619 191.183 401.369 137.988 359.257C112.214 334.805 112.8 297.479 110.244 264.566C105.261 241.376 99.5562 218.482 82.696 200.865C43.5934 168.172 16.3675 135.775 45.4356 84.5162C105.821 1.37734 254.371 8.23783 322.626 78.6805C381.849 150.021 398.523 279.481 329.393 349.424Z" fill="#DFEAFC"/>
    <path d="M274.287 110.73C274.22 110.73 274.154 110.711 274.095 110.677C274.037 110.643 273.989 110.594 273.956 110.535L271.18 105.741C271.147 105.683 271.129 105.618 271.129 105.551C271.129 105.484 271.147 105.418 271.18 105.36L273.956 100.575C273.989 100.516 274.037 100.467 274.095 100.433C274.154 100.399 274.22 100.38 274.287 100.38C274.355 100.38 274.421 100.399 274.479 100.433C274.537 100.467 274.585 100.516 274.618 100.575L277.394 105.36C277.431 105.418 277.451 105.486 277.451 105.555C277.451 105.624 277.431 105.692 277.394 105.75L274.618 110.535C274.585 110.594 274.537 110.643 274.479 110.677C274.421 110.711 274.355 110.73 274.287 110.73ZM271.953 105.555L274.287 109.578L276.622 105.555L274.287 101.532L271.953 105.555Z" fill="#25292B"/>
    <path d="M267.725 103.539C267.292 103.539 266.869 103.411 266.509 103.171C266.148 102.931 265.868 102.59 265.702 102.19C265.536 101.791 265.493 101.352 265.577 100.928C265.662 100.504 265.87 100.114 266.177 99.8089C266.483 99.5033 266.873 99.2951 267.298 99.2108C267.723 99.1265 268.163 99.1698 268.564 99.3352C268.964 99.5006 269.306 99.7806 269.547 100.14C269.787 100.499 269.916 100.922 269.916 101.354C269.913 101.933 269.682 102.487 269.272 102.897C268.861 103.306 268.306 103.537 267.725 103.539ZM267.725 99.9311C267.443 99.9294 267.166 100.011 266.931 100.167C266.695 100.322 266.511 100.544 266.402 100.804C266.292 101.063 266.263 101.35 266.317 101.626C266.371 101.903 266.506 102.157 266.705 102.357C266.905 102.557 267.159 102.693 267.436 102.749C267.712 102.805 268 102.777 268.261 102.669C268.522 102.562 268.745 102.38 268.902 102.145C269.059 101.911 269.143 101.636 269.143 101.354C269.143 100.978 268.994 100.617 268.728 100.351C268.463 100.084 268.102 99.9333 267.725 99.9311Z" fill="#25292B"/>
    <path d="M274.177 98.1355C273.798 98.1355 273.426 98.023 273.111 97.8123C272.795 97.6016 272.549 97.3022 272.404 96.9519C272.259 96.6016 272.222 96.2163 272.296 95.8448C272.371 95.4733 272.555 95.1322 272.824 94.8648C273.093 94.5975 273.436 94.4158 273.808 94.3429C274.181 94.27 274.567 94.3092 274.918 94.4553C275.268 94.6015 275.567 94.8482 275.777 95.1641C275.987 95.48 276.098 95.8509 276.096 96.2298C276.096 96.4808 276.046 96.7293 275.95 96.9611C275.853 97.1928 275.712 97.4033 275.534 97.5803C275.355 97.7574 275.144 97.8976 274.911 97.9929C274.678 98.0882 274.429 98.1366 274.177 98.1355ZM274.177 95.0864C273.951 95.0864 273.729 95.1535 273.541 95.2791C273.352 95.4047 273.205 95.5833 273.119 95.7922C273.032 96.0012 273.009 96.2311 273.053 96.4529C273.098 96.6747 273.207 96.8784 273.367 97.0383C273.527 97.1982 273.731 97.3071 273.954 97.3513C274.176 97.3954 274.407 97.3727 274.616 97.2862C274.825 97.1997 275.004 97.0531 275.13 96.8651C275.256 96.677 275.323 96.456 275.323 96.2298C275.323 95.9266 275.203 95.6357 274.988 95.4213C274.773 95.2069 274.481 95.0864 274.177 95.0864Z" fill="#25292B"/>
    <path d="M267.725 96.0858C267.445 96.0858 267.17 96.0027 266.937 95.8469C266.703 95.6911 266.522 95.4697 266.415 95.2107C266.308 94.9518 266.28 94.6669 266.335 94.3923C266.391 94.1177 266.527 93.8657 266.726 93.6682C266.925 93.4708 267.178 93.3367 267.454 93.2831C267.73 93.2295 268.015 93.2587 268.274 93.3671C268.533 93.4754 268.754 93.658 268.908 93.8918C269.063 94.1255 269.145 94.3998 269.143 94.6799C269.143 94.8652 269.106 95.0487 269.035 95.2199C268.964 95.391 268.859 95.5464 268.727 95.6771C268.596 95.8077 268.439 95.9111 268.267 95.9813C268.095 96.0514 267.911 96.087 267.725 96.0858ZM267.725 94.0277C267.553 94.0299 267.389 94.0996 267.269 94.2217C267.148 94.3438 267.08 94.5084 267.08 94.6799C267.08 94.7644 267.097 94.8481 267.129 94.9262C267.162 95.0043 267.209 95.0753 267.269 95.135C267.329 95.1948 267.4 95.2422 267.478 95.2746C267.557 95.3069 267.641 95.3236 267.725 95.3236C267.81 95.3236 267.894 95.3069 267.972 95.2746C268.051 95.2422 268.122 95.1948 268.182 95.135C268.241 95.0753 268.289 95.0043 268.321 94.9262C268.354 94.8481 268.371 94.7644 268.371 94.6799C268.364 94.5128 268.293 94.3546 268.173 94.238C268.053 94.1213 267.893 94.0552 267.725 94.0531V94.0277Z" fill="#25292B"/>
    <path d="M332.194 286.062C332.126 286.061 332.059 286.043 331.999 286.009C331.94 285.975 331.89 285.926 331.855 285.867L328.23 279.608C328.196 279.55 328.179 279.484 328.179 279.417C328.179 279.35 328.196 279.285 328.23 279.227L331.855 272.968C331.89 272.909 331.94 272.86 331.999 272.826C332.059 272.792 332.126 272.773 332.194 272.773C332.261 272.771 332.327 272.788 332.386 272.821C332.444 272.854 332.492 272.901 332.526 272.959L336.159 279.227C336.193 279.285 336.21 279.35 336.21 279.417C336.21 279.484 336.193 279.55 336.159 279.608L332.526 285.867C332.493 285.926 332.445 285.975 332.386 286.009C332.328 286.043 332.262 286.061 332.194 286.062ZM329.036 279.413L332.22 284.91L335.404 279.413L332.194 273.95L329.036 279.413Z" fill="#25292B"/>
    <path d="M341.083 289.602C340.65 289.602 340.226 289.474 339.866 289.234C339.506 288.994 339.225 288.653 339.059 288.253C338.894 287.854 338.85 287.415 338.935 286.991C339.019 286.567 339.228 286.177 339.534 285.872C339.84 285.566 340.231 285.358 340.656 285.274C341.08 285.189 341.521 285.233 341.921 285.398C342.321 285.564 342.663 285.844 342.904 286.203C343.145 286.562 343.273 286.985 343.273 287.417C343.271 287.996 343.039 288.55 342.629 288.96C342.219 289.369 341.663 289.6 341.083 289.602ZM341.083 286.003C340.802 286.003 340.528 286.086 340.295 286.241C340.062 286.396 339.88 286.617 339.773 286.876C339.666 287.134 339.638 287.419 339.692 287.693C339.747 287.967 339.882 288.219 340.08 288.417C340.279 288.615 340.531 288.75 340.806 288.804C341.081 288.859 341.366 288.831 341.625 288.724C341.884 288.617 342.106 288.435 342.262 288.203C342.417 287.97 342.501 287.697 342.501 287.417C342.501 287.042 342.351 286.682 342.085 286.417C341.819 286.152 341.459 286.003 341.083 286.003Z" fill="#25292B"/>
    <path d="M328.765 270.562C328.385 270.564 328.013 270.453 327.697 270.244C327.38 270.034 327.133 269.736 326.986 269.386C326.84 269.037 326.801 268.652 326.874 268.28C326.947 267.908 327.129 267.566 327.397 267.298C327.665 267.029 328.007 266.846 328.379 266.771C328.751 266.697 329.138 266.734 329.489 266.879C329.84 267.023 330.14 267.269 330.351 267.584C330.562 267.899 330.675 268.269 330.675 268.648C330.675 269.154 330.474 269.64 330.116 269.999C329.758 270.357 329.272 270.56 328.765 270.562ZM328.765 267.513C328.536 267.508 328.31 267.572 328.117 267.697C327.925 267.821 327.774 268 327.685 268.211C327.595 268.422 327.571 268.655 327.616 268.88C327.661 269.104 327.773 269.31 327.936 269.471C328.1 269.632 328.308 269.74 328.534 269.781C328.759 269.822 328.992 269.795 329.202 269.703C329.412 269.61 329.59 269.457 329.712 269.263C329.833 269.069 329.894 268.843 329.886 268.614C329.883 268.317 329.765 268.032 329.556 267.82C329.347 267.608 329.063 267.486 328.765 267.479V267.513Z" fill="#25292B"/>
    <path d="M339.665 277.719C339.384 277.719 339.11 277.636 338.877 277.481C338.644 277.325 338.462 277.104 338.355 276.846C338.248 276.587 338.22 276.303 338.274 276.029C338.329 275.754 338.464 275.502 338.662 275.304C338.861 275.107 339.113 274.972 339.388 274.917C339.663 274.863 339.948 274.891 340.207 274.998C340.466 275.105 340.688 275.286 340.844 275.519C340.999 275.751 341.083 276.025 341.083 276.305C341.083 276.68 340.933 277.04 340.667 277.305C340.401 277.57 340.041 277.719 339.665 277.719ZM339.665 275.661C339.537 275.661 339.412 275.699 339.306 275.769C339.2 275.84 339.118 275.941 339.069 276.058C339.02 276.176 339.007 276.305 339.032 276.43C339.057 276.555 339.118 276.67 339.209 276.76C339.299 276.85 339.414 276.911 339.539 276.936C339.664 276.961 339.794 276.948 339.912 276.899C340.03 276.851 340.13 276.768 340.201 276.662C340.272 276.556 340.31 276.432 340.31 276.305C340.312 276.219 340.297 276.133 340.266 276.053C340.234 275.973 340.187 275.9 340.127 275.838C340.067 275.777 339.995 275.728 339.916 275.695C339.836 275.661 339.751 275.644 339.665 275.644V275.661Z" fill="#25292B"/>
    <path d="M340.073 270.562C340.005 270.562 339.939 270.544 339.881 270.509C339.823 270.475 339.775 270.426 339.742 270.367L337.526 266.404C337.492 266.346 337.475 266.28 337.475 266.213C337.475 266.146 337.492 266.08 337.526 266.022L339.801 262.084C339.834 262.026 339.883 261.978 339.941 261.946C339.999 261.913 340.065 261.896 340.132 261.898C340.2 261.896 340.268 261.912 340.327 261.945C340.387 261.977 340.437 262.026 340.472 262.084L342.747 266.014C342.784 266.072 342.803 266.14 342.803 266.209C342.803 266.278 342.784 266.345 342.747 266.404L340.472 270.334C340.438 270.409 340.381 270.472 340.31 270.513C340.238 270.554 340.155 270.571 340.073 270.562ZM338.247 266.243L340.073 269.376L341.906 266.209L340.073 263.041L338.247 266.243Z" fill="#25292B"/>
    <path d="M320.394 285.249C320.114 285.249 319.84 285.166 319.607 285.01C319.374 284.855 319.192 284.634 319.084 284.376C318.977 284.117 318.949 283.833 319.004 283.558C319.059 283.284 319.194 283.032 319.392 282.834C319.59 282.636 319.843 282.502 320.118 282.447C320.393 282.392 320.678 282.42 320.937 282.527C321.196 282.635 321.417 282.816 321.573 283.048C321.729 283.281 321.812 283.555 321.812 283.834C321.812 284.209 321.663 284.569 321.397 284.834C321.131 285.1 320.77 285.249 320.394 285.249ZM320.394 283.191C320.267 283.191 320.142 283.228 320.036 283.299C319.93 283.37 319.847 283.47 319.798 283.588C319.749 283.706 319.737 283.835 319.762 283.96C319.786 284.085 319.848 284.199 319.938 284.289C320.028 284.379 320.143 284.441 320.268 284.466C320.394 284.49 320.523 284.478 320.641 284.429C320.759 284.38 320.86 284.298 320.931 284.192C321.002 284.086 321.039 283.962 321.039 283.834C321.039 283.664 320.972 283.5 320.851 283.379C320.73 283.258 320.565 283.191 320.394 283.191Z" fill="#25292B"/>
    <path fill-rule="evenodd" clip-rule="evenodd" d="M125.865 373.639C126.417 350.686 120.474 211.096 120.474 211.096L79.8267 212.265L79.8267 212.265L50.1475 212.739L46.0556 287.459L24.2715 373.639H56.9136L87.6077 292.781L95.4219 373.639H125.865Z" fill="url(#paint0_linear_314_4187)"/>
    <path d="M88.0697 291.957L87.2207 291.779C92.1956 267.352 96.3809 242.4 99.6408 217.635V217.279L110.024 216.432L110.1 217.279L100.43 218.126C97.1959 242.773 93.0275 267.623 88.0697 291.957Z" fill="#C95B72"/>
    <path d="M26.8096 373.723H52.7111L59.5621 379.762C59.5621 379.762 79.8605 379.195 79.8605 394H26.8096V373.723Z" fill="#4F2830"/>
    <path d="M28.5584 392.289H28.6518L78.5956 392.103C78.642 392.104 78.6882 392.096 78.7314 392.079C78.7746 392.062 78.814 392.036 78.8472 392.004C78.8804 391.972 78.9068 391.933 78.9249 391.89C78.9429 391.848 78.9521 391.802 78.9521 391.755C78.9521 391.661 78.9146 391.571 78.8477 391.504C78.7808 391.437 78.6901 391.4 78.5956 391.4L28.5669 391.586C28.5205 391.586 28.4745 391.595 28.4317 391.613C28.3889 391.631 28.3502 391.658 28.3178 391.691C28.2853 391.724 28.2599 391.763 28.2429 391.806C28.2259 391.849 28.2177 391.896 28.2189 391.942C28.2188 392.032 28.2543 392.12 28.3178 392.184C28.3812 392.249 28.4676 392.287 28.5584 392.289Z" fill="#25292B"/>
    <path d="M42.5577 382.075C40.7494 381.88 39.6373 381.168 39.442 380.059C39.1874 378.636 40.6051 377.603 41.8955 377.162C43.9274 376.489 46.095 376.33 48.2037 376.7C50.3123 377.069 52.2959 377.956 53.9761 379.28C54.9108 376.243 56.5548 373.471 58.7726 371.191C59.4622 370.371 60.3862 369.78 61.4214 369.497C61.9905 369.375 62.5847 369.467 63.0905 369.754C63.5962 370.042 63.9782 370.505 64.1635 371.055C64.4351 372.182 63.6286 373.181 62.8901 373.927C60.4337 376.43 57.7478 378.699 54.8675 380.703C54.8149 380.729 54.7567 380.743 54.6977 380.743C54.6387 380.743 54.5805 380.729 54.5279 380.703C54.492 380.737 54.4484 380.764 54.4006 380.779C50.5736 382.037 46.5225 382.47 42.5152 382.049L42.5577 382.075ZM53.7723 380.059C52.1791 378.721 50.2683 377.814 48.223 377.424C46.1776 377.034 44.0662 377.174 42.0908 377.831C41.2418 378.111 39.9175 378.882 40.1042 379.94C40.291 380.999 41.9125 381.304 42.6001 381.372C46.3886 381.77 50.2186 381.38 53.8487 380.228C53.8075 380.18 53.781 380.121 53.7723 380.059ZM61.5232 370.209C60.633 370.459 59.8397 370.973 59.2481 371.682C57.0321 373.97 55.4115 376.765 54.5279 379.822L54.7062 379.991C57.444 378.053 60.0012 375.874 62.3467 373.478C62.9495 372.86 63.6202 372.046 63.4334 371.259C63.3144 370.934 63.0926 370.657 62.8016 370.469C62.5106 370.281 62.1662 370.192 61.8204 370.217C61.7218 370.205 61.6223 370.202 61.5232 370.209Z" fill="#25292B"/>
    <path d="M97.7822 373.512H123.726L130.577 379.551C130.577 379.551 150.876 378.975 150.876 393.788H97.7822V373.512Z" fill="#4F2830"/>
    <path d="M99.5738 392.077H99.6671L149.602 391.891C149.697 391.891 149.788 391.854 149.855 391.787C149.921 391.72 149.959 391.63 149.959 391.535C149.957 391.442 149.918 391.354 149.852 391.289C149.785 391.224 149.696 391.188 149.602 391.188L99.5738 391.374C99.5273 391.374 99.4814 391.384 99.4386 391.402C99.3958 391.42 99.357 391.446 99.3246 391.479C99.2921 391.512 99.2667 391.551 99.2497 391.595C99.2327 391.638 99.2246 391.684 99.2257 391.73C99.2257 391.822 99.2624 391.911 99.3276 391.976C99.3929 392.041 99.4814 392.077 99.5738 392.077Z" fill="#25292B"/>
    <path d="M113.572 381.863C111.756 381.668 110.652 380.957 110.457 379.847C110.202 378.416 111.62 377.391 112.91 376.95C114.936 376.283 117.096 376.127 119.196 376.497C121.297 376.866 123.273 377.75 124.948 379.068C125.888 376.031 127.534 373.259 129.753 370.979C130.443 370.159 131.367 369.568 132.402 369.285C132.974 369.153 133.575 369.238 134.088 369.523C134.6 369.808 134.989 370.272 135.178 370.827C135.45 371.953 134.643 372.953 133.905 373.698C131.448 376.202 128.762 378.47 125.882 380.474C125.83 380.501 125.771 380.515 125.712 380.515C125.653 380.515 125.595 380.501 125.543 380.474C125.507 380.509 125.463 380.535 125.415 380.55C121.588 381.808 117.537 382.241 113.53 381.82L113.572 381.863ZM124.787 379.822C123.197 378.49 121.292 377.586 119.254 377.196C117.215 376.806 115.11 376.943 113.139 377.594C112.29 377.874 110.966 378.636 111.153 379.703C111.34 380.77 112.961 381.067 113.649 381.134C117.437 381.533 121.267 381.143 124.897 379.991C124.844 379.947 124.805 379.888 124.787 379.822ZM132.538 369.971C131.648 370.222 130.854 370.736 130.263 371.445C128.049 373.718 126.428 376.499 125.543 379.542L125.721 379.712C128.471 377.773 131.043 375.594 133.404 373.198C134.007 372.58 134.677 371.767 134.49 370.979C134.372 370.654 134.15 370.377 133.859 370.189C133.568 370.001 133.223 369.913 132.877 369.937C132.762 369.944 132.648 369.964 132.538 369.997V369.971Z" fill="#25292B"/>
    <path d="M116.306 178.293L120.474 211.096L116.382 227.815L103.716 211.884L85.5485 227.815L50.1472 212.739L50.5717 199.01C48.146 199.505 45.6391 199.443 43.2409 198.829C40.8426 198.215 38.6158 197.065 36.7289 195.466C34.8419 193.866 33.3444 191.86 32.3495 189.598C31.3546 187.336 30.8885 184.878 30.9864 182.409L35.2991 131.811C35.5792 124.747 40.7748 114.194 47.5919 112.288L70.955 105.403L91.3298 109.112L105.151 113.347C108.135 114.261 110.794 116.01 112.812 118.387C114.83 120.763 116.122 123.668 116.535 126.755L120.576 156.907L139.618 161.819L140.323 178.301L116.306 178.293Z" fill="url(#paint1_linear_314_4187)"/>
    <path d="M56.9132 172.83H56.8623C56.751 172.817 56.6493 172.761 56.5793 172.674C56.5094 172.587 56.4768 172.475 56.4887 172.364L59.9185 138.773C59.9227 138.718 59.9381 138.664 59.9636 138.615C59.9891 138.565 60.0242 138.522 60.067 138.486C60.1097 138.45 60.1592 138.424 60.2124 138.408C60.2657 138.392 60.3216 138.386 60.3769 138.392C60.4328 138.397 60.487 138.414 60.5365 138.44C60.586 138.466 60.6298 138.502 60.6653 138.546C60.7009 138.589 60.7274 138.639 60.7435 138.692C60.7596 138.746 60.7648 138.802 60.759 138.858L57.3717 172.449C57.3674 172.504 57.3521 172.558 57.3266 172.608C57.3011 172.657 57.2659 172.701 57.2232 172.736C57.1804 172.772 57.131 172.798 57.0777 172.814C57.0245 172.831 56.9686 172.836 56.9132 172.83Z" fill="#0F0A4B"/>
    <path d="M51.8791 199.044C51.7665 199.062 51.6514 199.034 51.5591 198.968C51.4667 198.901 51.4047 198.8 51.3867 198.688C51.3687 198.576 51.3962 198.461 51.463 198.369C51.5299 198.277 51.6307 198.215 51.7433 198.197L93.4862 185.018L88.6302 167.723L46.1317 175.193C46.0192 175.213 45.9031 175.188 45.8092 175.123C45.7153 175.058 45.6511 174.958 45.6308 174.846C45.6106 174.734 45.6359 174.618 45.7011 174.524C45.7664 174.43 45.8663 174.366 45.9789 174.346L88.8679 166.808C88.9711 166.79 89.0773 166.811 89.1655 166.868C89.2536 166.924 89.3171 167.012 89.3433 167.113L94.437 185.162C94.4527 185.214 94.4578 185.269 94.4522 185.323C94.4466 185.378 94.4303 185.43 94.4043 185.478C94.3783 185.526 94.343 185.569 94.3006 185.603C94.2581 185.637 94.2093 185.663 94.1569 185.679L52.0065 199.027L51.8791 199.044Z" fill="#0F0A4B"/>
    <path d="M110.406 160.456C110.302 160.455 110.203 160.416 110.125 160.348C110.047 160.28 109.996 160.186 109.982 160.083L106.832 133.556C106.825 133.5 106.83 133.444 106.845 133.39C106.86 133.336 106.886 133.286 106.92 133.242C106.955 133.198 106.998 133.161 107.047 133.133C107.096 133.106 107.15 133.088 107.206 133.082C107.261 133.075 107.318 133.079 107.372 133.094C107.426 133.11 107.477 133.135 107.521 133.17C107.565 133.204 107.602 133.247 107.629 133.296C107.657 133.345 107.674 133.399 107.681 133.454L110.822 159.981C110.837 160.093 110.806 160.205 110.738 160.294C110.67 160.383 110.569 160.441 110.457 160.456H110.406Z" fill="#0F0A4B"/>
    <path d="M89.9467 125.425C89.8548 125.426 89.7652 125.396 89.692 125.34L82.1364 119.564C81.3978 119.564 77.8916 119.877 77.153 124.205C77.1411 124.283 77.1078 124.356 77.0569 124.416C77.0059 124.475 76.9393 124.52 76.8644 124.544C76.7911 124.568 76.7127 124.571 76.6377 124.553C76.5628 124.535 76.4943 124.497 76.4399 124.443C76.355 124.358 68.5617 116.532 69.2323 106.529C69.2402 106.417 69.2925 106.312 69.3777 106.238C69.4628 106.164 69.5739 106.127 69.6865 106.135C69.7991 106.143 69.9039 106.195 69.978 106.28C70.052 106.365 70.0892 106.476 70.0813 106.588C69.538 114.668 74.7675 121.3 76.4909 123.257C76.8114 121.962 77.5574 120.811 78.6098 119.988C79.6623 119.165 80.9606 118.718 82.2977 118.717C82.3847 118.722 82.4679 118.755 82.5354 118.81L90.1759 124.663C90.2647 124.731 90.3226 124.832 90.3369 124.943C90.3512 125.055 90.3208 125.167 90.2523 125.256C90.216 125.303 90.1701 125.343 90.1174 125.372C90.0648 125.402 90.0067 125.42 89.9467 125.425Z" fill="#0F0A4B"/>
    <path d="M91.9919 125.425H91.9325C91.8227 125.408 91.7238 125.349 91.6572 125.26C91.5905 125.172 91.5613 125.061 91.576 124.951L92.4758 118.827C92.4842 118.772 92.5035 118.718 92.5326 118.67C92.5618 118.622 92.6002 118.581 92.6456 118.548C92.69 118.514 92.7408 118.49 92.7948 118.477C92.8488 118.464 92.9049 118.462 92.9597 118.471C94.0102 118.631 95.0112 119.025 95.8886 119.623C95.7867 117.319 95.201 112.373 92.0768 110.307C91.9945 110.24 91.9398 110.146 91.9236 110.042C91.9074 109.937 91.9308 109.831 91.9893 109.743C92.0477 109.655 92.1369 109.592 92.2395 109.566C92.342 109.54 92.4506 109.554 92.5438 109.604C97.0602 112.61 96.7885 120.546 96.7461 120.885C96.7431 120.983 96.7057 121.076 96.6405 121.149C96.5752 121.222 96.4864 121.269 96.3895 121.283C96.2922 121.299 96.1924 121.281 96.1072 121.231C96.0221 121.182 95.9568 121.104 95.9226 121.012C95.6 120.114 94.1398 119.606 93.2484 119.403L92.3994 125.086C92.3788 125.18 92.3275 125.264 92.2538 125.325C92.18 125.386 92.0879 125.422 91.9919 125.425Z" fill="#0F0A4B"/>
    <path d="M134.771 163.437L122.656 164.919L126.052 167.536C126.532 167.893 126.886 168.393 127.064 168.963C127.241 169.533 127.232 170.145 127.039 170.71C126.845 171.275 126.477 171.765 125.987 172.107C125.497 172.45 124.91 172.629 124.312 172.618H124.049C124.201 173.045 124.249 173.502 124.187 173.951C124.125 174.399 123.956 174.827 123.694 175.196C123.431 175.566 123.084 175.867 122.68 176.075C122.276 176.282 121.828 176.389 121.374 176.387C121.086 176.381 120.8 176.333 120.525 176.243C120.744 176.819 120.768 177.45 120.595 178.041C120.421 178.631 120.059 179.15 119.564 179.516C119.068 179.883 118.466 180.079 117.849 180.074C117.232 180.068 116.634 179.863 116.145 179.487L113.598 177.505L113.258 178.013C107.316 185.348 99.9809 182.375 99.9809 182.375L94.1995 184.069L89.8359 168.917L101.543 166.376L111.416 159.88C112.616 159.091 114.021 158.67 115.457 158.669H134.847L134.771 163.437Z" fill="#F9AC7C"/>
    <path d="M120.45 176.624C120.358 176.63 120.268 176.603 120.195 176.548L115.228 172.5C115.185 172.464 115.148 172.421 115.121 172.371C115.095 172.322 115.078 172.267 115.072 172.211C115.067 172.155 115.073 172.099 115.089 172.045C115.106 171.991 115.133 171.942 115.169 171.898C115.24 171.812 115.343 171.758 115.454 171.747C115.565 171.736 115.676 171.769 115.763 171.839L120.73 175.896C120.773 175.931 120.81 175.973 120.836 176.022C120.863 176.071 120.88 176.125 120.885 176.18C120.891 176.235 120.885 176.291 120.869 176.344C120.852 176.397 120.825 176.446 120.789 176.489C120.747 176.536 120.694 176.572 120.635 176.596C120.576 176.619 120.513 176.629 120.45 176.624Z" fill="#4F2830"/>
    <path d="M124.015 172.999C123.916 173.004 123.819 172.971 123.743 172.906L118.649 168.671C118.6 168.638 118.557 168.595 118.526 168.545C118.494 168.494 118.473 168.438 118.464 168.379C118.456 168.32 118.46 168.259 118.476 168.202C118.493 168.145 118.521 168.092 118.56 168.046C118.598 168 118.646 167.963 118.7 167.937C118.754 167.911 118.812 167.897 118.872 167.895C118.932 167.894 118.991 167.905 119.047 167.927C119.102 167.95 119.152 167.984 119.193 168.028L124.287 172.263C124.352 172.319 124.399 172.393 124.421 172.477C124.443 172.56 124.439 172.648 124.41 172.729C124.38 172.81 124.326 172.88 124.256 172.93C124.185 172.98 124.101 173.007 124.015 173.008V172.999Z" fill="#4F2830"/>
    <path d="M173.228 139.891L148.125 184.171C147.803 184.737 147.337 185.208 146.773 185.535C146.209 185.863 145.568 186.035 144.916 186.034H121.272C120.63 186.033 119.999 185.863 119.442 185.543C118.885 185.223 118.422 184.763 118.099 184.209C117.775 183.655 117.602 183.026 117.598 182.385C117.593 181.744 117.757 181.113 118.072 180.554L143.175 136.258C143.496 135.692 143.961 135.222 144.523 134.894C145.085 134.567 145.725 134.394 146.376 134.394H170.028C170.674 134.392 171.309 134.559 171.87 134.88C172.43 135.2 172.896 135.662 173.221 136.22C173.545 136.777 173.717 137.41 173.718 138.055C173.72 138.699 173.551 139.333 173.228 139.891Z" fill="#25292B"/>
    <path d="M162.506 164.216C162.316 164.587 162.043 164.907 161.707 165.153C161.37 165.399 160.981 165.562 160.57 165.631C161.027 166.091 161.33 166.68 161.439 167.319C161.548 167.957 161.457 168.614 161.179 169.199C160.9 169.784 160.448 170.269 159.884 170.588C159.319 170.908 158.669 171.046 158.023 170.984C158.438 171.423 158.717 171.973 158.827 172.567C158.937 173.161 158.873 173.773 158.642 174.332C158.412 174.89 158.026 175.371 157.529 175.716C157.032 176.061 156.446 176.256 155.842 176.277C155.983 176.484 156.103 176.706 156.198 176.938C156.369 177.33 156.452 177.754 156.442 178.181C156.432 178.608 156.328 179.028 156.139 179.411C155.661 180.178 154.901 180.728 154.021 180.942C153.142 181.156 152.213 181.017 151.435 180.554L147.445 178.657C146.599 178.234 145.933 177.522 145.569 176.65C145.4 176.258 145.318 175.834 145.328 175.407C145.338 174.98 145.441 174.56 145.629 174.177C145.881 173.717 146.248 173.33 146.694 173.054C147.14 172.778 147.651 172.622 148.176 172.601C147.981 172.33 147.829 172.03 147.726 171.712C147.596 171.319 147.546 170.904 147.578 170.491C147.61 170.078 147.724 169.676 147.912 169.307C148.206 168.743 148.663 168.281 149.222 167.979C149.782 167.677 150.42 167.549 151.053 167.613C150.735 167.278 150.497 166.876 150.357 166.435C150.226 166.042 150.175 165.627 150.207 165.214C150.239 164.801 150.354 164.398 150.544 164.03C150.841 163.45 151.311 162.977 151.888 162.673C152.466 162.37 153.123 162.252 153.77 162.336C153.704 162.212 153.65 162.081 153.609 161.946C153.499 161.613 153.456 161.26 153.484 160.91C153.512 160.559 153.609 160.218 153.77 159.905C154.096 159.274 154.66 158.797 155.338 158.58C156.016 158.362 156.753 158.422 157.387 158.745L161.317 160.617C161.95 160.942 162.428 161.504 162.648 162.18C162.867 162.856 162.81 163.591 162.489 164.225L162.506 164.216Z" fill="#F9AC7C"/>
    <path d="M155.851 176.701C155.786 176.704 155.721 176.689 155.664 176.658L148.023 172.982C147.969 172.961 147.92 172.929 147.878 172.888C147.837 172.847 147.805 172.798 147.783 172.744C147.762 172.689 147.752 172.632 147.754 172.573C147.756 172.515 147.77 172.458 147.795 172.406C147.821 172.353 147.856 172.306 147.9 172.268C147.944 172.23 147.996 172.202 148.051 172.184C148.107 172.167 148.166 172.161 148.224 172.167C148.282 172.173 148.338 172.191 148.388 172.22L156.029 175.896C156.141 175.92 156.24 175.987 156.303 176.083C156.366 176.179 156.388 176.296 156.364 176.408C156.341 176.521 156.273 176.619 156.177 176.682C156.08 176.745 155.963 176.767 155.851 176.743V176.701Z" fill="#4F2830"/>
    <path d="M158.007 171.407C157.942 171.41 157.877 171.396 157.82 171.365L150.884 167.977C150.783 167.927 150.705 167.84 150.669 167.734C150.632 167.627 150.639 167.511 150.689 167.409C150.738 167.308 150.826 167.231 150.933 167.194C151.039 167.158 151.156 167.165 151.258 167.215L158.193 170.603C158.292 170.655 158.367 170.743 158.403 170.848C158.439 170.953 158.434 171.068 158.389 171.17C158.354 171.241 158.299 171.301 158.232 171.343C158.164 171.385 158.086 171.407 158.007 171.407Z" fill="#4F2830"/>
    <path d="M160.571 166.054C160.506 166.057 160.441 166.043 160.384 166.012L153.592 162.709C153.493 162.658 153.416 162.57 153.38 162.464C153.343 162.358 153.35 162.243 153.397 162.141C153.422 162.091 153.456 162.046 153.498 162.009C153.539 161.972 153.588 161.944 153.641 161.926C153.694 161.908 153.75 161.9 153.806 161.904C153.861 161.907 153.916 161.922 153.966 161.946L160.758 165.25C160.856 165.302 160.931 165.39 160.967 165.495C161.003 165.6 160.998 165.715 160.953 165.817C160.918 165.888 160.863 165.948 160.796 165.99C160.728 166.032 160.65 166.054 160.571 166.054Z" fill="#4F2830"/>
    <path d="M67.7633 86.0492C68.6802 89.7844 70.9978 92.139 74.4785 91.707L70.5733 106.004L90.0992 122.884L91.9923 105.098C93.9765 104.511 95.8 103.48 97.3237 102.082C100.21 99.6177 105.058 93.5026 105.44 87.7432L106.195 76.3768C101.441 76.3768 95.3117 75.0386 90.617 73.8359C86.4827 72.7687 83.4604 71.7693 83.4604 71.7693C83.38 72.3284 83.2199 72.8731 82.985 73.387C81.7115 76.3429 78.4176 79.3158 78.4176 79.3158V79.3751L78.3497 79.2989C77.2624 78.0965 75.7993 77.2965 74.1983 77.029C73.3503 76.8999 72.4852 76.9373 71.6515 77.1391C67.9161 77.9691 66.77 82.0431 67.7633 86.0492Z" fill="#F9AC7C"/>
    <path d="M105.143 85.9198C105.224 84.7738 104.445 83.7858 103.404 83.7131C102.364 83.6404 101.455 84.5105 101.374 85.6565C101.294 86.8026 102.072 87.7906 103.113 87.8632C104.154 87.9359 105.063 87.0658 105.143 85.9198Z" fill="#4F2830"/>
    <path d="M92.4066 83.7556C92.7699 82.6684 92.264 81.5208 91.2766 81.1923C90.2891 80.8639 89.1941 81.4789 88.8308 82.5661C88.4674 83.6533 88.9733 84.8009 89.9608 85.1294C90.9482 85.4579 92.0432 84.8428 92.4066 83.7556Z" fill="#4F2830"/>
    <path d="M101.381 80.7556C102.105 80.5703 102.863 80.5694 103.587 80.7529C104.311 80.9364 104.977 81.2985 105.524 81.8059C105.601 81.8466 105.667 81.9041 105.718 81.974C105.77 82.0439 105.804 82.1244 105.82 82.2096C105.836 82.2947 105.832 82.3823 105.809 82.4659C105.786 82.5494 105.745 82.6267 105.688 82.692C105.631 82.7573 105.56 82.809 105.48 82.8432C105.4 82.8774 105.314 82.8931 105.227 82.8894C105.14 82.8856 105.056 82.8624 104.979 82.8214C104.903 82.7805 104.837 82.7229 104.786 82.6528C104.678 82.5503 104.565 82.4541 104.446 82.3649L104.268 82.2378L104.174 82.1785C104.042 82.1068 103.906 82.0417 103.767 81.9837L103.563 81.9075H103.444C103.299 81.8704 103.151 81.8421 103.003 81.8228H102.782H102.655C102.508 81.8144 102.36 81.8144 102.213 81.8228H101.992H101.882H101.84C101.696 81.8714 101.54 81.8644 101.401 81.8032C101.263 81.742 101.153 81.6311 101.093 81.4925C101.039 81.3559 101.039 81.2044 101.093 81.0679C101.146 80.9314 101.249 80.82 101.381 80.7556Z" fill="#4F2830"/>
    <path d="M93.8767 79.9256C93.822 79.983 93.7562 80.0287 93.6832 80.06C93.6102 80.0912 93.5316 80.1073 93.4522 80.1073C93.3728 80.1073 93.2943 80.0912 93.2213 80.06C93.1483 80.0287 93.0825 79.983 93.0278 79.9256L92.9344 79.8663L92.7391 79.7562L92.3316 79.5699H92.2297L92.0175 79.5106C91.8728 79.4709 91.7252 79.4426 91.5761 79.4259H91.4487C91.3752 79.4217 91.3015 79.4217 91.228 79.4259C91.0781 79.4175 90.9279 79.4175 90.778 79.4259H90.6677L90.4554 79.4767C90.3115 79.5171 90.1698 79.5651 90.031 79.6207C89.8846 79.6668 89.7259 79.6529 89.5898 79.5822C89.4537 79.5116 89.3513 79.3898 89.3051 79.2438C89.259 79.0978 89.2728 78.9395 89.3437 78.8037C89.4145 78.6679 89.5365 78.5657 89.6829 78.5196C90.3834 78.2546 91.1395 78.17 91.8814 78.2736C92.6233 78.3772 93.3271 78.6658 93.9276 79.1125C94.0269 79.228 94.0771 79.3776 94.0676 79.5294C94.0581 79.6812 93.9896 79.8234 93.8767 79.9256Z" fill="#4F2830"/>
    <path d="M89.5561 96.4331C89.0873 96.2493 88.661 95.972 88.3034 95.6181C87.9457 95.2642 87.6643 94.8412 87.4762 94.375C87.1605 93.3539 87.2361 92.2522 87.6884 91.2835C87.7274 91.1987 87.7981 91.1326 87.8854 91.0993C87.9728 91.0661 88.0697 91.0683 88.1554 91.1057L94.7008 93.9346C94.746 93.9548 94.7867 93.984 94.8202 94.0204C94.8538 94.0568 94.8796 94.0996 94.896 94.1463C94.9338 94.2386 94.9338 94.342 94.896 94.4343C94.896 94.4343 93.6905 96.8312 91.3219 96.8312C90.7121 96.8219 90.1108 96.6863 89.5561 96.4331ZM88.2148 91.9272C87.9543 92.6326 87.9364 93.4043 88.1638 94.1209C88.3168 94.4975 88.5468 94.8382 88.8391 95.1211C89.1315 95.404 89.4798 95.623 89.8617 95.764C90.5964 96.1197 91.4397 96.1809 92.2182 95.9351C92.9967 95.6893 93.6512 95.1553 94.0471 94.4427L88.2148 91.9272Z" fill="#4F2830"/>
    <path d="M73.6639 89.9707C73.5795 89.9732 73.4964 89.9496 73.4262 89.903C72.7728 89.505 72.2556 88.9189 71.943 88.2218C71.6303 87.5247 71.5367 86.7494 71.6746 85.9982C71.8125 85.247 72.1754 84.5551 72.7154 84.0139C73.2555 83.4726 73.9473 83.1073 74.6996 82.9663C74.9318 82.2146 74.868 81.4028 74.5213 80.6964C74.3347 80.3317 74.0462 80.0288 73.6906 79.8243C73.335 79.6199 72.9276 79.5227 72.5178 79.5445C72.137 79.5873 71.7845 79.7661 71.5255 80.0478C71.2665 80.3296 71.1184 80.6953 71.1085 81.0775C71.1131 81.1367 71.1057 81.1963 71.0866 81.2526C71.0676 81.3088 71.0373 81.3607 70.9977 81.405C70.958 81.4493 70.9098 81.4852 70.8559 81.5104C70.802 81.5356 70.7435 81.5497 70.684 81.5518C70.6258 81.5564 70.5672 81.5492 70.5118 81.5307C70.4565 81.5121 70.4054 81.4825 70.3618 81.4437C70.3182 81.405 70.2829 81.3578 70.258 81.305C70.2331 81.2523 70.2192 81.1951 70.2171 81.1368C70.2072 80.5241 70.4273 79.9298 70.8342 79.4706C71.241 79.0115 71.8052 78.7206 72.4159 78.6552C73.0035 78.617 73.5896 78.7495 74.1034 79.0365C74.6171 79.3236 75.0365 79.7531 75.3108 80.2729C75.5636 80.774 75.7078 81.3225 75.7341 81.8829C75.7605 82.4432 75.6683 83.0028 75.4636 83.5253C75.4351 83.6036 75.3848 83.6723 75.3187 83.7233C75.2526 83.7742 75.1733 83.8054 75.0901 83.8132C74.4887 83.8756 73.922 84.1248 73.4702 84.5257C73.0183 84.9266 72.7041 85.459 72.5718 86.0476C72.4396 86.6363 72.4959 87.2515 72.733 87.8065C72.9701 88.3615 73.3759 88.8282 73.8931 89.1407C73.9439 89.1712 73.9883 89.2113 74.0235 89.259C74.0587 89.3066 74.0842 89.3607 74.0984 89.4181C74.1126 89.4756 74.1153 89.5353 74.1063 89.5938C74.0972 89.6523 74.0767 89.7084 74.0459 89.759C74.0055 89.8238 73.9492 89.8772 73.8824 89.9142C73.8155 89.9513 73.7403 89.9707 73.6639 89.9707Z" fill="#4F2830"/>
    <path d="M89.8952 105.555C89.5608 105.559 89.2272 105.522 88.902 105.445C86.7966 104.86 83.9356 101.49 83.8083 101.346C83.7323 101.254 83.6951 101.136 83.7046 101.018C83.7141 100.899 83.7696 100.789 83.8592 100.71C83.9048 100.672 83.9575 100.644 84.0143 100.626C84.071 100.608 84.1307 100.602 84.1899 100.607C84.2492 100.613 84.3067 100.63 84.3592 100.658C84.4117 100.686 84.4582 100.724 84.4959 100.77C84.4959 100.77 87.2974 104.073 89.1312 104.581C90.6423 104.996 93.7664 103.819 94.8446 103.336C94.898 103.311 94.9559 103.296 95.015 103.293C95.074 103.291 95.133 103.3 95.1885 103.321C95.2439 103.341 95.2946 103.373 95.3376 103.413C95.3807 103.453 95.4151 103.502 95.4389 103.556C95.488 103.664 95.4923 103.787 95.4509 103.898C95.4096 104.009 95.3259 104.099 95.2182 104.149C93.5368 104.916 91.7367 105.392 89.8952 105.555Z" fill="#4F2830"/>
    <path d="M90.0818 88.7087C88.5082 88.7117 86.9752 88.2102 85.7088 87.2782C84.4424 86.3462 83.5096 85.033 83.0479 83.5322C82.5861 82.0313 82.6198 80.4221 83.144 78.9418C83.6683 77.4615 84.6553 76.1884 85.9596 75.31C87.2639 74.4316 88.8165 73.9945 90.3887 74.0631C91.9608 74.1316 93.4693 74.7022 94.6919 75.6908C95.9144 76.6793 96.7863 78.0335 97.179 79.5538C97.5718 81.0741 97.4647 82.6801 96.8734 84.1351C96.3241 85.4838 95.385 86.6389 94.1755 87.4534C92.9661 88.2679 91.541 88.7048 90.0818 88.7087ZM90.0818 74.9539C89.0163 74.9502 87.9665 75.2106 87.0268 75.7116C86.087 76.2126 85.2867 76.9386 84.6976 77.8244C84.1085 78.7102 83.7491 79.7281 83.6516 80.7866C83.5541 81.8452 83.7217 82.9114 84.1392 83.8894C84.6391 85.054 85.4729 86.0453 86.5357 86.7387C87.5985 87.432 88.843 87.7967 90.1129 87.7867C91.3827 87.7768 92.6213 87.3927 93.6731 86.6827C94.7248 85.9727 95.5429 84.9686 96.0245 83.7963C96.4177 82.8226 96.5662 81.7677 96.4572 80.7236C96.3481 79.6795 95.9848 78.6779 95.3988 77.806C94.8129 76.9341 94.022 76.2184 93.0953 75.7212C92.1685 75.2241 91.134 74.9607 90.0818 74.9539Z" fill="black"/>
    <path d="M106.179 93.2908C104.605 93.2937 103.072 92.7923 101.805 91.8603C100.539 90.9283 99.6063 89.6151 99.1445 88.1143C98.6828 86.6134 98.7165 85.0042 99.2407 83.5239C99.765 82.0436 100.752 80.7705 102.056 79.8921C103.361 79.0137 104.913 78.5766 106.485 78.6452C108.058 78.7137 109.566 79.2843 110.789 80.2729C112.011 81.2614 112.883 82.6156 113.276 84.1359C113.668 85.6562 113.561 87.2622 112.97 88.7172C112.421 90.0659 111.482 91.221 110.272 92.0355C109.063 92.8499 107.638 93.2869 106.179 93.2908ZM106.179 79.536C105.304 79.5314 104.437 79.7043 103.632 80.0441C102.851 80.3706 102.144 80.8488 101.551 81.4508C100.957 82.0528 100.49 82.7666 100.176 83.5506C99.6617 84.8247 99.5707 86.23 99.9169 87.5595C100.263 88.889 101.028 90.0725 102.099 90.9356C103.17 91.7986 104.491 92.2957 105.867 92.3534C107.242 92.4112 108.6 92.0267 109.74 91.2565C110.88 90.4863 111.742 89.3711 112.199 88.0753C112.656 86.7795 112.684 85.3716 112.278 84.0589C111.873 82.7462 111.055 81.5981 109.947 80.7838C108.838 79.9696 107.496 79.5321 106.119 79.536H106.179Z" fill="black"/>
    <path d="M76.1881 74.4393L75.7354 75.2151L83.3213 79.6218L83.7741 78.8459L76.1881 74.4393Z" fill="black"/>
    <path d="M96.6621 83.559L96.3076 84.3842L99.1713 85.6087L99.5258 84.7835L96.6621 83.559Z" fill="black"/>
    <path d="M71.634 77.0459C72.4676 76.8441 73.3328 76.8067 74.1808 76.9358C75.7817 77.2032 77.2449 78.0033 78.3322 79.2057H78.4171C78.4171 79.2057 81.711 76.2667 82.9844 73.2769C83.2193 72.763 83.3794 72.2182 83.4598 71.6591C83.4598 71.6591 86.4821 72.6586 90.6165 73.7258C95.3112 74.9369 101.441 76.2667 106.195 76.2667C109.209 76.2667 111.67 75.8008 112.851 74.4542C118.207 68.3475 114.302 62.0545 108.394 62.5965C102.731 63.1725 98.9022 63.0708 92.7134 59.2086C86.5245 55.3465 79.9791 55.9563 78.1199 60.9534C78.1115 61.0381 67.8901 61.36 71.634 77.0459Z" fill="#4F2830"/>
    <path d="M99.8191 93.7058C99.7742 93.7139 99.7282 93.7139 99.6833 93.7058L94.0802 91.8679C93.9769 91.8228 93.8943 91.7407 93.8488 91.6378C93.8033 91.5348 93.7982 91.4186 93.8345 91.3121C93.8708 91.2056 93.9459 91.1166 94.0448 91.0626C94.1438 91.0087 94.2594 90.9938 94.3689 91.0209L99.3182 92.6556L98.5966 83.3389C98.592 83.2803 98.5992 83.2215 98.6177 83.1657C98.6362 83.11 98.6657 83.0585 98.7045 83.0143C98.7433 82.9701 98.7905 82.9341 98.8434 82.9084C98.8963 82.8827 98.9539 82.8678 99.0126 82.8646C99.0709 82.8588 99.1297 82.8648 99.1855 82.8823C99.2413 82.8998 99.293 82.9284 99.3375 82.9664C99.3819 83.0044 99.4182 83.051 99.444 83.1034C99.4699 83.1558 99.4849 83.2128 99.488 83.2711L100.269 93.2654C100.274 93.3392 100.262 93.4132 100.232 93.4811C100.203 93.5489 100.157 93.6086 100.099 93.655C100.013 93.6996 99.9155 93.7173 99.8191 93.7058Z" fill="#4F2830"/>
    <path d="M257.283 254.817H154.637C153.528 254.815 152.466 254.374 151.683 253.591C150.9 252.808 150.46 251.747 150.46 250.641V188.668C150.46 187.563 150.9 186.503 151.683 185.722C152.467 184.94 153.529 184.501 154.637 184.501H257.283C258.392 184.501 259.455 184.94 260.24 185.721C261.025 186.503 261.466 187.562 261.469 188.668V250.641C261.469 251.749 261.028 252.811 260.243 253.594C259.458 254.377 258.393 254.817 257.283 254.817ZM154.637 185.12C153.695 185.122 152.792 185.497 152.127 186.162C151.462 186.827 151.088 187.729 151.088 188.668V250.641C151.088 251.581 151.462 252.483 152.127 253.148C152.792 253.813 153.695 254.188 154.637 254.19H257.283C258.226 254.188 259.13 253.813 259.796 253.148C260.463 252.483 260.838 251.582 260.841 250.641V188.668C260.838 187.728 260.463 186.827 259.796 186.162C259.13 185.496 258.226 185.122 257.283 185.12H154.637Z" fill="#25292B"/>
    <path d="M154.645 184.806H257.292C257.799 184.806 258.301 184.906 258.77 185.1C259.239 185.293 259.665 185.577 260.023 185.935C260.382 186.293 260.666 186.718 260.861 187.185C261.055 187.653 261.155 188.154 261.155 188.66V192.802H150.791V188.66C150.791 187.639 151.197 186.66 151.919 185.938C152.642 185.215 153.622 184.808 154.645 184.806Z" fill="#25292B"/>
    <path d="M157.769 211.528H173.941V195.393H157.769V211.528Z" fill="white"/>
    <path d="M157.769 231.009H173.941V214.874H157.769V231.009Z" fill="white"/>
    <path d="M157.769 249.922H173.941V233.787H157.769V249.922Z" fill="white"/>
    <path d="M167.181 205.89C165.587 207.48 163.007 207.48 161.413 205.89L159.992 204.472C159.177 203.659 159.177 202.339 159.992 201.526L160.044 201.475C160.827 200.693 162.096 200.693 162.879 201.475C163.663 202.256 164.931 202.256 165.715 201.475L168.796 198.401C169.608 197.591 170.922 197.591 171.735 198.401C172.549 199.214 172.549 200.534 171.735 201.347L167.181 205.89Z" fill="#2323FF"/>
    <path d="M167.181 225.98C165.587 227.57 163.007 227.57 161.413 225.98L159.992 224.562C159.177 223.749 159.177 222.429 159.992 221.616L160.044 221.565C160.827 220.783 162.096 220.783 162.879 221.565C163.663 222.347 164.931 222.347 165.715 221.565L168.796 218.491C169.608 217.681 170.922 217.681 171.735 218.491C172.549 219.304 172.549 220.624 171.735 221.437L167.181 225.98Z" fill="#2323FF"/>
    <path d="M167.179 244.37C165.586 245.959 163.008 245.959 161.415 244.37L159.992 242.95C159.178 242.138 159.178 240.818 159.994 240.006L160.043 239.958C160.827 239.178 162.095 239.179 162.878 239.96C163.662 240.742 164.932 240.742 165.716 239.96L168.8 236.883C169.61 236.075 170.921 236.074 171.732 236.881C172.548 237.692 172.549 239.012 171.735 239.825L167.179 244.37Z" fill="#2323FF"/>
    <path d="M176.667 199.603H254.261V196.41H176.667V199.603Z" fill="white"/>
    <path d="M176.667 205.65H254.261V202.457H176.667V205.65Z" fill="white"/>
    <path d="M176.666 211.588H211.575V208.394H176.666V211.588Z" fill="white"/>
    <path d="M176.667 218.541H254.261V215.348H176.667V218.541Z" fill="white"/>
    <path d="M176.667 224.597H254.261V221.404H176.667V224.597Z" fill="white"/>
    <path d="M176.666 230.517H211.575V227.324H176.666V230.517Z" fill="white"/>
    <path d="M176.667 237.818H254.261V234.625H176.667V237.818Z" fill="white"/>
    <path d="M176.667 243.857H254.261V240.664H176.667V243.857Z" fill="white"/>
    <path d="M176.666 249.794H211.575V246.601H176.666V249.794Z" fill="white"/>
    <path d="M351.779 218.05L346.219 234.651C338.578 257.358 313.449 263.448 296.198 246.83L283.6 234.659C262.555 214.332 268.888 176.777 294.416 170.56L312.583 166.139C338.094 159.905 361.067 190.32 351.779 218.05Z" fill="white"/>
    <path d="M307.396 185.796C320.651 182.568 330.366 175.744 329.096 170.554C327.826 165.365 316.052 163.775 302.797 167.003C289.543 170.232 279.827 177.056 281.097 182.245C282.367 187.435 294.142 189.025 307.396 185.796Z" fill="#25292B"/>
    <path d="M340.726 151.579C340.726 170.018 322.601 176.099 300.231 176.099C277.861 176.099 259.736 170.018 259.736 151.579C259.736 133.141 277.87 115.846 300.231 115.846C322.593 115.846 340.726 133.149 340.726 151.579Z" fill="white"/>
    <path d="M282.913 162.472C282.913 162.472 264.915 162.251 259.762 152.587C259.762 152.257 259.762 151.927 259.762 151.58C259.762 142.407 264.261 133.514 271.528 126.89H316.82C316.82 126.89 332.754 162.472 282.913 162.472Z" fill="url(#paint2_linear_314_4187)"/>
    <path d="M271.494 146.735C274.809 146.735 277.496 143.69 277.496 139.934C277.496 136.177 274.809 133.132 271.494 133.132C268.179 133.132 265.492 136.177 265.492 139.934C265.492 143.69 268.179 146.735 271.494 146.735Z" fill="white"/>
    <path d="M292.506 146.735C295.821 146.735 298.508 143.69 298.508 139.934C298.508 136.177 295.821 133.132 292.506 133.132C289.191 133.132 286.504 136.177 286.504 139.934C286.504 143.69 289.191 146.735 292.506 146.735Z" fill="white"/>
    <path d="M279.925 153.68C274.347 153.68 274.254 148.657 274.254 148.598C274.254 148.526 274.283 148.457 274.333 148.406C274.384 148.356 274.454 148.327 274.526 148.327C274.562 148.326 274.598 148.332 274.632 148.345C274.666 148.358 274.697 148.378 274.723 148.403C274.749 148.429 274.77 148.459 274.784 148.492C274.798 148.526 274.806 148.562 274.806 148.598C274.806 148.784 274.899 153.121 279.899 153.121C284.9 153.121 284.993 148.784 284.993 148.598C284.995 148.525 285.026 148.457 285.078 148.406C285.13 148.355 285.2 148.327 285.273 148.327C285.309 148.326 285.345 148.332 285.379 148.345C285.412 148.359 285.443 148.378 285.468 148.404C285.493 148.429 285.513 148.46 285.527 148.493C285.54 148.526 285.546 148.562 285.545 148.598C285.596 148.674 285.511 153.68 279.925 153.68Z" fill="#25292B"/>
    <path d="M326.77 170.399C326.728 170.411 326.684 170.411 326.642 170.399C326.61 170.382 326.582 170.359 326.559 170.331C326.536 170.303 326.519 170.271 326.508 170.236C326.498 170.201 326.495 170.165 326.499 170.129C326.503 170.093 326.514 170.058 326.532 170.027C330.508 162.671 332.147 154.282 331.229 145.974C330.312 137.667 326.882 129.835 321.396 123.519C321.365 123.493 321.34 123.461 321.322 123.425C321.305 123.388 321.295 123.348 321.295 123.308C321.294 123.268 321.303 123.228 321.319 123.191C321.336 123.154 321.36 123.121 321.39 123.094C321.421 123.068 321.457 123.048 321.495 123.036C321.534 123.025 321.575 123.022 321.615 123.028C321.655 123.034 321.694 123.048 321.728 123.07C321.761 123.092 321.79 123.121 321.812 123.155C327.362 129.555 330.832 137.486 331.761 145.897C332.691 154.309 331.036 162.803 327.016 170.255C326.992 170.3 326.957 170.337 326.913 170.362C326.87 170.388 326.82 170.4 326.77 170.399Z" fill="#25292B"/>
    <path d="M301.649 120.148C301.599 120.147 301.55 120.133 301.507 120.107C301.465 120.081 301.43 120.044 301.407 120C301.383 119.956 301.372 119.906 301.374 119.856C301.377 119.806 301.392 119.758 301.419 119.716C303.496 116.544 304.846 112.954 305.373 109.202C305.899 105.45 305.59 101.628 304.467 98.0085C304.457 97.974 304.453 97.9378 304.457 97.902C304.461 97.8662 304.472 97.8316 304.489 97.8C304.507 97.7685 304.53 97.7407 304.558 97.7183C304.587 97.696 304.619 97.6794 304.654 97.6697C304.688 97.658 304.724 97.6533 304.76 97.656C304.796 97.6587 304.83 97.6687 304.862 97.6854C304.894 97.702 304.922 97.725 304.945 97.7529C304.967 97.7808 304.984 97.813 304.993 97.8476C306.14 101.545 306.454 105.45 305.914 109.283C305.374 113.115 303.993 116.782 301.869 120.021C301.846 120.059 301.814 120.091 301.775 120.113C301.737 120.135 301.693 120.148 301.649 120.148Z" fill="#25292B"/>
    <path d="M304.713 103.912C308.971 103.912 312.422 100.469 312.422 96.2213C312.422 91.974 308.971 88.5308 304.713 88.5308C300.456 88.5308 297.005 91.974 297.005 96.2213C297.005 100.469 300.456 103.912 304.713 103.912Z" fill="url(#paint3_linear_314_4187)"/>
    <path d="M334.215 213.764C340.695 213.764 345.947 207.124 345.947 198.934C345.947 190.743 340.695 184.103 334.215 184.103C327.735 184.103 322.482 190.743 322.482 198.934C322.482 207.124 327.735 213.764 334.215 213.764Z" fill="url(#paint4_linear_314_4187)"/>
    <path d="M294.229 221.616C284.106 221.62 274.122 219.271 265.068 214.755C263.455 213.875 262.249 212.405 261.702 210.655C261.155 208.904 261.311 207.01 262.137 205.373C262.963 203.735 264.394 202.481 266.128 201.875C267.863 201.27 269.765 201.36 271.435 202.127C281.022 206.938 291.896 208.576 302.48 206.803C313.064 205.03 322.806 199.939 330.292 192.268C331.604 190.92 333.398 190.147 335.281 190.12C337.164 190.092 338.98 190.811 340.331 192.12C341.682 193.428 342.457 195.219 342.485 197.097C342.513 198.975 341.791 200.787 340.48 202.135C330.863 211.944 318.382 218.466 304.824 220.769C301.322 221.343 297.778 221.626 294.229 221.616Z" fill="#25292B"/>
    <path d="M192.143 169.722C193.831 169.464 195.549 169.464 197.237 169.722C199.401 170.044 201.481 170.788 203.356 171.912C205.232 173.036 206.868 174.518 208.169 176.272C209.471 178.027 210.413 180.021 210.942 182.139C211.472 184.257 211.577 186.459 211.253 188.618L211.143 189.363C211.082 189.856 210.924 190.332 210.676 190.763C210.428 191.193 210.096 191.57 209.7 191.871C209.303 192.172 208.851 192.39 208.368 192.513C207.886 192.637 207.384 192.662 206.892 192.589C206.399 192.515 205.926 192.344 205.502 192.085C205.077 191.826 204.708 191.485 204.417 191.082C204.127 190.678 203.92 190.221 203.81 189.737C203.699 189.252 203.687 188.751 203.774 188.262L203.884 187.525C204.065 186.332 204.008 185.114 203.717 183.943C203.425 182.772 202.905 181.669 202.186 180.698C201.471 179.725 200.567 178.904 199.529 178.283C198.491 177.662 197.34 177.253 196.142 177.082C193.727 176.723 191.269 177.334 189.306 178.783C187.343 180.231 186.037 182.398 185.674 184.806L185.564 185.543C185.507 186.038 185.35 186.517 185.104 186.951C184.857 187.384 184.526 187.764 184.129 188.067C183.733 188.371 183.279 188.591 182.796 188.716C182.312 188.841 181.808 188.868 181.314 188.794C180.82 188.721 180.345 188.55 179.919 188.29C179.492 188.03 179.123 187.687 178.832 187.282C178.541 186.877 178.335 186.417 178.225 185.931C178.116 185.444 178.106 184.941 178.195 184.45L178.305 183.705C178.83 180.212 180.452 176.976 182.939 174.463C185.426 171.949 188.649 170.289 192.143 169.722Z" fill="url(#paint5_linear_314_4187)"/>
    <path d="M268.065 201.475C268.005 203.055 267.705 204.617 267.174 206.108C265.794 209.952 262.941 213.093 259.242 214.84C255.542 216.587 251.299 216.797 247.444 215.424L246.79 215.196C246.349 215.055 245.94 214.827 245.589 214.525C245.237 214.223 244.95 213.854 244.745 213.439C244.54 213.024 244.42 212.573 244.393 212.111C244.367 211.649 244.433 211.187 244.59 210.751C244.746 210.316 244.988 209.916 245.302 209.576C245.617 209.236 245.996 208.962 246.419 208.772C246.841 208.581 247.298 208.477 247.761 208.466C248.225 208.455 248.685 208.537 249.116 208.708L249.77 208.945C251.901 209.704 254.247 209.588 256.292 208.621C258.337 207.655 259.914 205.917 260.675 203.791C261.436 201.665 261.319 199.324 260.35 197.284C259.382 195.244 257.64 193.671 255.509 192.912L254.855 192.683C254.031 192.348 253.369 191.709 253.005 190.899C252.642 190.088 252.606 189.17 252.904 188.333C253.203 187.497 253.813 186.808 254.609 186.41C255.404 186.012 256.322 185.935 257.173 186.195L257.827 186.432C260.912 187.532 263.567 189.582 265.407 192.286C267.248 194.99 268.179 198.208 268.065 201.475Z" fill="url(#paint6_linear_314_4187)"/>
    <path d="M206.032 278.515H157.184V327.25H206.032V278.515Z" fill="#2323FF"/>
    <path d="M154.645 260.212H309.782C310.806 260.212 311.789 260.618 312.513 261.341C313.238 262.064 313.645 263.044 313.645 264.066V272.011H150.773V264.066C150.773 263.559 150.874 263.057 151.068 262.589C151.263 262.121 151.548 261.696 151.908 261.338C152.267 260.98 152.694 260.696 153.164 260.503C153.633 260.31 154.137 260.211 154.645 260.212Z" fill="#2323FF"/>
    <path d="M309.773 363.501H154.636C153.489 363.501 152.389 363.047 151.578 362.238C150.766 361.43 150.309 360.334 150.307 359.189V264.066C150.309 262.922 150.766 261.825 151.578 261.017C152.389 260.209 153.489 259.755 154.636 259.755H309.773C310.342 259.754 310.904 259.864 311.43 260.081C311.955 260.297 312.432 260.614 312.835 261.015C313.237 261.415 313.556 261.891 313.773 262.414C313.991 262.938 314.103 263.499 314.103 264.066V359.189C314.103 359.756 313.991 360.318 313.773 360.841C313.556 361.365 313.237 361.84 312.835 362.241C312.432 362.641 311.955 362.959 311.43 363.175C310.904 363.391 310.342 363.502 309.773 363.501ZM154.636 260.67C153.736 260.67 152.872 261.027 152.235 261.662C151.598 262.297 151.24 263.159 151.24 264.057V359.189C151.24 360.088 151.598 360.95 152.235 361.585C152.872 362.22 153.736 362.577 154.636 362.577H309.773C310.674 362.577 311.538 362.22 312.175 361.585C312.812 360.95 313.169 360.088 313.169 359.189V264.066C313.169 263.167 312.812 262.306 312.175 261.67C311.538 261.035 310.674 260.678 309.773 260.678L154.636 260.67Z" fill="#25292B"/>
    <path d="M307.702 266.065C307.703 266.316 307.654 266.566 307.558 266.799C307.462 267.031 307.321 267.243 307.143 267.421C306.964 267.599 306.752 267.74 306.519 267.836C306.286 267.931 306.036 267.98 305.783 267.979H296.445C295.936 267.979 295.448 267.777 295.088 267.418C294.728 267.059 294.526 266.572 294.526 266.065C294.529 265.558 294.73 265.071 295.087 264.71C295.448 264.352 295.936 264.152 296.445 264.151H305.783C306.292 264.151 306.78 264.352 307.14 264.711C307.5 265.07 307.702 265.557 307.702 266.065Z" fill="white"/>
    <path d="M292.2 266.065C292.198 266.572 291.995 267.057 291.636 267.416C291.276 267.774 290.79 267.977 290.282 267.979H280.943C280.434 267.979 279.946 267.777 279.586 267.418C279.227 267.059 279.024 266.572 279.024 266.065C279.024 265.557 279.227 265.07 279.586 264.711C279.946 264.352 280.434 264.151 280.943 264.151H290.282C290.79 264.151 291.278 264.352 291.638 264.711C291.998 265.07 292.2 265.557 292.2 266.065Z" fill="#25292B"/>
    <path d="M276.401 266.065C276.399 266.572 276.196 267.057 275.837 267.416C275.478 267.774 274.991 267.977 274.483 267.979H265.144C264.635 267.979 264.147 267.777 263.788 267.418C263.428 267.059 263.226 266.572 263.226 266.065C263.226 265.557 263.428 265.07 263.788 264.711C264.147 264.352 264.635 264.151 265.144 264.151H274.483C274.992 264.151 275.48 264.352 275.839 264.711C276.199 265.07 276.401 265.557 276.401 266.065Z" fill="#2222FF"/>
    <path d="M177.103 319.556C176.322 320.335 175.058 320.335 174.277 319.555L163.446 308.744C161.32 306.621 161.32 303.176 163.447 301.054C165.568 298.938 169.002 298.939 171.122 301.056L174.984 304.913C175.374 305.303 176.006 305.303 176.396 304.913L192.712 288.636C194.832 286.521 198.265 286.521 200.385 288.636C202.513 290.759 202.513 294.205 200.385 296.328L177.103 319.556Z" fill="white"/>
    <path d="M305.028 333.907H158.287C157.678 333.907 157.184 334.4 157.184 335.008V335.618C157.184 336.226 157.678 336.719 158.287 336.719H305.028C305.638 336.719 306.132 336.226 306.132 335.618V335.008C306.132 334.4 305.638 333.907 305.028 333.907Z" fill="white"/>
    <path d="M305.189 343.868H158.448C157.839 343.868 157.345 344.361 157.345 344.969V345.579C157.345 346.187 157.839 346.68 158.448 346.68H305.189C305.799 346.68 306.293 346.187 306.293 345.579V344.969C306.293 344.361 305.799 343.868 305.189 343.868Z" fill="white"/>
    <path d="M260.738 353.218H158.363C157.754 353.218 157.26 353.711 157.26 354.319V354.929C157.26 355.537 157.754 356.03 158.363 356.03H260.738C261.348 356.03 261.842 355.537 261.842 354.929V354.319C261.842 353.711 261.348 353.218 260.738 353.218Z" fill="white"/>
    <path d="M273.234 317.332C270.815 317.328 268.497 316.367 266.786 314.66C265.076 312.954 264.113 310.64 264.108 308.227V288.747C264.108 286.795 263.331 284.923 261.947 283.542C260.564 282.162 258.687 281.386 256.731 281.386C254.774 281.386 252.898 282.162 251.514 283.542C250.131 284.923 249.353 286.795 249.353 288.747V304.67C249.351 306.795 248.505 308.832 246.999 310.336C245.494 311.839 243.452 312.686 241.322 312.691H241.034C238.903 312.688 236.86 311.842 235.354 310.338C233.849 308.834 233.003 306.796 233.003 304.67V287.087C233.035 286.193 232.886 285.302 232.565 284.467C232.244 283.632 231.758 282.87 231.136 282.227C230.514 281.583 229.768 281.071 228.943 280.722C228.118 280.372 227.23 280.192 226.334 280.192C225.438 280.192 224.551 280.372 223.726 280.722C222.901 281.071 222.155 281.583 221.532 282.227C220.91 282.87 220.424 283.632 220.103 284.467C219.783 285.302 219.634 286.193 219.666 287.087V320.068C219.647 320.235 219.567 320.39 219.441 320.503C219.315 320.615 219.151 320.678 218.982 320.678C218.813 320.678 218.65 320.615 218.524 320.503C218.398 320.39 218.318 320.235 218.299 320.068V287.087C218.299 284.962 219.145 282.924 220.651 281.421C222.157 279.918 224.2 279.074 226.33 279.074C228.46 279.074 230.503 279.918 232.009 281.421C233.515 282.924 234.361 284.962 234.361 287.087V304.695C234.363 306.46 235.067 308.152 236.318 309.4C237.569 310.648 239.265 311.35 241.034 311.352H241.322C243.09 311.348 244.784 310.645 246.033 309.397C247.282 308.149 247.984 306.459 247.987 304.695V288.772C247.987 286.458 248.908 284.239 250.548 282.603C252.188 280.967 254.412 280.048 256.731 280.048C259.05 280.048 261.274 280.967 262.914 282.603C264.554 284.239 265.475 286.458 265.475 288.772V308.252C265.475 309.269 265.676 310.276 266.066 311.215C266.456 312.154 267.027 313.008 267.748 313.726C268.468 314.445 269.324 315.015 270.265 315.404C271.206 315.794 272.215 315.994 273.234 315.994C274.253 315.994 275.262 315.794 276.204 315.404C277.145 315.015 278.001 314.445 278.721 313.726C279.442 313.008 280.013 312.154 280.403 311.215C280.793 310.276 280.994 309.269 280.994 308.252V303.569C280.994 301.221 281.928 298.97 283.592 297.31C285.256 295.65 287.512 294.718 289.865 294.718C292.218 294.718 294.475 295.65 296.138 297.31C297.802 298.97 298.737 301.221 298.737 303.569V322.71C298.718 322.878 298.638 323.033 298.512 323.145C298.386 323.258 298.223 323.32 298.053 323.32C297.884 323.32 297.721 323.258 297.595 323.145C297.469 323.033 297.389 322.878 297.37 322.71V303.569C297.37 301.583 296.579 299.679 295.172 298.274C293.765 296.87 291.856 296.081 289.865 296.081C287.875 296.081 285.966 296.87 284.559 298.274C283.151 299.679 282.361 301.583 282.361 303.569V308.252C282.352 310.662 281.386 312.97 279.676 314.672C277.966 316.373 275.65 317.33 273.234 317.332Z" fill="white"/>
    <path d="M225.745 283.809C228.056 283.809 229.93 281.939 229.93 279.633C229.93 277.327 228.056 275.458 225.745 275.458C223.433 275.458 221.56 277.327 221.56 279.633C221.56 281.939 223.433 283.809 225.745 283.809Z" fill="#2323FF"/>
    <path d="M248.293 300.52C250.604 300.52 252.478 298.65 252.478 296.344C252.478 294.038 250.604 292.168 248.293 292.168C245.981 292.168 244.107 294.038 244.107 296.344C244.107 298.65 245.981 300.52 248.293 300.52Z" fill="#2323FF"/>
    <path d="M265.484 291.592C267.796 291.592 269.669 289.723 269.669 287.417C269.669 285.111 267.796 283.241 265.484 283.241C263.173 283.241 261.299 285.111 261.299 287.417C261.299 289.723 263.173 291.592 265.484 291.592Z" fill="#2323FF"/>
    <path d="M272.827 320.296C275.138 320.296 277.012 318.427 277.012 316.121C277.012 313.815 275.138 311.945 272.827 311.945C270.515 311.945 268.642 313.815 268.642 316.121C268.642 318.427 270.515 320.296 272.827 320.296Z" fill="#2323FF"/>
    <path d="M298.058 325.539C300.37 325.539 302.244 323.67 302.244 321.364C302.244 319.058 300.37 317.188 298.058 317.188C295.747 317.188 293.873 319.058 293.873 321.364C293.873 323.67 295.747 325.539 298.058 325.539Z" fill="#2323FF"/>
    <path d="M218.953 324.514C221.264 324.514 223.138 322.645 223.138 320.339C223.138 318.033 221.264 316.163 218.953 316.163C216.641 316.163 214.768 318.033 214.768 320.339C214.768 322.645 216.641 324.514 218.953 324.514Z" fill="#2323FF"/>
    <path d="M154.535 133.556C154.422 133.556 154.314 133.511 154.235 133.432C154.155 133.352 154.11 133.245 154.11 133.132V128.051C154.113 127.939 154.158 127.833 154.237 127.754C154.316 127.675 154.423 127.629 154.535 127.627C154.647 127.627 154.755 127.672 154.835 127.751C154.915 127.831 154.959 127.938 154.959 128.051V133.132C154.959 133.245 154.915 133.352 154.835 133.432C154.755 133.511 154.647 133.556 154.535 133.556ZM238.708 128.559C238.596 128.559 238.488 128.514 238.408 128.435C238.329 128.355 238.284 128.248 238.284 128.135C238.284 128.023 238.329 127.915 238.408 127.836C238.488 127.756 238.596 127.712 238.708 127.712C240.351 127.656 241.962 127.243 243.428 126.501C243.527 126.46 243.638 126.457 243.739 126.494C243.839 126.531 243.922 126.605 243.97 126.701C244.019 126.796 244.029 126.906 243.999 127.009C243.97 127.112 243.902 127.199 243.81 127.254C242.229 128.058 240.49 128.503 238.717 128.559H238.708ZM233.682 127.949C233.638 127.957 233.592 127.957 233.547 127.949C231.874 127.382 230.345 126.46 229.064 125.247C229.024 125.208 228.993 125.161 228.971 125.109C228.95 125.058 228.939 125.002 228.939 124.946C228.939 124.891 228.95 124.835 228.971 124.784C228.993 124.732 229.024 124.685 229.064 124.646C229.104 124.606 229.151 124.575 229.202 124.553C229.254 124.532 229.31 124.521 229.366 124.521C229.422 124.521 229.477 124.532 229.529 124.553C229.581 124.575 229.627 124.606 229.667 124.646C230.858 125.781 232.279 126.648 233.835 127.187C233.941 127.225 234.028 127.303 234.077 127.404C234.126 127.506 234.134 127.622 234.098 127.729C234.06 127.803 233.999 127.864 233.925 127.903C233.85 127.943 233.766 127.958 233.682 127.949ZM247.537 124.112C247.441 124.115 247.347 124.082 247.274 124.019C247.187 123.949 247.13 123.848 247.118 123.737C247.105 123.625 247.137 123.514 247.206 123.426C248.229 122.143 248.956 120.651 249.337 119.056C249.365 118.946 249.435 118.852 249.532 118.794C249.629 118.735 249.745 118.717 249.855 118.742C249.964 118.772 250.056 118.842 250.115 118.938C250.173 119.035 250.193 119.149 250.169 119.259C249.758 120.973 248.972 122.575 247.868 123.951C247.83 124.003 247.78 124.044 247.723 124.072C247.665 124.1 247.601 124.114 247.537 124.112ZM154.56 123.392C154.448 123.392 154.34 123.348 154.26 123.268C154.181 123.189 154.136 123.081 154.136 122.969V117.887C154.138 117.775 154.183 117.669 154.263 117.59C154.342 117.511 154.448 117.466 154.56 117.463C154.673 117.463 154.781 117.508 154.86 117.587C154.94 117.667 154.985 117.775 154.985 117.887V122.969C154.985 123.027 154.973 123.084 154.95 123.137C154.927 123.19 154.894 123.238 154.852 123.278C154.809 123.317 154.76 123.348 154.705 123.368C154.651 123.387 154.593 123.396 154.535 123.392H154.56ZM226.551 121.165C226.466 121.166 226.382 121.141 226.312 121.092C226.242 121.043 226.189 120.974 226.161 120.894C225.589 119.466 225.301 117.942 225.312 116.405V115.761C225.314 115.649 225.359 115.543 225.439 115.464C225.518 115.385 225.624 115.34 225.736 115.338C225.849 115.338 225.957 115.382 226.036 115.462C226.116 115.541 226.161 115.649 226.161 115.761V116.413C226.159 117.843 226.43 119.26 226.959 120.589C226.981 120.64 226.992 120.696 226.992 120.752C226.991 120.808 226.98 120.863 226.958 120.915C226.936 120.966 226.903 121.013 226.862 121.051C226.822 121.09 226.774 121.12 226.721 121.139C226.66 121.167 226.592 121.176 226.526 121.165H226.551ZM190.242 120.318H189.809C188.571 120.318 187.34 120.133 186.158 119.767C186.046 119.734 185.951 119.657 185.895 119.553C185.84 119.45 185.827 119.329 185.861 119.217C185.895 119.104 185.972 119.01 186.075 118.954C186.179 118.899 186.3 118.887 186.413 118.92C187.512 119.266 188.657 119.44 189.809 119.437H190.208C190.573 119.437 190.929 119.437 191.286 119.386C191.398 119.376 191.51 119.411 191.597 119.483C191.684 119.555 191.738 119.659 191.749 119.771C191.759 119.884 191.724 119.995 191.651 120.082C191.579 120.169 191.475 120.223 191.362 120.233C190.989 120.275 190.607 120.292 190.216 120.292L190.242 120.318ZM196.184 118.725C196.11 118.725 196.038 118.705 195.974 118.668C195.91 118.631 195.856 118.578 195.819 118.514C195.763 118.416 195.748 118.3 195.776 118.19C195.805 118.081 195.875 117.987 195.972 117.929C197.387 117.097 198.608 115.974 199.555 114.635C199.585 114.584 199.625 114.54 199.673 114.506C199.72 114.472 199.775 114.448 199.833 114.436C199.89 114.424 199.95 114.424 200.007 114.436C200.065 114.448 200.119 114.472 200.167 114.506C200.215 114.54 200.255 114.584 200.285 114.634C200.315 114.685 200.334 114.741 200.341 114.799C200.348 114.858 200.343 114.917 200.326 114.973C200.309 115.029 200.281 115.081 200.242 115.126C199.23 116.568 197.918 117.775 196.397 118.666C196.317 118.701 196.228 118.713 196.142 118.7L196.184 118.725ZM181.913 117.26C181.808 117.257 181.706 117.218 181.625 117.15C180.326 115.968 179.293 114.525 178.594 112.915C178.57 112.864 178.556 112.808 178.554 112.751C178.552 112.694 178.561 112.637 178.582 112.584C178.602 112.531 178.633 112.482 178.673 112.441C178.712 112.4 178.76 112.367 178.813 112.345C178.865 112.323 178.922 112.311 178.979 112.311C179.036 112.312 179.092 112.323 179.145 112.346C179.198 112.368 179.245 112.401 179.285 112.442C179.324 112.483 179.355 112.532 179.375 112.585C180.023 114.093 180.987 115.444 182.202 116.549C182.266 116.606 182.31 116.682 182.33 116.765C182.35 116.849 182.343 116.936 182.312 117.016C182.281 117.096 182.226 117.165 182.155 117.213C182.084 117.261 181.999 117.286 181.913 117.286V117.26ZM250.084 114.524C249.972 114.524 249.864 114.48 249.784 114.4C249.704 114.321 249.66 114.213 249.66 114.101V109.019C249.662 108.907 249.707 108.801 249.786 108.722C249.866 108.643 249.972 108.598 250.084 108.596C250.197 108.596 250.305 108.64 250.384 108.72C250.464 108.799 250.509 108.907 250.509 109.019V114.101C250.509 114.213 250.464 114.321 250.384 114.4C250.305 114.48 250.197 114.524 250.084 114.524ZM154.569 113.229C154.456 113.229 154.348 113.184 154.269 113.105C154.189 113.025 154.144 112.917 154.144 112.805V107.723C154.146 107.612 154.192 107.505 154.271 107.426C154.35 107.347 154.457 107.302 154.569 107.3C154.681 107.3 154.789 107.344 154.869 107.424C154.949 107.503 154.993 107.611 154.993 107.723V112.805C154.993 112.864 154.981 112.922 154.958 112.975C154.935 113.029 154.9 113.077 154.857 113.117C154.814 113.157 154.763 113.187 154.708 113.207C154.652 113.226 154.593 113.233 154.535 113.229H154.569ZM225.728 111.103C225.615 111.103 225.507 111.058 225.428 110.979C225.348 110.899 225.303 110.792 225.303 110.679V105.597C225.306 105.486 225.351 105.379 225.43 105.3C225.509 105.221 225.616 105.176 225.728 105.174C225.84 105.174 225.948 105.218 226.028 105.298C226.108 105.377 226.152 105.485 226.152 105.597V110.679C226.152 110.738 226.14 110.796 226.117 110.849C226.094 110.903 226.059 110.951 226.016 110.991C225.973 111.031 225.922 111.062 225.867 111.081C225.811 111.1 225.752 111.107 225.694 111.103H225.728ZM201.83 110.62H201.694C201.583 110.599 201.485 110.536 201.42 110.445C201.355 110.353 201.329 110.24 201.346 110.129C201.465 109.472 201.525 108.806 201.524 108.138V105.132C201.524 105.019 201.569 104.911 201.649 104.832C201.728 104.753 201.836 104.708 201.949 104.708C202.061 104.708 202.169 104.753 202.249 104.832C202.328 104.911 202.373 105.019 202.373 105.132V108.138C202.37 108.854 202.308 109.568 202.186 110.273C202.168 110.365 202.12 110.449 202.05 110.512C201.979 110.574 201.89 110.612 201.796 110.62H201.83ZM178.059 108.181C177.947 108.181 177.839 108.136 177.759 108.057C177.679 107.977 177.635 107.869 177.635 107.757V102.675C177.635 102.563 177.679 102.455 177.759 102.376C177.839 102.296 177.947 102.252 178.059 102.252C178.171 102.254 178.278 102.299 178.357 102.378C178.436 102.457 178.482 102.564 178.484 102.675V107.757C178.484 107.869 178.439 107.977 178.359 108.057C178.28 108.136 178.172 108.181 178.059 108.181ZM250.05 104.361C249.938 104.361 249.83 104.316 249.75 104.237C249.67 104.157 249.626 104.05 249.626 103.937V98.8555C249.628 98.7438 249.673 98.6374 249.753 98.5584C249.832 98.4795 249.938 98.4341 250.05 98.432C250.163 98.432 250.271 98.4766 250.35 98.556C250.43 98.6354 250.475 98.7431 250.475 98.8555V103.937C250.475 104.044 250.435 104.147 250.363 104.225C250.29 104.304 250.191 104.352 250.084 104.361H250.05ZM154.535 103.065C154.422 103.065 154.314 103.02 154.235 102.941C154.155 102.861 154.11 102.754 154.11 102.641V97.5596C154.113 97.4479 154.158 97.3415 154.237 97.2625C154.316 97.1836 154.423 97.1383 154.535 97.1361C154.647 97.1361 154.755 97.1807 154.835 97.2601C154.915 97.3396 154.959 97.4473 154.959 97.5596V102.641C154.959 102.754 154.915 102.861 154.835 102.941C154.755 103.02 154.647 103.065 154.535 103.065ZM225.694 100.939C225.581 100.939 225.473 100.894 225.394 100.815C225.314 100.736 225.269 100.628 225.269 100.516V95.4337C225.272 95.3221 225.317 95.2156 225.396 95.1366C225.475 95.0577 225.582 95.0124 225.694 95.0102C225.806 95.0102 225.914 95.0548 225.994 95.1342C226.074 95.2137 226.118 95.3214 226.118 95.4337V100.516C226.118 100.628 226.074 100.736 225.994 100.815C225.914 100.894 225.806 100.939 225.694 100.939ZM201.974 100.473C201.862 100.473 201.754 100.429 201.674 100.349C201.594 100.27 201.55 100.162 201.55 100.05V94.9678C201.55 94.8555 201.594 94.7478 201.674 94.6684C201.754 94.589 201.862 94.5444 201.974 94.5444C202.087 94.5444 202.195 94.589 202.274 94.6684C202.354 94.7478 202.399 94.8555 202.399 94.9678V100.05C202.396 100.161 202.351 100.268 202.272 100.347C202.193 100.426 202.086 100.471 201.974 100.473ZM178.059 98.017C177.947 98.017 177.839 97.9723 177.759 97.8929C177.679 97.8135 177.635 97.7058 177.635 97.5935V92.5116C177.635 92.3993 177.679 92.2916 177.759 92.2122C177.839 92.1328 177.947 92.0881 178.059 92.0881C178.171 92.0903 178.278 92.1356 178.357 92.2146C178.436 92.2935 178.482 92.4 178.484 92.5116V97.5935C178.484 97.7058 178.439 97.8135 178.359 97.8929C178.28 97.9723 178.172 98.017 178.059 98.017ZM250.05 94.1971C249.938 94.1971 249.83 94.1525 249.75 94.0731C249.67 93.9936 249.626 93.8859 249.626 93.7736V88.6918C249.628 88.5801 249.673 88.4737 249.753 88.3947C249.832 88.3158 249.938 88.2705 250.05 88.2683C250.163 88.2683 250.271 88.3129 250.35 88.3923C250.43 88.4717 250.475 88.5795 250.475 88.6918V93.7736C250.475 93.8803 250.435 93.9832 250.363 94.0617C250.29 94.1402 250.191 94.1886 250.084 94.1971H250.05ZM154.535 92.9012C154.422 92.9012 154.314 92.8566 154.235 92.7772C154.155 92.6978 154.11 92.5901 154.11 92.4777V87.3959C154.113 87.2843 154.158 87.1778 154.237 87.0989C154.316 87.0199 154.423 86.9746 154.535 86.9724C154.647 86.9724 154.755 87.017 154.835 87.0965C154.915 87.1759 154.959 87.2836 154.959 87.3959V92.4777C154.959 92.5901 154.915 92.6978 154.835 92.7772C154.755 92.8566 154.647 92.9012 154.535 92.9012ZM225.694 90.7753C225.581 90.7753 225.473 90.7307 225.394 90.6513C225.314 90.5719 225.269 90.4642 225.269 90.3519V85.7867C225.269 85.6257 225.269 85.4564 225.269 85.2954C225.267 85.2398 225.275 85.1842 225.294 85.1318C225.312 85.0793 225.341 85.0311 225.379 84.9898C225.416 84.9485 225.461 84.915 225.512 84.8911C225.562 84.8673 225.617 84.8535 225.673 84.8508C225.728 84.848 225.784 84.8562 225.837 84.8749C225.889 84.8936 225.938 84.9225 225.979 84.9598C226.02 84.9972 226.054 85.0423 226.078 85.0926C226.102 85.1429 226.116 85.1975 226.118 85.2531C226.118 85.4309 226.118 85.6088 226.118 85.7867V90.3519C226.118 90.4642 226.074 90.5719 225.994 90.6513C225.914 90.7307 225.806 90.7753 225.694 90.7753ZM201.974 90.3095C201.862 90.3095 201.754 90.2649 201.674 90.1855C201.594 90.106 201.55 89.9983 201.55 89.886V85.7867C201.55 85.4479 201.55 85.1006 201.55 84.7703C201.554 84.7147 201.57 84.6605 201.595 84.6108C201.62 84.5611 201.655 84.517 201.698 84.4808C201.741 84.4446 201.79 84.4171 201.843 84.4C201.896 84.3828 201.952 84.3762 202.008 84.3807C202.064 84.3851 202.118 84.4005 202.168 84.4259C202.218 84.4513 202.262 84.4862 202.298 84.5287C202.335 84.5712 202.362 84.6203 202.379 84.6734C202.397 84.7265 202.403 84.7824 202.399 84.8381C202.399 85.1514 202.399 85.4733 202.399 85.7867V89.886C202.396 89.9977 202.351 90.1041 202.272 90.1831C202.193 90.262 202.086 90.3073 201.974 90.3095ZM178.059 87.8533C177.947 87.8533 177.839 87.8087 177.759 87.7292C177.679 87.6498 177.635 87.5421 177.635 87.4298V82.348C177.635 82.2356 177.679 82.1279 177.759 82.0485C177.839 81.9691 177.947 81.9245 178.059 81.9245C178.171 81.9266 178.278 81.972 178.357 82.0509C178.436 82.1299 178.482 82.2363 178.484 82.348V87.4298C178.484 87.5421 178.439 87.6498 178.359 87.7292C178.28 87.8087 178.172 87.8533 178.059 87.8533ZM250.084 84.0334C249.972 84.0334 249.864 83.9888 249.784 83.9094C249.704 83.83 249.66 83.7223 249.66 83.6099V78.5281C249.662 78.4165 249.707 78.31 249.786 78.2311C249.866 78.1521 249.972 78.1068 250.084 78.1046C250.197 78.1046 250.305 78.1492 250.384 78.2287C250.464 78.3081 250.509 78.4158 250.509 78.5281V83.6099C250.509 83.7223 250.464 83.83 250.384 83.9094C250.305 83.9888 250.197 84.0334 250.084 84.0334ZM154.535 82.7376C154.422 82.7376 154.314 82.6929 154.235 82.6135C154.155 82.5341 154.11 82.4264 154.11 82.3141V77.2322C154.113 77.1206 154.158 77.0141 154.237 76.9352C154.316 76.8562 154.423 76.8109 154.535 76.8088C154.647 76.8088 154.755 76.8534 154.835 76.9328C154.915 77.0122 154.959 77.1199 154.959 77.2322V82.3141C154.959 82.4264 154.915 82.5341 154.835 82.6135C154.755 82.6929 154.647 82.7376 154.535 82.7376ZM300.665 82.6275C300.593 82.6273 300.522 82.6084 300.459 82.5728C300.397 82.5371 300.345 82.486 300.308 82.4242C299.881 81.7558 299.324 81.1787 298.671 80.7265C298.018 80.2744 297.282 79.9561 296.505 79.7901C296.396 79.7657 296.3 79.7 296.238 79.6068C296.177 79.5136 296.153 79.4002 296.174 79.2904C296.2 79.1807 296.268 79.0854 296.362 79.0239C296.457 78.9625 296.572 78.9396 296.683 78.9601C297.571 79.1505 298.411 79.5151 299.156 80.0328C299.901 80.5504 300.535 81.2108 301.021 81.9753C301.082 82.0697 301.103 82.1842 301.079 82.2938C301.055 82.4033 300.988 82.4989 300.894 82.5597C300.825 82.6014 300.746 82.6247 300.665 82.6275ZM224.386 80.8403C224.309 80.8397 224.234 80.8181 224.168 80.7778C224.102 80.7375 224.048 80.6801 224.013 80.6117C223.256 79.1577 222.193 77.8837 220.897 76.8765C220.816 76.8055 220.765 76.7062 220.754 76.5989C220.744 76.4917 220.775 76.3844 220.841 76.2991C220.907 76.2138 221.003 76.1568 221.11 76.1397C221.217 76.1227 221.326 76.1469 221.415 76.2074C222.807 77.2895 223.948 78.659 224.76 80.2221C224.787 80.2715 224.803 80.3257 224.808 80.3815C224.814 80.4373 224.808 80.4936 224.792 80.5472C224.775 80.6008 224.748 80.6505 224.712 80.6936C224.676 80.7367 224.632 80.7721 224.582 80.798C224.52 80.8251 224.454 80.8395 224.386 80.8403ZM203.511 80.4253C203.437 80.4257 203.364 80.4082 203.299 80.3745C203.202 80.3178 203.132 80.2262 203.102 80.1189C203.072 80.0116 203.084 79.8968 203.137 79.7986C204.014 78.2697 205.209 76.9467 206.643 75.9194C206.689 75.8865 206.74 75.8628 206.794 75.8497C206.848 75.8365 206.905 75.8342 206.96 75.8429C207.015 75.8515 207.068 75.871 207.116 75.9001C207.163 75.9292 207.205 75.9675 207.238 76.0126C207.302 76.1042 207.328 76.2173 207.311 76.3279C207.294 76.4385 207.234 76.538 207.144 76.6055C205.807 77.5588 204.692 78.7897 203.876 80.2136C203.837 80.2744 203.783 80.3243 203.719 80.3584C203.655 80.3925 203.583 80.4097 203.511 80.4084V80.4253ZM291.505 79.68H286.411C286.298 79.68 286.19 79.6354 286.111 79.556C286.031 79.4765 285.986 79.3688 285.986 79.2565C285.986 79.1442 286.031 79.0365 286.111 78.9571C286.19 78.8776 286.298 78.833 286.411 78.833H291.505C291.617 78.833 291.725 78.8776 291.805 78.9571C291.884 79.0365 291.929 79.1442 291.929 79.2565C291.929 79.3688 291.884 79.4765 291.805 79.556C291.725 79.6354 291.617 79.68 291.505 79.68ZM281.495 78.6636C281.439 78.6763 281.381 78.6763 281.326 78.6636C279.717 77.9303 278.293 76.8481 277.157 75.496C277.121 75.4528 277.094 75.4029 277.077 75.3491C277.061 75.2953 277.055 75.2388 277.061 75.1828C277.066 75.1269 277.083 75.0725 277.11 75.023C277.136 74.9736 277.173 74.9299 277.217 74.8946C277.304 74.8244 277.415 74.7912 277.526 74.8023C277.637 74.8134 277.74 74.8679 277.811 74.9539C278.861 76.2101 280.181 77.2146 281.674 77.8929C281.776 77.9391 281.856 78.0239 281.895 78.1286C281.935 78.2334 281.932 78.3496 281.886 78.4519C281.848 78.5204 281.79 78.5767 281.721 78.6141C281.652 78.6516 281.574 78.6688 281.495 78.6636ZM178.093 77.6896C177.981 77.6896 177.873 77.645 177.793 77.5656C177.713 77.4862 177.669 77.3784 177.669 77.2661V75.3604C177.67 74.3388 177.533 73.3218 177.261 72.3367C177.246 72.2833 177.241 72.2274 177.248 72.1723C177.255 72.1171 177.273 72.0639 177.3 72.0157C177.328 71.9675 177.365 71.9254 177.409 71.8918C177.454 71.8582 177.504 71.8338 177.558 71.8201C177.666 71.7915 177.781 71.8066 177.878 71.8621C177.975 71.9176 178.046 72.009 178.076 72.1165C178.368 73.1733 178.516 74.2643 178.518 75.3604V77.2661C178.518 77.3247 178.506 77.3827 178.482 77.4364C178.459 77.4901 178.425 77.5384 178.382 77.5782C178.339 77.618 178.288 77.6485 178.232 77.6676C178.177 77.6868 178.118 77.6943 178.059 77.6896H178.093ZM216.627 74.7845H216.534C215.698 74.5961 214.844 74.4996 213.987 74.4965H213.783C213.074 74.4972 212.366 74.5624 211.669 74.6913C211.557 74.7127 211.44 74.6885 211.345 74.6242C211.251 74.5599 211.185 74.4606 211.164 74.3483C211.143 74.236 211.167 74.1198 211.231 74.0253C211.296 73.9308 211.395 73.8657 211.508 73.8444C212.258 73.7059 213.02 73.635 213.783 73.6326H213.987C214.913 73.634 215.835 73.7392 216.737 73.946C216.85 73.9583 216.953 74.0148 217.024 74.103C217.095 74.1911 217.128 74.3037 217.115 74.4161C217.103 74.5284 217.046 74.6312 216.958 74.7019C216.87 74.7725 216.757 74.8053 216.644 74.793L216.627 74.7845ZM250.084 73.8698C249.972 73.8698 249.864 73.8251 249.784 73.7457C249.704 73.6663 249.66 73.5586 249.66 73.4463V68.3644C249.662 68.2528 249.707 68.1463 249.786 68.0674C249.866 67.9884 249.972 67.9431 250.084 67.941C250.197 67.941 250.305 67.9856 250.384 68.065C250.464 68.1444 250.509 68.2521 250.509 68.3644V73.4463C250.509 73.5586 250.464 73.6663 250.384 73.7457C250.305 73.8251 250.197 73.8698 250.084 73.8698ZM155.002 72.6162H154.883C154.775 72.5847 154.683 72.5121 154.627 72.414C154.572 72.3159 154.557 72.2 154.586 72.0911C155.063 70.394 155.906 68.8215 157.056 67.4836C157.129 67.3982 157.234 67.3454 157.346 67.3366C157.401 67.3323 157.457 67.3389 157.51 67.3562C157.563 67.3734 157.612 67.4009 157.655 67.437C157.697 67.4732 157.732 67.5173 157.757 67.5668C157.782 67.6164 157.798 67.6705 157.802 67.7259C157.806 67.7814 157.8 67.8371 157.782 67.89C157.765 67.9429 157.738 67.9919 157.701 68.0341C156.632 69.2778 155.849 70.7409 155.409 72.3198C155.381 72.4055 155.326 72.4802 155.253 72.5333C155.18 72.5865 155.092 72.6155 155.002 72.6162ZM275.196 71.1171C275.102 71.1176 275.01 71.086 274.936 71.0275C274.862 70.969 274.81 70.8871 274.789 70.7953C274.561 69.8839 274.447 68.948 274.449 68.0087C274.451 67.2486 274.372 66.4904 274.211 65.7473C274.2 65.6917 274.199 65.6343 274.21 65.5785C274.22 65.5226 274.242 65.4694 274.273 65.4218C274.304 65.3742 274.344 65.3332 274.391 65.3011C274.438 65.2691 274.491 65.2466 274.547 65.2349C274.602 65.2232 274.66 65.2226 274.716 65.2331C274.772 65.2436 274.825 65.265 274.873 65.296C274.921 65.3271 274.962 65.3672 274.994 65.4141C275.026 65.4611 275.049 65.5138 275.06 65.5694C275.23 66.3714 275.316 67.189 275.315 68.0087C275.288 68.8763 275.367 69.7439 275.553 70.592C275.578 70.7009 275.56 70.8155 275.501 70.9107C275.442 71.0059 275.348 71.074 275.239 71.1002L275.196 71.1171ZM175.266 68.195C175.204 68.1951 175.143 68.1815 175.088 68.1551C175.032 68.1287 174.983 68.0903 174.944 68.0426C173.877 66.7973 172.558 65.7925 171.072 65.0951C171.015 65.0763 170.963 65.0457 170.919 65.0054C170.875 64.965 170.84 64.9157 170.816 64.8608C170.792 64.8059 170.78 64.7466 170.781 64.6869C170.782 64.6271 170.796 64.5682 170.821 64.514C170.846 64.4598 170.883 64.4116 170.928 64.3726C170.974 64.3335 171.027 64.3045 171.084 64.2873C171.142 64.2702 171.202 64.2654 171.262 64.2733C171.321 64.2811 171.378 64.3014 171.429 64.3329C173.028 65.0782 174.447 66.1586 175.589 67.5005C175.625 67.5425 175.653 67.5912 175.67 67.644C175.687 67.6968 175.694 67.7524 175.689 67.8077C175.684 67.863 175.668 67.9167 175.642 67.9658C175.616 68.0149 175.581 68.0583 175.538 68.0934C175.463 68.1601 175.366 68.1964 175.266 68.195ZM161.377 65.1205C161.296 65.1221 161.217 65.0995 161.149 65.0558C161.081 65.0121 161.027 64.9491 160.995 64.8749C160.971 64.825 160.957 64.7707 160.954 64.7154C160.952 64.66 160.96 64.6046 160.979 64.5525C160.998 64.5004 161.027 64.4526 161.065 64.412C161.103 64.3713 161.148 64.3387 161.199 64.3159C162.796 63.5814 164.534 63.2027 166.293 63.2064C166.406 63.2064 166.515 63.2507 166.596 63.3299C166.677 63.4091 166.724 63.5168 166.726 63.6299C166.726 63.7407 166.682 63.8472 166.604 63.9264C166.527 64.0055 166.421 64.0511 166.31 64.0534C164.666 64.0478 163.04 64.4004 161.547 65.0867C161.493 65.109 161.436 65.1205 161.377 65.1205ZM251.027 63.8416C250.971 63.8543 250.913 63.8543 250.857 63.8416C250.754 63.7952 250.674 63.711 250.633 63.6067C250.592 63.5024 250.593 63.3861 250.636 63.2826C251.364 61.6736 252.443 60.247 253.794 59.107C253.881 59.034 253.993 58.9984 254.106 59.0079C254.219 59.0174 254.324 59.0714 254.397 59.1578C254.47 59.2443 254.506 59.3563 254.496 59.469C254.487 59.5818 254.433 59.6862 254.346 59.7592C253.089 60.8118 252.087 62.1352 251.417 63.6299C251.377 63.6965 251.319 63.7511 251.25 63.7883C251.182 63.8255 251.105 63.8439 251.027 63.8416ZM272.463 61.5124C272.404 61.5106 272.346 61.496 272.293 61.4697C272.24 61.4434 272.194 61.4059 272.157 61.36C271.145 60.0729 269.857 59.0282 268.388 58.3024C268.286 58.253 268.209 58.1654 268.172 58.059C268.136 57.9526 268.143 57.836 268.192 57.7349C268.242 57.6339 268.33 57.5565 268.436 57.52C268.543 57.4835 268.66 57.4907 268.761 57.5401C270.345 58.323 271.735 59.4485 272.828 60.8349C272.897 60.925 272.927 61.0386 272.913 61.1511C272.899 61.2637 272.84 61.366 272.751 61.4362C272.667 61.4956 272.565 61.5227 272.463 61.5124ZM258.574 57.5317C258.461 57.5451 258.348 57.5134 258.259 57.4436C258.169 57.3737 258.112 57.2713 258.098 57.159C258.085 57.0467 258.117 56.9336 258.187 56.8447C258.257 56.7557 258.359 56.6982 258.472 56.6847C259.402 56.4549 260.357 56.3383 261.316 56.3374H263.591C263.707 56.3351 263.819 56.3782 263.903 56.4574C263.987 56.5366 264.037 56.6456 264.041 56.7609C264.043 56.815 264.035 56.869 264.016 56.9197C263.997 56.9705 263.968 57.0169 263.931 57.0564C263.894 57.0958 263.849 57.1275 263.799 57.1495C263.75 57.1714 263.696 57.1833 263.642 57.1844H261.316C260.426 57.1851 259.539 57.2932 258.676 57.5062L258.574 57.5317Z" fill="#25292B"/>
    <path d="M213.868 88.2514C221.726 88.2514 228.096 81.8959 228.096 74.0561C228.096 66.2163 221.726 59.8608 213.868 59.8608C206.01 59.8608 199.64 66.2163 199.64 74.0561C199.64 81.8959 206.01 88.2514 213.868 88.2514Z" fill="#2323FF"/>
    <path d="M208.655 80.2305C208.477 80.2269 208.305 80.1677 208.162 80.0611L201.371 74.632C201.28 74.5582 201.207 74.4651 201.157 74.3597C201.107 74.2542 201.081 74.1389 201.081 74.0222C201.081 73.9055 201.107 73.7902 201.157 73.6848C201.207 73.5793 201.28 73.4863 201.371 73.4124L208.095 68.0595C208.175 67.9945 208.267 67.946 208.366 67.9168C208.465 67.8875 208.569 67.8782 208.671 67.8892C208.774 67.9002 208.873 67.9314 208.964 67.981C209.054 68.0306 209.134 68.0976 209.198 68.1781C209.327 68.3414 209.385 68.5486 209.361 68.7548C209.338 68.9609 209.233 69.1494 209.071 69.2792L203.128 74.0222L209.164 78.833C209.246 78.8966 209.313 78.9757 209.364 79.0656C209.414 79.1556 209.446 79.2546 209.458 79.357C209.47 79.4594 209.462 79.5632 209.433 79.6622C209.404 79.7613 209.356 79.8537 209.292 79.9341C209.216 80.0302 209.12 80.1072 209.009 80.1587C208.898 80.2102 208.777 80.2349 208.655 80.2305Z" fill="white"/>
    <path d="M219.08 80.2305C218.918 80.229 218.76 80.1777 218.628 80.0835C218.496 79.9893 218.396 79.8568 218.343 79.7041C218.289 79.5514 218.283 79.3858 218.327 79.2299C218.371 79.0741 218.462 78.9355 218.588 78.833L224.615 74.0646L218.673 69.3215C218.592 69.2573 218.525 69.1778 218.475 69.0876C218.425 68.9973 218.394 68.8981 218.383 68.7957C218.372 68.6933 218.381 68.5898 218.411 68.491C218.44 68.3923 218.489 68.3003 218.554 68.2205C218.617 68.1402 218.696 68.0734 218.786 68.0239C218.876 67.9744 218.974 67.9433 219.076 67.9322C219.178 67.9212 219.281 67.9305 219.38 67.9596C219.478 67.9888 219.57 68.0371 219.649 68.1019L226.373 73.4548C226.465 73.5277 226.539 73.6205 226.59 73.7261C226.641 73.8316 226.667 73.9474 226.667 74.0646C226.667 74.1818 226.641 74.2975 226.59 74.4031C226.539 74.5087 226.465 74.6014 226.373 74.6744L219.581 80.1035C219.433 80.2001 219.257 80.2448 219.08 80.2305Z" fill="white"/>
    <path d="M212.339 81.6873C212.227 81.7124 212.111 81.7124 212 81.6873C211.901 81.6573 211.81 81.6083 211.731 81.5431C211.652 81.478 211.586 81.3978 211.538 81.3074C211.49 81.2169 211.46 81.1179 211.451 81.016C211.441 80.914 211.452 80.8112 211.482 80.7133L215.727 67.0516C215.757 66.9537 215.806 66.8627 215.871 66.7838C215.936 66.7049 216.017 66.6395 216.107 66.5916C216.198 66.5436 216.297 66.5139 216.399 66.5042C216.502 66.4945 216.605 66.5049 216.703 66.535C216.801 66.565 216.892 66.614 216.971 66.6792C217.05 66.7444 217.116 66.8245 217.164 66.915C217.212 67.0054 217.242 67.1044 217.251 67.2063C217.261 67.3083 217.251 67.4111 217.221 67.509L212.976 81.1707C212.927 81.3067 212.842 81.4269 212.73 81.518C212.618 81.6091 212.483 81.6677 212.339 81.6873Z" fill="white"/>
    <path d="M226.412 13.0775C226.483 12.4754 226.969 11.9847 227.576 11.9847C228.185 11.9847 228.684 11.4898 228.63 10.8828C228.53 9.77631 228.281 8.68825 227.889 7.64843C227.675 7.08148 227.014 6.85431 226.469 7.11821C225.922 7.38258 225.27 7.14877 224.949 6.63365C224.533 5.96682 224.041 5.35105 223.481 4.7991C223.051 4.37587 222.971 3.6913 223.351 3.22328C223.728 2.75813 223.658 2.07009 223.16 1.7379C222.227 1.11636 221.211 0.627675 220.143 0.286013C219.565 0.101278 218.976 0.476585 218.84 1.06749C218.703 1.65815 218.116 2.02222 217.514 1.95416C217.126 1.9103 216.735 1.88843 216.344 1.88876C215.952 1.88745 215.56 1.90953 215.171 1.95474C214.567 2.02493 213.977 1.66055 213.843 1.0677C213.71 0.477746 213.122 0.102348 212.546 0.286731C212.013 0.457276 211.492 0.664221 210.987 0.906267C210.482 1.15134 209.995 1.42945 209.528 1.73861C209.026 2.07049 208.953 2.7612 209.332 3.22803C209.711 3.69405 209.632 4.37541 209.205 4.79756C208.644 5.35241 208.15 5.97021 207.731 6.63857C207.41 7.15199 206.759 7.38364 206.214 7.11983C205.667 6.85522 205.004 7.08387 204.791 7.65271C204.4 8.69263 204.152 9.78005 204.051 10.8859C203.996 11.4907 204.493 11.9847 205.1 11.9847C205.707 11.9847 206.192 12.478 206.258 13.081C206.343 13.8576 206.517 14.6219 206.778 15.3584C206.981 15.9306 206.758 16.5861 206.212 16.8505C205.665 17.1149 205.432 17.775 205.743 18.2964C206.31 19.2459 207.001 20.1159 207.798 20.8831C208.233 21.3026 208.927 21.2265 209.308 20.7569C209.688 20.2892 210.37 20.2205 210.879 20.5428C211.544 20.9638 212.256 21.3055 213.001 21.5608C213.576 21.758 213.951 22.3415 213.818 22.9345C213.684 23.5254 214.053 24.1182 214.654 24.2007C215.759 24.3524 216.879 24.3524 217.984 24.2005C218.583 24.1182 218.95 23.5257 218.814 22.937C218.678 22.3475 219.05 21.7652 219.622 21.5679C220.368 21.3103 221.082 20.9664 221.749 20.5434C222.258 20.2206 222.94 20.2892 223.32 20.7569C223.701 21.2265 224.395 21.3026 224.83 20.8832C225.629 20.1141 226.322 19.2418 226.889 18.2896C227.198 17.7718 226.966 17.1164 226.424 16.8539C225.876 16.5888 225.656 15.9282 225.866 15.3569C226.137 14.6211 226.32 13.856 226.412 13.0775ZM216.344 18.9214C215 18.9214 213.687 18.524 212.571 17.7794C211.454 17.0349 210.583 15.9767 210.069 14.7386C209.555 13.5005 209.421 12.1381 209.683 10.8237C209.945 9.50933 210.592 8.302 211.541 7.35439C212.491 6.40678 213.701 5.76146 215.019 5.50001C216.336 5.23857 217.702 5.37275 218.943 5.88559C220.184 6.39843 221.244 7.2669 221.991 8.38117C222.737 9.49545 223.135 10.8055 223.135 12.1456C223.135 13.9426 222.42 15.6661 221.146 16.9368C219.872 18.2075 218.145 18.9214 216.344 18.9214Z" fill="url(#paint7_linear_314_4187)"/>
    <path d="M258.448 33.1167C258.6 32.0238 259.481 31.1262 260.584 31.1262H260.817C261.928 31.1262 262.835 30.2199 262.718 29.1159C262.684 28.797 262.643 28.4789 262.594 28.1618C262.285 26.1902 261.663 24.2804 260.752 22.504C260.604 22.2105 260.448 21.9212 260.284 21.6365C259.732 20.6793 258.469 20.4945 257.58 21.15L257.363 21.31C256.47 21.9683 255.22 21.7625 254.452 20.9629C253.235 19.6974 251.801 18.6588 250.218 17.8965C249.221 17.4161 248.637 16.2965 248.981 15.2444L249.058 15.0101C249.402 13.9577 248.826 12.8149 247.743 12.5865C245.142 12.0383 242.455 12.0383 239.854 12.5865C238.77 12.8149 238.195 13.9577 238.539 15.0101L238.616 15.2444C238.96 16.2965 238.376 17.4161 237.378 17.8965C235.796 18.6588 234.362 19.6974 233.145 20.9629C232.376 21.7625 231.127 21.9683 230.234 21.31L230.023 21.1542C229.131 20.4971 227.865 20.6849 227.311 21.644C227.148 21.9264 226.993 22.2132 226.845 22.504C225.943 24.2793 225.33 26.1861 225.028 28.1534C224.978 28.475 224.936 28.7978 224.902 29.1213C224.788 30.22 225.694 31.1178 226.799 31.1178H227.042C228.147 31.1178 229.029 32.018 229.179 33.1128C229.417 34.8559 229.967 36.5426 230.802 38.092C231.325 39.0605 231.147 40.3013 230.261 40.9542L230.016 41.1351C229.13 41.7877 228.931 43.0412 229.667 43.858C231.449 45.8345 233.627 47.4164 236.06 48.5011C237.068 48.9504 238.201 48.3681 238.545 47.3193L238.63 47.0578C238.972 46.0127 240.093 45.454 241.175 45.6474C242.916 45.9585 244.698 45.9585 246.438 45.6474C247.521 45.454 248.642 46.0127 248.984 47.0578L249.069 47.3193C249.412 48.3681 250.546 48.9504 251.553 48.5011C253.986 47.4164 256.164 45.8345 257.946 43.858C258.683 43.0412 258.483 41.7877 257.598 41.1351L257.356 40.9565C256.469 40.3027 256.292 39.0596 256.816 38.0906C257.654 36.5435 258.207 34.8586 258.448 33.1167ZM243.824 39.0793C242.155 39.0793 240.523 38.5855 239.136 37.6605C237.748 36.7354 236.666 35.4205 236.028 33.8822C235.389 32.3438 235.222 30.651 235.547 29.0179C235.873 27.3848 236.677 25.8847 237.857 24.7073C239.037 23.5299 240.541 22.7281 242.178 22.4033C243.814 22.0784 245.511 22.2451 247.053 22.8823C248.595 23.5195 249.913 24.5986 250.84 25.9831C251.767 27.3676 252.262 28.9953 252.262 30.6604C252.263 31.7663 252.046 32.8616 251.622 33.8835C251.199 34.9054 250.577 35.834 249.793 36.6159C249.009 37.3979 248.079 38.018 247.054 38.4407C246.03 38.8634 244.932 39.0804 243.824 39.0793Z" fill="url(#paint8_linear_314_4187)"/>
    <path d="M225.43 143.211C228.22 143.211 230.481 140.955 230.481 138.172C230.481 135.389 228.22 133.132 225.43 133.132C222.64 133.132 220.379 135.389 220.379 138.172C220.379 140.955 222.64 143.211 225.43 143.211Z" fill="white"/>
    <path d="M399.652 393.788H0.339774C0.257864 393.775 0.183254 393.734 0.129378 393.671C0.0755012 393.608 0.0458984 393.528 0.0458984 393.445C0.0458984 393.362 0.0755012 393.282 0.129378 393.22C0.183254 393.157 0.257864 393.115 0.339774 393.102H399.652C399.734 393.115 399.809 393.157 399.863 393.22C399.916 393.282 399.946 393.362 399.946 393.445C399.946 393.528 399.916 393.608 399.863 393.671C399.809 393.734 399.734 393.775 399.652 393.788Z" fill="#25292B"/>
    <defs>
        <linearGradient id="paint0_linear_314_4187" x1="75.0864" y1="211.096" x2="75.0864" y2="373.639" gradientUnits="userSpaceOnUse">
            <stop stop-color="#F17F93"/>
            <stop offset="1" stop-color="#8B4955"/>
        </linearGradient>
        <linearGradient id="paint1_linear_314_4187" x1="85.6482" y1="105.403" x2="85.6482" y2="227.815" gradientUnits="userSpaceOnUse">
            <stop stop-color="#493CE0"/>
            <stop offset="1" stop-color="#28217A"/>
        </linearGradient>
        <linearGradient id="paint2_linear_314_4187" x1="289.502" y1="126.889" x2="289.502" y2="162.473" gradientUnits="userSpaceOnUse">
            <stop stop-color="#A3A3FF"/>
            <stop offset="1" stop-color="#1F1FFF"/>
        </linearGradient>
        <linearGradient id="paint3_linear_314_4187" x1="304.713" y1="88.5304" x2="304.713" y2="103.912" gradientUnits="userSpaceOnUse">
            <stop stop-color="#A3A3FF"/>
            <stop offset="1" stop-color="#1F1FFF"/>
        </linearGradient>
        <linearGradient id="paint4_linear_314_4187" x1="334.215" y1="184.102" x2="334.215" y2="213.765" gradientUnits="userSpaceOnUse">
            <stop stop-color="#A3A3FF"/>
            <stop offset="1" stop-color="#1F1FFF"/>
        </linearGradient>
        <linearGradient id="paint5_linear_314_4187" x1="194.785" y1="169.528" x2="194.785" y2="192.63" gradientUnits="userSpaceOnUse">
            <stop stop-color="#A3A3FF"/>
            <stop offset="1" stop-color="#1F1FFF"/>
        </linearGradient>
        <linearGradient id="paint6_linear_314_4187" x1="256.231" y1="186.043" x2="256.231" y2="216.322" gradientUnits="userSpaceOnUse">
            <stop stop-color="#A3A3FF"/>
            <stop offset="1" stop-color="#1F1FFF"/>
        </linearGradient>
        <linearGradient id="paint7_linear_314_4187" x1="216.339" y1="-0.000664388" x2="216.339" y2="24.3152" gradientUnits="userSpaceOnUse">
            <stop stop-color="#A3A3FF"/>
            <stop offset="1" stop-color="#1F1FFF"/>
        </linearGradient>
        <linearGradient id="paint8_linear_314_4187" x1="243.815" y1="12.1743" x2="243.815" y2="49.2187" gradientUnits="userSpaceOnUse">
            <stop stop-color="#A3A3FF"/>
            <stop offset="1" stop-color="#1F1FFF"/>
        </linearGradient>
    </defs>
</svg>
