<svg width="92" height="96" viewBox="0 0 92 96" fill="none" xmlns="http://www.w3.org/2000/svg">
<path d="M74.9232 27.136C74.5414 27.136 74.1619 27.3 73.8926 27.6114L70.6199 31.4055H58.4738C57.7188 31.4055 57.1066 32.0176 57.1066 32.7727C57.1066 33.5278 57.7188 34.1399 58.4738 34.1399H71.2406C71.6928 34.1399 72.0934 33.9203 72.3424 33.5823L75.5441 29.8703H82.8268C83.4055 31.6824 85.1025 32.9953 87.1062 32.9953C89.5869 32.9953 91.5984 30.9836 91.5984 28.5031C91.5984 26.0227 89.5869 24.011 87.1062 24.011C85.1025 24.011 83.4055 25.3239 82.8268 27.136H74.9232ZM87.106 26.7453C88.0771 26.7453 88.8639 27.5321 88.8639 28.5031C88.8639 29.4742 88.0771 30.261 87.106 30.261C86.135 30.261 85.3482 29.4742 85.3482 28.5031C85.3482 27.5321 86.135 26.7453 87.106 26.7453ZM74.8432 38.2283L78.4549 42.4156C78.9475 42.9848 78.8852 43.8457 78.316 44.3383C77.7469 44.8309 76.8859 44.7686 76.3934 44.1994L73.1207 40.4051H57.5023C56.7473 40.4051 56.1352 39.793 56.1352 39.0379C56.1352 38.2828 56.7473 37.6707 57.5023 37.6707H73.7414C74.1936 37.6707 74.5941 37.8903 74.8432 38.2283ZM56.9527 52.9358C56.1977 52.9358 55.5855 52.3237 55.5855 51.5686C55.5855 50.8135 56.1977 50.2014 56.9527 50.2014H67.9975C68.7525 50.2014 69.3646 50.8135 69.3646 51.5686C69.3646 52.3237 68.7525 52.9358 67.9975 52.9358H56.9527ZM87.106 45.0809C85.1023 45.0809 83.4053 46.3938 82.8266 48.2059H75.5439L72.3424 44.494C72.0936 44.1559 71.6928 43.9364 71.2406 43.9364H55.2111C54.4561 43.9364 53.8439 44.5485 53.8439 45.3035C53.8439 46.0586 54.4561 46.6707 55.2111 46.6707H70.6199L73.8926 50.4651C74.152 50.7647 74.5264 50.9403 74.9232 50.9403H82.8266C83.4053 52.7524 85.1023 54.0653 87.106 54.0653C89.5867 54.0653 91.5982 52.0535 91.5982 49.5731C91.5982 47.0926 89.5867 45.0809 87.106 45.0809ZM87.106 51.3309C86.135 51.3309 85.3482 50.5442 85.3482 49.5731C85.3482 48.602 86.135 47.8153 87.106 47.8153C88.0771 47.8153 88.8639 48.602 88.8639 49.5731C88.8639 50.5442 88.0771 51.3309 87.106 51.3309ZM77.1205 69.303V57.8342C77.1205 57.0791 76.5084 56.467 75.7533 56.467H57.8518C54.7307 52.5772 49.9381 50.086 44.5629 50.086C35.1578 50.086 27.5334 57.7104 27.5334 67.1155C27.5334 70.2912 28.4027 73.2637 29.9164 75.8084C30.608 76.9711 30.4285 78.4074 29.4719 79.3643L29.0543 79.7819C28.3652 79.1834 27.3148 79.2116 26.6598 79.8666L16.742 89.7844C15.3252 91.2012 15.3252 93.5196 16.742 94.9364C18.1588 96.3533 20.4771 96.3533 21.8939 94.9364L31.8117 85.0186C32.4666 84.3637 32.4947 83.3131 31.8965 82.6242L32.3141 82.2067C33.2707 81.25 34.7072 81.0703 35.8699 81.7619C38.4146 83.2756 41.3871 84.145 44.5627 84.145C53.968 84.145 61.5922 76.5205 61.5922 67.1157C61.5922 64.2584 60.8875 61.5662 59.6439 59.2014H74.3859V69.303C72.5738 69.8817 71.2609 71.5787 71.2609 73.5825C71.2609 76.0629 73.2725 78.0746 75.7531 78.0746C78.2338 78.0746 80.2453 76.0631 80.2453 73.5825C80.2453 71.5787 78.9324 69.8817 77.1203 69.303H77.1205ZM44.5631 79.7262C37.5982 79.7262 31.952 74.0801 31.952 67.1151C31.952 60.15 37.598 54.5039 44.5631 54.5039C51.5281 54.5039 57.174 60.1502 57.174 67.1151C57.174 74.0799 51.5279 79.7262 44.5631 79.7262ZM75.7533 75.3403C74.7822 75.3403 73.9955 74.5535 73.9955 73.5825C73.9955 72.6114 74.7822 71.8246 75.7533 71.8246C76.7244 71.8246 77.5111 72.6114 77.5111 73.5825C77.5111 74.5535 76.7244 75.3403 75.7533 75.3403ZM24.7957 68.2784H14.2303V51.9321H24.7957V68.2784ZM26.1627 49.1979H12.8629C12.108 49.1979 11.4957 49.8114 11.4957 50.5653V68.2784H6.92324C5.06914 68.2784 3.55234 66.7614 3.55234 64.9073V42.7897C4.37051 43.0397 5.24375 43.1739 6.15195 43.1739C8.96523 43.1739 11.5645 41.8944 13.2697 39.7584C14.9752 41.8946 17.5742 43.1739 20.3877 43.1739C23.2012 43.1739 25.8004 41.8942 27.5055 39.7584C29.2107 41.8944 31.8098 43.1739 34.6234 43.1739C37.4371 43.1739 40.0359 41.8944 41.7412 39.7584C43.4467 41.8946 46.0457 43.1739 48.8592 43.1739C49.7674 43.1739 50.6406 43.0397 51.4588 42.7897V48.5895C49.3115 47.7897 46.9883 47.3516 44.5627 47.3516C37.3082 47.3516 30.9674 51.2619 27.5297 57.0889V50.5649C27.5297 49.811 26.9178 49.1975 26.1625 49.1975L26.1627 49.1979ZM43.1088 33.0012H54.6103V34.8233C54.6103 38.0545 52.0736 40.4397 48.8596 40.4397C46.3959 40.4397 44.1746 39.0459 43.1088 36.8252V33.0012ZM53.6133 30.2668L52.232 27.8746H67.9975C68.7525 27.8746 69.3646 27.2625 69.3646 26.5074C69.3646 25.7524 68.7525 25.1403 67.9975 25.1403H50.6533L48.6147 21.6092H75.7533C76.5084 21.6092 77.1205 20.9971 77.1205 20.242V8.77327C78.9326 8.19456 80.2455 6.49749 80.2455 4.49377C80.2455 2.01311 78.234 0.00158691 75.7533 0.00158691C73.2727 0.00158691 71.2611 2.01311 71.2611 4.49377C71.2611 6.49749 72.574 8.19456 74.3861 8.77327V18.8748H47.0357L45.6031 16.3938C45.0209 15.3957 44.093 14.8541 42.9326 14.8541H37.1502L42.6963 30.2666H53.6129L53.6133 30.2668ZM75.7535 2.73577C76.7246 2.73577 77.5113 3.52249 77.5113 4.49358C77.5113 5.46467 76.7246 6.25139 75.7535 6.25139C74.7824 6.25139 73.9957 5.46467 73.9957 4.49358C73.9957 3.52249 74.7824 2.73577 75.7535 2.73577ZM14.6371 33.0008H26.1439V36.8139C25.0805 39.0405 22.8561 40.4393 20.3879 40.4393C17.9197 40.4393 15.7029 39.0455 14.6371 36.8248V33.0008ZM28.8676 30.2664V14.8539H34.2564L39.8025 30.2664H28.8676ZM6.15215 40.4393C2.93809 40.4393 0.401367 38.0541 0.401367 34.8229V33.0008H11.9029V36.8248C10.8371 39.0453 8.61582 40.4393 6.15215 40.4393ZM12.315 30.2664H1.39844L9.4082 16.3934C9.9877 15.3928 10.9205 14.8537 12.0785 14.8537H17.8609L12.3148 30.2662L12.315 30.2664ZM28.8678 33.0008H40.3746V36.8248C39.3088 39.0453 37.0877 40.4393 34.624 40.4393C32.1604 40.4393 29.9314 39.0405 28.868 36.8139V33.0008H28.8678ZM15.209 30.2664L20.7551 14.8539H26.1439V30.2664H15.209Z" fill="url(#paint0_linear_338_601)"/>
<defs>
<linearGradient id="paint0_linear_338_601" x1="45.9991" y1="-0.0010362" x2="45.9991" y2="96.002" gradientUnits="userSpaceOnUse">
<stop stop-color="#A3A3FF"/>
<stop offset="1" stop-color="#1F1FFF"/>
</linearGradient>
</defs>
</svg>
