<svg width="100" height="100" viewBox="0 0 100 100" fill="none" xmlns="http://www.w3.org/2000/svg">
<path fill-rule="evenodd" clip-rule="evenodd" d="M37.123 24.2949H60.3125C61.7012 24.2949 62.8301 23.166 62.8301 21.7773V19.2578H34.6035V21.7754C34.6035 23.1641 35.7344 24.2949 37.123 24.2949ZM16.4199 15.168V33.2148H18.7637V15.168C21.5957 14.6191 23.7402 12.123 23.7402 9.13477C23.7402 5.9668 21.332 3.34961 18.248 3.02148H16.9336C13.8516 3.34961 11.4414 5.9668 11.4414 9.13477C11.4434 12.123 13.5859 14.6191 16.4199 15.168ZM17.5918 12.9375C15.4941 12.9375 13.7871 11.2305 13.7871 9.13281C13.7871 7.03516 15.4941 5.32812 17.5918 5.32812C19.6895 5.32812 21.3965 7.03516 21.3965 9.13281C21.3965 11.2305 19.6895 12.9375 17.5918 12.9375ZM80.959 88.3711V94.7812H92.1113V88.3711C92.1113 85.2969 89.6094 82.7949 86.5352 82.7949C83.4629 82.7949 80.959 85.2969 80.959 88.3711ZM16.4766 94.7832V88.373C16.4766 85.2988 13.9746 82.7969 10.9004 82.7969C7.82617 82.7969 5.32422 85.2988 5.32422 88.373V94.7832H16.4766ZM57.5566 94.7832C56.9805 90.418 53.2383 87.0371 48.7188 87.0371C44.1992 87.0371 40.457 90.418 39.8809 94.7832H57.5566ZM72.7168 77.2305C75.9707 77.2305 78.6172 79.877 78.6172 83.1309V94.7812H59.9199C59.332 89.1211 54.5332 84.6914 48.7188 84.6914C42.9043 84.6914 38.1055 89.1211 37.5176 94.7812H18.8184V83.1309C18.8184 79.877 21.4648 77.2305 24.7188 77.2305H72.7168ZM58.0215 69.6797H39.416V74.8867H58.0215V69.6797ZM21.0352 50.9785V35.6172H15.793C14.8867 35.6172 14.1484 36.3555 14.1484 37.2617V49.332C14.1484 50.2402 14.8867 50.9766 15.793 50.9766H21.0352V50.9785ZM76.4023 35.6172V50.9785H81.6445C82.5508 50.9785 83.2891 50.2402 83.2891 49.334V37.2637C83.2891 36.3574 82.5508 35.6191 81.6445 35.6191H76.4023V35.6172ZM59.0742 39.7695C57.1289 39.7695 55.5469 41.3516 55.5469 43.2969C55.5469 45.2422 57.1289 46.8242 59.0742 46.8242C61.0176 46.8242 62.5996 45.2422 62.5996 43.2969C62.5977 41.3535 61.0176 39.7695 59.0742 39.7695ZM41.8906 43.2969C41.8906 41.3516 40.3086 39.7695 38.3652 39.7695C36.4199 39.7695 34.8379 41.3516 34.8379 43.2969C34.8379 45.2422 36.4199 46.8242 38.3652 46.8242C40.3086 46.8242 41.8906 45.2422 41.8906 43.2969ZM67.4375 33.5918C68.0449 33.5918 68.541 34.0879 68.541 34.6953V51.8984C68.541 52.5078 68.0449 53.0039 67.4375 53.0039H29.9961C29.3887 53.0039 28.8926 52.5078 28.8926 51.8984V34.6953C28.8926 34.0859 29.3887 33.5918 29.9961 33.5918H67.4375ZM53.2031 43.2969C53.2031 40.0586 55.8359 37.4258 59.0742 37.4258C62.3105 37.4258 64.9434 40.0605 64.9434 43.2969C64.9434 46.5332 62.3105 49.168 59.0742 49.168C55.8359 49.168 53.2031 46.5332 53.2031 43.2969ZM38.3633 37.4258C41.5996 37.4258 44.2324 40.0605 44.2324 43.2969C44.2324 46.5332 41.5996 49.168 38.3633 49.168C35.125 49.168 32.4922 46.5332 32.4922 43.2969C32.4922 40.0605 35.125 37.4258 38.3633 37.4258ZM60.3125 26.6387C62.9941 26.6387 65.1738 24.457 65.1738 21.7754V19.2617C70.0859 19.3418 74.0566 23.3594 74.0566 28.2891V58.3066C74.0566 63.2871 70.0059 67.3379 65.0254 67.3379H32.4082C27.4277 67.3379 23.377 63.2871 23.377 58.3066V28.2891C23.377 23.3594 27.3477 19.3418 32.2598 19.2617V21.7754C32.2598 24.457 34.4395 26.6387 37.1211 26.6387H60.3125ZM29.998 31.248H67.4395C69.3398 31.248 70.8867 32.7949 70.8867 34.6953V51.8984C70.8867 53.8008 69.3398 55.3477 67.4395 55.3477H29.998C28.0977 55.3477 26.5508 53.8008 26.5508 51.8984V34.6953C26.5508 32.7949 28.0957 31.248 29.998 31.248ZM53.2988 59.0527C53.2988 59.2227 53.3027 59.4004 53.3066 59.5879C53.3203 60.3535 53.3418 61.5098 52.9902 61.8691C52.8848 61.9766 52.6836 62.0312 52.3965 62.0312H45.0371C44.75 62.0312 44.5488 61.9766 44.4434 61.8691C44.0918 61.5098 44.1133 60.3535 44.127 59.5879C44.1309 59.4023 44.1348 59.2227 44.1348 59.0527C44.1348 58.4043 43.6094 57.8809 42.9629 57.8809C42.3145 57.8809 41.791 58.4062 41.791 59.0527C41.791 59.209 41.7871 59.373 41.7832 59.543C41.7617 60.7695 41.7285 62.4492 42.7715 63.5117C43.334 64.0859 44.0957 64.3769 45.0371 64.3769H52.3965C53.3379 64.3769 54.0996 64.0859 54.6621 63.5117C55.7051 62.4492 55.6719 60.7695 55.6504 59.543C55.6465 59.373 55.6426 59.209 55.6426 59.0527C55.6426 58.4043 55.1191 57.8809 54.4707 57.8809C53.8262 57.8809 53.2988 58.4062 53.2988 59.0527Z" fill="url(#paint0_linear_350_523)"/>
<defs>
<linearGradient id="paint0_linear_350_523" x1="48.717" y1="3.01898" x2="48.717" y2="94.786" gradientUnits="userSpaceOnUse">
<stop stop-color="#A3A3FF"/>
<stop offset="1" stop-color="#1F1FFF"/>
</linearGradient>
</defs>
</svg>
