<svg width="100" height="100" viewBox="0 0 100 100" fill="none" xmlns="http://www.w3.org/2000/svg">
<path fill-rule="evenodd" clip-rule="evenodd" d="M24.9562 66.6562C24.9844 66.8281 25 67.0078 25 67.1875C25 68.9141 23.6 70.3125 21.875 70.3125C20.15 70.3125 18.75 68.9141 18.75 67.1875C18.75 65.4609 20.15 64.0625 21.875 64.0625C22.2531 64.0625 22.6188 64.1289 22.9531 64.2539L37.5438 52.0938C37.5156 51.9219 37.5 51.7422 37.5 51.5625C37.5 49.8359 38.9 48.4375 40.625 48.4375C42.2875 48.4375 43.6468 49.7383 43.7437 51.375L57.6531 58.3281C58.1469 58.0039 58.7375 57.8125 59.375 57.8125C59.6562 57.8125 59.925 57.8477 60.1844 57.918L75.1062 42.9961C75.0375 42.7383 75 42.4688 75 42.1875C75 40.4609 76.4 39.0625 78.125 39.0625C79.85 39.0625 81.25 40.4609 81.25 42.1875C81.25 43.9141 79.85 45.3125 78.125 45.3125C77.8438 45.3125 77.575 45.2773 77.3156 45.207L62.3938 60.1289C62.4625 60.3867 62.5 60.6562 62.5 60.9375C62.5 62.6641 61.1 64.0625 59.375 64.0625C57.7125 64.0625 56.3532 62.7617 56.2563 61.125L42.3469 54.1719C41.8531 54.4961 41.2625 54.6875 40.625 54.6875C40.2469 54.6875 39.8812 54.6211 39.5469 54.4961L24.9562 66.6562ZM29.6875 76.5625V92.1875C29.6875 93.0508 28.9875 93.75 28.125 93.75H15.625C14.7625 93.75 14.0625 93.0508 14.0625 92.1875V76.5625C14.0625 75.6992 14.7625 75 15.625 75H28.125C28.9875 75 29.6875 75.6992 29.6875 76.5625ZM48.4375 67.1875V92.1875C48.4375 93.0508 47.7375 93.75 46.875 93.75H34.375C33.5125 93.75 32.8125 93.0508 32.8125 92.1875V67.1875C32.8125 66.3242 33.5125 65.625 34.375 65.625H46.875C47.7375 65.625 48.4375 66.3242 48.4375 67.1875ZM67.1875 73.4375V92.1875C67.1875 93.0508 66.4875 93.75 65.625 93.75H53.125C52.2625 93.75 51.5625 93.0508 51.5625 92.1875V73.4375C51.5625 72.5742 52.2625 71.875 53.125 71.875H65.625C66.4875 71.875 67.1875 72.5742 67.1875 73.4375ZM85.9375 60.9375V92.1875C85.9375 93.0508 85.2375 93.75 84.375 93.75H71.875C71.0125 93.75 70.3125 93.0508 70.3125 92.1875V60.9375C70.3125 60.0742 71.0125 59.375 71.875 59.375H84.375C85.2375 59.375 85.9375 60.0742 85.9375 60.9375ZM50 6.25C60.3469 6.25 68.75 14.6523 68.75 25C68.75 35.3477 60.3469 43.75 50 43.75C39.6531 43.75 31.25 35.3477 31.25 25C31.25 14.6523 39.6531 6.25 50 6.25ZM50 26.5625C51.6562 26.5625 53.125 27.5273 53.125 28.9062C53.125 30.2852 51.6562 31.25 50 31.25C48.3438 31.25 46.875 30.2852 46.875 28.9062C46.875 28.043 46.175 27.3438 45.3125 27.3438C44.45 27.3438 43.75 28.043 43.75 28.9062C43.75 31.3906 45.7031 33.5859 48.4375 34.2031V35.9375C48.4375 36.8008 49.1375 37.5 50 37.5C50.8625 37.5 51.5625 36.8008 51.5625 35.9375V34.2031C54.2969 33.5859 56.25 31.3906 56.25 28.9062C56.25 25.9727 53.5219 23.4375 50 23.4375C48.3438 23.4375 46.875 22.4727 46.875 21.0938C46.875 19.7148 48.3438 18.75 50 18.75C51.6562 18.75 53.125 19.7148 53.125 21.0938C53.125 21.957 53.825 22.6562 54.6875 22.6562C55.55 22.6562 56.25 21.957 56.25 21.0938C56.25 18.6094 54.2969 16.4141 51.5625 15.7969V14.0625C51.5625 13.1992 50.8625 12.5 50 12.5C49.1375 12.5 48.4375 13.1992 48.4375 14.0625V15.7969C45.7031 16.4141 43.75 18.6094 43.75 21.0938C43.75 24.0273 46.4781 26.5625 50 26.5625Z" fill="url(#paint0_linear_350_509)"/>
<defs>
<linearGradient id="paint0_linear_350_509" x1="49.9994" y1="6.24761" x2="49.9994" y2="93.7527" gradientUnits="userSpaceOnUse">
<stop stop-color="#A3A3FF"/>
<stop offset="1" stop-color="#1F1FFF"/>
</linearGradient>
</defs>
</svg>
