<svg width="100" height="100" viewBox="0 0 100 100" fill="none" xmlns="http://www.w3.org/2000/svg">
<path fill-rule="evenodd" clip-rule="evenodd" d="M69.7121 71.1899C67.3818 71.1899 65.485 73.0869 65.485 75.4172V77.5567H56.1283V49.4883C56.1283 48.7323 55.5164 48.1213 54.7613 48.1213H40.96V77.5565H38.2256V48.1215H24.4244C23.6695 48.1215 23.0572 48.7324 23.0572 49.4885V77.5567H8.3998C7.40469 77.5567 6.59492 76.7479 6.59492 75.753V37.8116C7.39746 38.0475 8.24629 38.1744 9.12422 38.1744C12.3313 38.1744 15.1514 36.4846 16.7412 33.9494C18.3313 36.4846 21.1514 38.1744 24.359 38.1744C27.5666 38.1744 30.3857 36.4846 31.976 33.9494C33.5658 36.4846 36.3859 38.1744 39.593 38.1744C42.8 38.1744 45.6201 36.4846 47.2104 33.9494C48.8002 36.4846 51.6203 38.1744 54.8277 38.1744C58.0352 38.1744 60.8547 36.4846 62.4447 33.9494C64.0346 36.4846 66.8547 38.1744 70.0619 38.1744C70.9398 38.1744 71.7885 38.0473 72.591 37.8116V43.5375C68.2857 46.6614 65.485 51.7323 65.485 57.4574C65.485 63.0688 68.1748 68.0528 72.3355 71.1899H69.7123H69.7121ZM15.4662 5.08479H63.7195C65.9668 5.08479 67.9004 6.2012 69.0242 8.14729L69.6248 9.18752V7.18225C69.6248 4.39651 67.359 2.13147 64.5738 2.13147H14.6123C11.8271 2.13147 9.56094 4.39651 9.56094 7.18225V9.18752L10.1615 8.14729C11.2854 6.20139 13.2189 5.08479 15.4662 5.08479ZM63.8119 29.1897C63.8119 32.6371 66.6154 35.4397 70.0619 35.4397C71.1951 35.4397 72.259 35.1366 73.1764 34.6071C73.2281 34.5709 73.2822 34.5383 73.3389 34.5096C75.1213 33.4076 76.3117 31.4356 76.3117 29.1897V27.2391H63.8119V29.1897ZM54.8275 35.4397C58.2736 35.4397 61.0773 32.6371 61.0773 29.1897V27.2391H48.5773V29.1897C48.5773 32.6371 51.3812 35.4397 54.8275 35.4397ZM33.3432 29.1897H33.3428C33.3428 32.6371 36.1465 35.4397 39.593 35.4397C43.0395 35.4397 45.8432 32.6371 45.8432 29.1897V27.2391H33.3432V29.1897ZM15.3742 29.1897V27.2391H2.87402V29.1897C2.87402 31.4358 4.06445 33.408 5.84727 34.5098C5.90371 34.5385 5.95762 34.5709 6.00918 34.6069C6.92676 35.1365 7.99082 35.4397 9.12422 35.4397C12.5703 35.4397 15.3742 32.6371 15.3742 29.1897ZM18.1088 29.1897H18.1084C18.1084 32.6371 20.9121 35.4397 24.359 35.4397C27.8059 35.4397 30.6086 32.6371 30.6086 29.1897V27.2391H18.1088V29.1897ZM21.557 7.81858H15.4662C14.2037 7.81858 13.1607 8.4221 12.5293 9.51409L9.39648 14.9406C9.38516 14.9615 9.37324 14.9821 9.36094 15.0022L3.875 24.5045H15.7686L21.557 7.81858ZM63.7197 7.81858H57.6293L63.4174 24.5045H75.3109L69.8236 14.9996C69.8127 14.9817 69.8021 14.9633 69.7918 14.9447L66.6564 9.51409C66.0252 8.4221 64.982 7.81858 63.7197 7.81858ZM54.7352 7.81858H46.4502L48.4254 24.5045H60.5232L54.7352 7.81858ZM35.4896 7.81858L33.5145 24.5045H45.6717L43.6965 7.81858H35.4896ZM32.7361 7.81858H24.4516L18.6631 24.5045H30.7609L32.7361 7.81858ZM44.1555 61.0651C43.4004 61.0651 42.7885 61.676 42.7885 62.4321V65.9813C42.7885 66.7371 43.4004 67.3483 44.1555 67.3483C44.9105 67.3483 45.5227 66.7373 45.5227 65.9813V62.4321C45.5227 61.6762 44.9104 61.0651 44.1555 61.0651ZM35.0311 61.0651C34.2758 61.0651 33.6639 61.676 33.6639 62.4321V65.9813C33.6639 66.7371 34.2758 67.3483 35.0311 67.3483C35.7863 67.3483 36.3982 66.7373 36.3982 65.9813V62.4321C36.3982 61.6762 35.7861 61.0651 35.0311 61.0651ZM95.6328 82.8172H69.7125C68.8914 82.8172 68.2195 83.4889 68.2195 84.3102V87.483C68.2195 88.3041 68.8914 88.976 69.7125 88.976H95.6328C96.4539 88.976 97.1258 88.3041 97.1258 87.483V84.3102C97.1258 83.4891 96.4541 82.8172 95.6328 82.8172ZM95.6328 73.9242H69.7125C68.8914 73.9242 68.2195 74.5961 68.2195 75.4172V78.5899C68.2195 79.411 68.8914 80.0828 69.7125 80.0828H95.6328C96.4539 80.0828 97.1258 79.411 97.1258 78.5899V75.4172C97.1258 74.5961 96.4541 73.9242 95.6328 73.9242ZM95.6328 91.7102H69.7125C68.8914 91.7102 68.2195 92.3821 68.2195 93.2032V96.376C68.2195 97.1971 68.8914 97.869 69.7125 97.869H95.6328C96.4539 97.869 97.1258 97.1971 97.1258 96.376V93.2032C97.1258 92.3821 96.4541 91.7102 95.6328 91.7102ZM73.5031 57.4574C73.5031 54.9252 74.5295 52.6326 76.1887 50.9733C77.8479 49.3141 80.1404 48.2877 82.6727 48.2877C85.2049 48.2877 87.4975 49.3141 89.1566 50.9733C90.8158 52.6324 91.8422 54.925 91.8422 57.4574C91.8422 59.9899 90.8158 62.2823 89.1566 63.9416C87.4975 65.6008 85.2049 66.6272 82.6727 66.6272C80.1404 66.6272 77.8479 65.6008 76.1887 63.9416C74.5295 62.2825 73.5031 59.9899 73.5031 57.4574ZM84.582 60.1651C84.5623 60.2885 84.5018 60.4125 84.4033 60.5192C84.3416 60.5862 84.26 60.6471 84.159 60.6973C83.5832 60.9836 82.726 61.0391 81.9342 60.8727C81.3105 60.7418 80.7816 60.4922 80.5893 60.1405C80.2295 59.4797 79.4022 59.236 78.7414 59.5957C78.0807 59.9555 77.8369 60.7828 78.1967 61.4436C78.7982 62.5422 79.9918 63.2356 81.3057 63.5272V64.261C81.3057 65.016 81.9178 65.6281 82.6729 65.6281C83.4279 65.6281 84.04 65.016 84.04 64.261V63.5762C84.5219 63.4862 84.977 63.342 85.3768 63.1432C85.7795 62.9428 86.126 62.6768 86.4115 62.3668C86.8779 61.8608 87.1701 61.2385 87.2738 60.592C87.3799 59.9299 87.2881 59.2457 86.9838 58.6338C86.8156 58.2959 86.5814 57.9797 86.2791 57.7008C85.9641 57.4106 85.5883 57.1653 85.1721 56.9586C84.7602 56.7543 84.3064 56.5879 83.8348 56.4539C83.5285 56.367 83.2406 56.2987 82.9469 56.2293C82.2377 56.0616 81.484 55.8832 81.1232 55.6035C80.9947 55.5039 80.8418 55.3428 80.8303 55.1754C80.8123 54.916 81.0635 54.7108 81.2668 54.6012C81.7129 54.3608 82.3471 54.2684 82.9799 54.3231C83.5738 54.3744 84.1148 54.5479 84.4199 54.8406C84.4746 54.893 84.5188 54.9487 84.5502 55.0069C84.907 55.6705 85.7344 55.9192 86.398 55.5623C87.0615 55.2055 87.3103 54.3782 86.9535 53.7145C86.7848 53.4012 86.567 53.1215 86.3105 52.8754C85.7145 52.3031 84.9064 51.9209 84.0404 51.7266V51.0074C84.0404 50.2524 83.4283 49.6403 82.6732 49.6403C81.9182 49.6403 81.3061 50.2524 81.3061 51.0074V51.7182C80.8291 51.8217 80.3758 51.9819 79.9746 52.1979C79.623 52.3873 79.3051 52.6221 79.0357 52.9026C78.9498 52.9922 78.867 53.0883 78.7881 53.1899C78.2906 53.8311 78.0533 54.5899 78.1066 55.3569C78.16 56.1211 78.4941 56.8684 79.1381 57.4865C79.2344 57.5789 79.3406 57.6707 79.457 57.761C80.2893 58.4069 81.3395 58.6551 82.3273 58.8889C82.6076 58.9551 82.8818 59.0201 83.0977 59.0815C83.4158 59.1719 83.7115 59.2789 83.965 59.4047C84.1527 59.4979 84.3123 59.5992 84.4313 59.7088C84.476 59.75 84.5115 59.7985 84.5379 59.8514C84.5855 59.9473 84.5996 60.0569 84.5824 60.1647L84.582 60.1651ZM82.6727 43.0041C90.6332 43.0041 97.1258 49.4967 97.1258 57.4574C97.1258 65.4182 90.6332 71.9108 82.6727 71.9108C74.7121 71.9108 68.2195 65.418 68.2195 57.4574C68.2195 49.4969 74.7121 43.0041 82.6727 43.0041ZM74.2555 49.0401C72.1012 51.1944 70.7688 54.1705 70.7688 57.4574C70.7688 60.7444 72.1014 63.7205 74.2555 65.8748C76.4098 68.0291 79.3857 69.3615 82.6727 69.3615C85.9596 69.3615 88.9357 68.0291 91.0898 65.8748C93.2441 63.7205 94.5766 60.7446 94.5766 57.4574C94.5766 54.1703 93.2439 51.1944 91.0898 49.0401C88.9355 46.8858 85.9596 45.5533 82.6727 45.5533C79.3857 45.5533 76.4096 46.8858 74.2555 49.0401Z" fill="url(#paint0_linear_350_500)"/>
<defs>
<linearGradient id="paint0_linear_350_500" x1="49.9991" y1="2.12885" x2="49.9991" y2="97.8719" gradientUnits="userSpaceOnUse">
<stop stop-color="#A3A3FF"/>
<stop offset="1" stop-color="#1F1FFF"/>
</linearGradient>
</defs>
</svg>
