<svg width="100" height="100" viewBox="0 0 100 100" fill="none" xmlns="http://www.w3.org/2000/svg">
<path fill-rule="evenodd" clip-rule="evenodd" d="M20.0117 12.0918L12.9531 19.1504C12.7207 19.3828 12.6836 19.7266 12.8633 20.0039L16.5039 25.6367C17.0898 26.5449 17.1562 27.623 16.6875 28.5938C16.248 29.5078 15.8555 30.4512 15.5234 31.4004C15.166 32.418 14.3574 33.1309 13.3027 33.3574L6.74805 34.7656C6.42578 34.8359 6.20898 35.1035 6.20898 35.4336V45.416C6.20898 45.7461 6.42578 46.0137 6.74805 46.084L13.3047 47.4922C14.3574 47.7188 15.168 48.4316 15.5234 49.4492C15.8574 50.3984 16.248 51.3418 16.6875 52.2539C17.1582 53.2266 17.0898 54.3047 16.5039 55.2109L12.8613 60.8457C12.6836 61.123 12.7207 61.4648 12.9531 61.6992L20.0117 68.7578C20.2461 68.9902 20.5879 69.0273 20.8652 68.8477L26.5 65.207C27.4062 64.6211 28.4844 64.5527 29.457 65.0234C30.3691 65.4629 31.3125 65.8555 32.2617 66.1875C33.2793 66.543 33.9922 67.3535 34.2188 68.4062L35.627 74.9629C35.6973 75.2852 35.9648 75.502 36.2949 75.502H46.2773C46.6074 75.502 46.875 75.2852 46.9453 74.9629L48.3535 68.4062C48.5801 67.3535 49.293 66.543 50.3105 66.1875C50.5059 66.1172 50.7031 66.0469 50.8984 65.9727C53.3262 58.7168 59.1797 53.0176 66.5293 50.7988C66.7129 50.3516 66.8906 49.9004 67.0488 49.4492C67.4062 48.4316 68.2148 47.7188 69.2695 47.4922L75.8242 46.084C76.1484 46.0137 76.3633 45.7461 76.3633 45.416V35.4336C76.3633 35.1035 76.1484 34.8359 75.8262 34.7656L69.2676 33.3574C68.2148 33.1309 67.4062 32.418 67.0488 31.4004C66.7148 30.4492 66.3242 29.5059 65.8848 28.5938C65.416 27.623 65.4824 26.5449 66.0684 25.6367L69.7109 20.0039C69.8887 19.7266 69.8535 19.3828 69.6191 19.1504L62.5605 12.0918C62.3281 11.8574 61.9844 11.8223 61.707 12L56.0723 15.6426C55.166 16.2285 54.0879 16.2949 53.1152 15.8262C52.2051 15.3867 51.2617 14.9961 50.3105 14.6621C49.293 14.3047 48.5801 13.4961 48.3535 12.4414L46.9453 5.88672C46.875 5.5625 46.6074 5.34766 46.2773 5.34766H36.2949C35.9648 5.34766 35.6973 5.5625 35.627 5.88477L34.2188 12.4414C33.9922 13.4961 33.2793 14.3047 32.2617 14.6621C31.3125 14.9961 30.3691 15.3867 29.457 15.8262C28.4844 16.2949 27.4062 16.2285 26.5 15.6426L20.8652 12C20.5879 11.8223 20.2461 11.8574 20.0117 12.0918ZM73.3555 52.1367C85.1172 52.1367 94.6855 61.7051 94.6855 73.4668C94.6855 85.2285 85.1172 94.7988 73.3555 94.7988C61.5937 94.7988 52.0254 85.2285 52.0254 73.4668C52.0254 61.7051 61.5937 52.1367 73.3555 52.1367ZM73.3555 58.5625C81.5762 58.5625 88.2637 65.25 88.2637 73.4688C88.2637 74.291 88.1953 75.1055 88.0625 75.9082L90.373 74.4707C90.9219 74.127 91.6465 74.2949 91.9883 74.8457C92.3301 75.3945 92.1621 76.1172 91.6133 76.459L86.7676 79.4766C86.5742 79.5977 86.3594 79.6543 86.1484 79.6543C85.7578 79.6543 85.375 79.459 85.1523 79.1016L82.1348 74.2559C81.793 73.707 81.9609 72.9844 82.5098 72.6426C83.0605 72.3008 83.7832 72.4688 84.125 73.0176L85.7383 75.6074C85.8574 74.9043 85.9199 74.1914 85.9199 73.4688C85.9199 66.541 80.2832 60.9062 73.3555 60.9062C71.7715 60.9062 70.2285 61.1953 68.7695 61.7676C68.168 62.0039 67.4863 61.707 67.2519 61.1055C67.0156 60.5019 67.3125 59.8223 67.9141 59.5859C69.6465 58.9062 71.4785 58.5625 73.3555 58.5625ZM77.9414 85.1699C78.543 84.9336 79.2226 85.2305 79.459 85.834C79.6953 86.4355 79.3984 87.1172 78.7969 87.3535C77.0625 88.0332 75.2324 88.377 73.3555 88.377C65.1348 88.377 58.4473 81.6895 58.4473 73.4688C58.4473 72.6035 58.5234 71.7461 58.6699 70.9023L56.2051 72.3242C55.6445 72.6484 54.9277 72.457 54.6035 71.8965C54.2812 71.3359 54.4727 70.6191 55.0332 70.2949L59.9766 67.4414C60.2461 67.2852 60.5664 67.2441 60.8652 67.3242C61.166 67.4043 61.4219 67.6016 61.5781 67.8711L64.4316 72.8145C64.7559 73.375 64.5625 74.0918 64.002 74.4141C63.8184 74.5215 63.6172 74.5723 63.418 74.5723C63.0137 74.5723 62.6191 74.3613 62.4023 73.9863L60.9512 71.4707C60.8457 72.1289 60.791 72.7969 60.791 73.4688C60.791 80.3965 66.4277 86.0332 73.3555 86.0332C74.9394 86.0332 76.4805 85.7441 77.9414 85.1699ZM40.1152 26.0664C40.1152 25.4199 40.6387 24.8945 41.2871 24.8945C41.9336 24.8945 42.459 25.4199 42.459 26.0664V29.8398C45.5352 30.3398 47.8789 32.7617 47.8789 35.6699C47.8789 36.3184 47.3535 36.8418 46.707 36.8418C46.0605 36.8418 45.5352 36.3184 45.5352 35.6699C45.5352 33.6953 43.6289 32.0879 41.2871 32.0879C38.9434 32.0879 37.0371 33.6953 37.0371 35.6699C37.0371 37.1934 38.5254 37.9258 40.9551 38.9961C41.2246 39.1133 41.498 39.2344 41.7695 39.3574C42.0332 39.4766 42.2969 39.5918 42.5605 39.709C45.0527 40.8047 47.8789 42.0488 47.8789 45.1777C47.8789 48.0859 45.5352 50.5098 42.459 51.0078V54.7812C42.459 55.4297 41.9336 55.9531 41.2871 55.9531C40.6387 55.9531 40.1152 55.4297 40.1152 54.7812V51.0078C37.0371 50.5098 34.6934 48.0859 34.6934 45.1777C34.6934 44.5312 35.2188 44.0059 35.8652 44.0059C36.5117 44.0059 37.0371 44.5312 37.0371 45.1777C37.0371 47.1543 38.9434 48.7598 41.2871 48.7598C43.6289 48.7598 45.5352 47.1543 45.5352 45.1777C45.5352 43.6562 44.0469 42.9219 41.6152 41.8535C41.3477 41.7344 41.0742 41.6152 40.8027 41.4922C40.5391 41.373 40.2734 41.2559 40.0117 41.1406C37.5195 40.043 34.6934 38.8008 34.6934 35.6699C34.6934 32.7617 37.0371 30.3398 40.1152 29.8398V26.0664ZM21.2012 40.4238C21.2012 29.3496 30.2109 20.3398 41.2871 20.3398C52.3613 20.3398 61.3711 29.3496 61.3711 40.4238C61.3711 51.5 52.3613 60.5098 41.2871 60.5098C30.2109 60.5098 21.2012 51.498 21.2012 40.4238Z" fill="url(#paint0_linear_350_531)"/>
<defs>
<linearGradient id="paint0_linear_350_531" x1="50.4465" y1="5.34521" x2="50.4465" y2="94.8015" gradientUnits="userSpaceOnUse">
<stop stop-color="#A3A3FF"/>
<stop offset="1" stop-color="#1F1FFF"/>
</linearGradient>
</defs>
</svg>
