<svg width="112" height="50" viewBox="0 0 112 50" fill="none"
    xmlns="http://www.w3.org/2000/svg">
    <path d="M62.0494 39.6694C44.8428 34.2363 53.3484 -3.10586 33.368 15.7099C24.6246 24.5536 9.96595 30.3434 3.56105 17.9845C1.43696 13.8108 -0.891548 8.84228 0.796131 4.20416C2.59872 -1.03836 8.99238 0.472743 10.167 5.79945C10.7294 8.60287 11.286 11.7019 12.5988 14.1254C18.5703 24.2227 28.6765 -1.10761 45.3129 4.89313C52.1915 7.05005 56.7211 15.2984 58.0525 21.9953C58.9124 23.8867 60.9227 35.0446 64.1404 33.7501C67.8801 32.0943 70.7238 29.5226 74.1542 27.1374C81.711 22.1414 92.0839 25.0117 95.961 33.1536C96.8945 35.0462 97.3995 37.0355 98.0749 38.9609C98.3262 39.645 99.0697 39.9821 99.7436 39.7489C99.8844 39.6993 100.011 39.62 100.116 39.533C103.142 37.1044 106.771 37.2833 110.012 40.7354C115.863 48.3837 103.658 50.2277 96.8149 48.8772C91.7385 47.8282 92.044 47.4696 90.2481 41.9482C89.6136 40.186 87.1035 32.0837 85.4235 31.1182C81.8162 27.9338 74.8054 44.0265 62.0494 39.6694Z" fill="url(#paint0_linear_184_3133)"/>
    <defs>
        <linearGradient id="paint0_linear_184_3133" x1="74.7903" y1="-30.973" x2="35.323" y2="80.7555" gradientUnits="userSpaceOnUse">
            <stop stop-color="#ECF8FF"/>
            <stop offset="1" stop-color="#DDE7FD"/>
        </linearGradient>
    </defs>
</svg>
