<svg width="123" height="32" viewBox="0 0 123 32" fill="none" xmlns="http://www.w3.org/2000/svg">
<path d="M72.5005 28.1876C53.7067 28.8173 49.1028 -10.5725 36.0005 14.6876C30.4786 26.3368 18.0842 37.0447 7.50063 27.1876C3.96469 23.8454 -0.0480032 19.7978 0.000434256 14.6876C-0.0480032 8.94778 6.75916 8.21809 9.76229 13.0134C11.2881 15.5564 12.9107 18.39 15.042 20.3032C24.4146 28.1017 25.5529 -0.11316 43.9834 0.0079334C51.4912 -0.258473 58.8053 6.23215 62.4381 12.3111C63.9396 13.8611 69.788 24.0611 72.5005 21.6876C75.6005 18.7814 77.5021 15.29 80.0451 11.7782C85.7365 4.29465 96.9256 3.51965 103.562 10.1314C105.136 11.6572 106.322 13.4251 107.654 15.072C108.139 15.6532 108.987 15.7259 109.568 15.2657C109.689 15.1689 109.786 15.0478 109.858 14.9267C111.99 11.5118 115.617 10.4353 120 12.6876C128.404 18.1368 117.051 24.1462 109.858 25.1876C104.506 25.9142 104.682 25.4587 101 20.6876C99.7653 19.1861 94.4864 12.1415 92.5005 11.7782C87.8505 9.9134 86.5474 28.0423 72.5005 28.1876Z" fill="url(#paint0_linear_314_3976)"/>
<defs>
<linearGradient id="paint0_linear_314_3976" x1="61.4853" y1="-0.000848768" x2="61.4853" y2="31.0631" gradientUnits="userSpaceOnUse">
<stop stop-color="#A3A3FF"/>
<stop offset="1" stop-color="#1F1FFF"/>
</linearGradient>
</defs>
</svg>
