<svg width="137" height="62" viewBox="0 0 137 62" fill="none"
    xmlns="http://www.w3.org/2000/svg">
    <circle cx="3" cy="3" r="3" fill="#DFEAFC"/>
    <circle cx="40.333" cy="3" r="3" fill="#DFEAFC"/>
    <circle cx="77.667" cy="3" r="3" fill="#DFEAFC"/>
    <circle cx="115" cy="3" r="3" fill="#DFEAFC"/>
    <circle cx="21.667" cy="3" r="3" fill="#DFEAFC"/>
    <circle cx="59" cy="3" r="3" fill="#DFEAFC"/>
    <circle cx="96.333" cy="3" r="3" fill="#DFEAFC"/>
    <circle cx="133.667" cy="3" r="3" fill="#DFEAFC"/>
    <circle cx="3" cy="21.6665" r="3" fill="#DFEAFC"/>
    <circle cx="40.333" cy="21.6665" r="3" fill="#DFEAFC"/>
    <circle cx="77.667" cy="21.6665" r="3" fill="#DFEAFC"/>
    <circle cx="115" cy="21.6665" r="3" fill="#DFEAFC"/>
    <circle cx="21.667" cy="21.6665" r="3" fill="#DFEAFC"/>
    <circle cx="59" cy="21.6665" r="3" fill="#DFEAFC"/>
    <circle cx="96.333" cy="21.6665" r="3" fill="#DFEAFC"/>
    <circle cx="133.667" cy="21.6665" r="3" fill="#DFEAFC"/>
    <circle cx="3" cy="40.3335" r="3" fill="#DFEAFC"/>
    <circle cx="40.333" cy="40.3335" r="3" fill="#DFEAFC"/>
    <circle cx="77.667" cy="40.3335" r="3" fill="#DFEAFC"/>
    <circle cx="115" cy="40.3335" r="3" fill="#DFEAFC"/>
    <circle cx="21.667" cy="40.3335" r="3" fill="#DFEAFC"/>
    <circle cx="59" cy="40.3335" r="3" fill="#DFEAFC"/>
    <circle cx="96.333" cy="40.3335" r="3" fill="#DFEAFC"/>
    <circle cx="133.667" cy="40.3335" r="3" fill="#DFEAFC"/>
    <circle cx="3" cy="59" r="3" fill="#DFEAFC"/>
    <circle cx="40.333" cy="59" r="3" fill="#DFEAFC"/>
    <circle cx="77.667" cy="59" r="3" fill="#DFEAFC"/>
    <circle cx="115" cy="59" r="3" fill="#DFEAFC"/>
    <circle cx="21.667" cy="59" r="3" fill="#DFEAFC"/>
    <circle cx="59" cy="59" r="3" fill="#DFEAFC"/>
    <circle cx="96.333" cy="59" r="3" fill="#DFEAFC"/>
    <circle cx="133.667" cy="59" r="3" fill="#DFEAFC"/>
</svg>
